{"accessors": [{"bufferView": 2, "componentType": 5126, "count": 553, "max": [0.8681640028953552, 1.0009770393371582, 2.083983898162842], "min": [-0.8681640028953552, 0.3686518967151642, -1.378906011581421], "type": "VEC3"}, {"bufferView": 2, "byteOffset": 6636, "componentType": 5126, "count": 553, "max": [0.9490892291069031, 1.0, 0.9646300077438354], "min": [-0.9490892291069031, -0.0894239991903305, -0.9999837875366211], "type": "VEC3"}, {"bufferView": 1, "componentType": 5126, "count": 553, "max": [0.10711699724197388, 0.607666015625], "min": [0.08972200006246567, 0.5749509930610657], "type": "VEC2"}, {"bufferView": 0, "componentType": 5125, "count": 1980, "type": "SCALAR"}, {"bufferView": 2, "byteOffset": 13272, "componentType": 5126, "count": 66, "max": [0.9516599774360657, 0.8886719942092896, 0.6152340173721313], "min": [-0.9516599774360657, 0.7299799919128418, 0.3369140028953552], "type": "VEC3"}, {"bufferView": 2, "byteOffset": 14064, "componentType": 5126, "count": 66, "max": [0.5957886576652527, 0.20037607848644257, -0.7994125485420227], "min": [-0.5957886576652527, -0.33819901943206787, -0.9557790160179138], "type": "VEC3"}, {"bufferView": 1, "byteOffset": 4424, "componentType": 5126, "count": 66, "max": [0.17504900693893433, 0.6125490069389343], "min": [0.13745099306106567, 0.5749509930610657], "type": "VEC2"}, {"bufferView": 0, "byteOffset": 7920, "componentType": 5125, "count": 180, "type": "SCALAR"}, {"bufferView": 2, "byteOffset": 14856, "componentType": 5126, "count": 15, "max": [0.10272199660539627, 0.9145510196685791, -0.4030759930610657], "min": [-0.10272199660539627, 0.8847659826278687, -0.4033200144767761], "type": "VEC3"}, {"bufferView": 2, "byteOffset": 15036, "componentType": 5126, "count": 15, "max": [0.0024250003043562174, 0.0007990001467987895, -0.999980628490448], "min": [-0.0027399989776313305, -0.005592998117208481, -1.0], "type": "VEC3"}, {"bufferView": 3, "componentType": 5126, "count": 15, "max": [-0.9949361681938171, 0.100508913397789, 0.002740041818469763, 1.0], "min": [-0.9999998211860657, -0.1005089059472084, -0.0024252438452094793, 1.0], "type": "VEC4"}, {"bufferView": 1, "byteOffset": 4952, "componentType": 5126, "count": 15, "max": [0.9946290254592896, 0.1757809966802597], "min": [0.5693359971046448, 0.13134799897670746], "type": "VEC2"}, {"bufferView": 1, "byteOffset": 5072, "componentType": 5126, "count": 15, "max": [0.9946290254592896, 0.1757809966802597], "min": [0.5693359971046448, 0.13134799897670746], "type": "VEC2"}, {"bufferView": 0, "byteOffset": 8640, "componentType": 5125, "count": 36, "type": "SCALAR"}, {"bufferView": 2, "byteOffset": 15216, "componentType": 5126, "count": 186, "max": [0.9726560115814209, 0.7319340109825134, 2.001952886581421], "min": [-0.9726560115814209, 0.023468000814318657, -1.879883050918579], "type": "VEC3"}, {"bufferView": 2, "byteOffset": 17448, "componentType": 5126, "count": 186, "max": [0.8603032827377319, 0.9999121427536011, 1.0], "min": [-0.8603032827377319, -0.8542228937149048, -0.9846659898757935], "type": "VEC3"}, {"bufferView": 3, "byteOffset": 240, "componentType": 5126, "count": 186, "max": [0.9994961023330688, 0.7987608313560486, 0.8216745257377625, 1.0], "min": [-1.0, -0.8225477933883667, -0.570732057094574, -1.0], "type": "VEC4"}, {"bufferView": 1, "byteOffset": 5192, "componentType": 5126, "count": 186, "max": [34.625, 22.78125], "min": [-33.625, -21.28125], "type": "VEC2"}, {"bufferView": 0, "byteOffset": 8784, "componentType": 5125, "count": 468, "type": "SCALAR"}, {"bufferView": 2, "byteOffset": 19680, "componentType": 5126, "count": 92, "max": [0.9501950144767761, 0.5795900225639343, 2.099608898162842], "min": [-0.9501950144767761, 0.13525399565696716, -2.009766101837158], "type": "VEC3"}, {"bufferView": 2, "byteOffset": 20784, "componentType": 5126, "count": 92, "max": [0.9213597774505615, 0.4402889311313629, 0.9269000291824341], "min": [-0.9213597774505615, -0.3432880938053131, -0.9666171073913574], "type": "VEC3"}, {"bufferView": 3, "byteOffset": 3216, "componentType": 5126, "count": 92, "max": [0.9975886940956116, 0.09432542324066162, -0.06940395385026932, 1.0], "min": [-0.9975886940956116, -0.19585558772087097, -0.921373188495636, -1.0], "type": "VEC4"}, {"bufferView": 1, "byteOffset": 6680, "componentType": 5126, "count": 92, "max": [16.0625, 14.210938453674316], "min": [-15.0625, -13.234375], "type": "VEC2"}, {"bufferView": 1, "byteOffset": 7416, "componentType": 5126, "count": 92, "max": [16.0625, 14.210938453674316], "min": [-15.0625, -13.234375], "type": "VEC2"}, {"bufferView": 1, "byteOffset": 8152, "componentType": 5126, "count": 92, "max": [16.0625, 14.210938453674316], "min": [-15.0625, -13.234375], "type": "VEC2"}, {"bufferView": 0, "byteOffset": 10656, "componentType": 5125, "count": 228, "type": "SCALAR"}, {"bufferView": 2, "byteOffset": 21888, "componentType": 5126, "count": 13506, "max": [0.9980470538139343, 0.8618680238723755, 2.212891101837158], "min": [-0.9980470538139343, -2.300000051036477e-05, -2.101979970932007], "type": "VEC3"}, {"bufferView": 2, "byteOffset": 183960, "componentType": 5126, "count": 13506, "max": [1.0, 1.0, 1.0], "min": [-1.0, -1.0, -1.0], "type": "VEC3"}, {"bufferView": 3, "byteOffset": 4688, "componentType": 5126, "count": 13506, "max": [1.0, 1.0, 0.9999979734420776, 1.0], "min": [-1.0, -0.9999396800994873, -1.0, -1.0], "type": "VEC4"}, {"bufferView": 1, "byteOffset": 8888, "componentType": 5126, "count": 13506, "max": [59.09375, 40.6875], "min": [-58.09375, -52.21875], "type": "VEC2"}, {"bufferView": 1, "byteOffset": 116936, "componentType": 5126, "count": 13506, "max": [59.09375, 40.6875], "min": [-58.09375, -52.21875], "type": "VEC2"}, {"bufferView": 0, "byteOffset": 11568, "componentType": 5125, "count": 41760, "type": "SCALAR"}, {"bufferView": 2, "byteOffset": 346032, "componentType": 5126, "count": 2349, "max": [0.9697269797325134, 0.9824219942092896, 0.8984379768371582], "min": [-0.9697269797325134, 9.999999974752427e-07, -1.3623050451278687], "type": "VEC3"}, {"bufferView": 2, "byteOffset": 374220, "componentType": 5126, "count": 2349, "max": [1.0, 1.0, 0.9872307777404785], "min": [-1.0, -0.9920378923416138, -0.9999969005584717], "type": "VEC3"}, {"bufferView": 3, "byteOffset": 220784, "componentType": 5126, "count": 2349, "max": [1.0, 1.0, 1.0, 1.0], "min": [-1.0, -0.9993734359741211, -1.0, -1.0], "type": "VEC4"}, {"bufferView": 1, "byteOffset": 224984, "componentType": 5126, "count": 2349, "max": [18.640625, 17.203125], "min": [-15.617188453674316, -16.453125], "type": "VEC2"}, {"bufferView": 0, "byteOffset": 178608, "componentType": 5125, "count": 6378, "type": "SCALAR"}, {"bufferView": 2, "byteOffset": 402408, "componentType": 5126, "count": 8353, "max": [0.9975590109825134, 1.0185550451278687, 2.205077886581421], "min": [-0.9975590109825134, 0.025832999497652054, -2.1030778884887695], "type": "VEC3"}, {"bufferView": 2, "byteOffset": 502644, "componentType": 5126, "count": 8353, "max": [1.0, 1.0, 0.9978895783424377], "min": [-1.0, -1.0, -0.9999992847442627], "type": "VEC3"}, {"bufferView": 1, "byteOffset": 243776, "componentType": 5126, "count": 8353, "max": [0.9960939884185791, 0.9806370139122009], "min": [0.02517700009047985, 0.0004879999905824661], "type": "VEC2"}, {"bufferView": 0, "byteOffset": 204120, "componentType": 5125, "count": 30561, "type": "SCALAR"}, {"bufferView": 2, "byteOffset": 602880, "componentType": 5126, "count": 374, "max": [0.6977540254592896, 1.09375, 1.9785159826278687], "min": [-0.6977540254592896, 0.20385700464248657, -1.941406011581421], "type": "VEC3"}, {"bufferView": 2, "byteOffset": 607368, "componentType": 5126, "count": 374, "max": [0.9574369788169861, 0.939001739025116, 1.0], "min": [-0.9574369788169861, -0.9888923764228821, -1.0], "type": "VEC3"}, {"bufferView": 3, "byteOffset": 258368, "componentType": 5126, "count": 374, "max": [1.0, 0.6672011613845825, 0.7671372294425964, 1.0], "min": [-1.0, -0.7973570227622986, -0.9511168003082275, -1.0], "type": "VEC4"}, {"bufferView": 1, "byteOffset": 310600, "componentType": 5126, "count": 374, "max": [2.716797113418579, 0.9411619901657104], "min": [0.03549199923872948, 0.2778320014476776], "type": "VEC2"}, {"bufferView": 1, "byteOffset": 313592, "componentType": 5126, "count": 374, "max": [2.716797113418579, 0.9411619901657104], "min": [0.03549199923872948, 0.2778320014476776], "type": "VEC2"}, {"bufferView": 0, "byteOffset": 326364, "componentType": 5125, "count": 600, "type": "SCALAR"}, {"bufferView": 2, "byteOffset": 611856, "componentType": 5126, "count": 1961, "max": [0.53125, 1.105468988418579, 0.8530269861221313], "min": [-0.53125, 0.06039400026202202, -1.9404300451278687], "type": "VEC3"}, {"bufferView": 2, "byteOffset": 635388, "componentType": 5126, "count": 1961, "max": [1.0, 1.0, 1.0], "min": [-1.0, -1.0, -1.0], "type": "VEC3"}, {"bufferView": 3, "byteOffset": 264352, "componentType": 5126, "count": 1961, "max": [1.0, 1.0, 1.0, 1.0], "min": [-1.0, -1.0, -1.0, -1.0], "type": "VEC4"}, {"bufferView": 1, "byteOffset": 316584, "componentType": 5126, "count": 1961, "max": [0.9970700144767761, 0.9990829825401306], "min": [0.0021170000545680523, 0.1479489952325821], "type": "VEC2"}, {"bufferView": 1, "byteOffset": 332272, "componentType": 5126, "count": 1961, "max": [0.9970700144767761, 0.9990829825401306], "min": [0.0021170000545680523, 0.1479489952325821], "type": "VEC2"}, {"bufferView": 0, "byteOffset": 328764, "componentType": 5125, "count": 4680, "type": "SCALAR"}, {"bufferView": 2, "byteOffset": 658920, "componentType": 5126, "count": 8744, "max": [0.9987949728965759, 0.5328050851821899, 1.590656042098999], "min": [-0.9987949728965759, -0.02312999963760376, -1.603700041770935], "type": "VEC3"}, {"bufferView": 2, "byteOffset": 763848, "componentType": 5126, "count": 8744, "max": [1.0, 0.9990582466125488, 0.9994670152664185], "min": [-1.0, -0.9990576505661011, -0.9994693398475647], "type": "VEC3"}, {"bufferView": 3, "byteOffset": 295728, "componentType": 5126, "count": 8744, "max": [0.9999798536300659, 0.9997240900993347, 0.9999960660934448, 1.0], "min": [-0.9999943971633911, -0.9997240900993347, -0.9999960660934448, -1.0], "type": "VEC4"}, {"bufferView": 1, "byteOffset": 347960, "componentType": 5126, "count": 8744, "max": [-9.117188453674316, 19.234375], "min": [-66.6875, -23.8125], "type": "VEC2"}, {"bufferView": 1, "byteOffset": 417912, "componentType": 5126, "count": 8744, "max": [-9.117188453674316, 19.234375], "min": [-66.6875, -23.8125], "type": "VEC2"}, {"bufferView": 0, "byteOffset": 347484, "componentType": 5125, "count": 27240, "type": "SCALAR"}, {"bufferView": 2, "byteOffset": 868776, "componentType": 5126, "count": 13830, "max": [0.9692379832267761, 0.9965819716453552, 1.9921879768371582], "min": [-0.9692379832267761, 0.009398999623954296, -2.060547113418579], "type": "VEC3"}, {"bufferView": 2, "byteOffset": 1034736, "componentType": 5126, "count": 13830, "max": [1.0, 1.0, 1.0], "min": [-1.0, -1.0, -1.0], "type": "VEC3"}, {"bufferView": 3, "byteOffset": 435632, "componentType": 5126, "count": 13830, "max": [1.0, 1.0, 1.0, 1.0], "min": [-1.0, -1.0, -1.0, -1.0], "type": "VEC4"}, {"bufferView": 1, "byteOffset": 487864, "componentType": 5126, "count": 13830, "max": [5.304687976837158, 1.0001980066299438], "min": [-4.566405773162842, -1.1152340173721313], "type": "VEC2"}, {"bufferView": 1, "byteOffset": 598504, "componentType": 5126, "count": 13830, "max": [0.9951170086860657, 0.9911649227142334], "min": [0.0, 0.0], "type": "VEC2"}, {"bufferView": 1, "byteOffset": 709144, "componentType": 5126, "count": 13830, "max": [5.304687976837158, 1.0001980066299438], "min": [-4.566405773162842, -1.1152340173721313], "type": "VEC2"}, {"bufferView": 0, "byteOffset": 456444, "componentType": 5125, "count": 30408, "type": "SCALAR"}, {"bufferView": 2, "byteOffset": 1200696, "componentType": 5126, "count": 428, "max": [0.8603519797325134, 0.6743159890174866, -1.7832030057907104], "min": [-0.8603519797325134, 0.2705079913139343, -2.017577886581421], "type": "VEC3"}, {"bufferView": 2, "byteOffset": 1205832, "componentType": 5126, "count": 428, "max": [0.993554949760437, 0.997076690196991, -0.0429445244371891], "min": [-0.9935551881790161, -0.9904491901397705, -0.9757081270217896], "type": "VEC3"}, {"bufferView": 1, "byteOffset": 819784, "componentType": 5126, "count": 428, "max": [0.04269399866461754, 0.6572269797325134], "min": [0.024840999394655228, 0.6462399959564209], "type": "VEC2"}, {"bufferView": 0, "byteOffset": 578076, "componentType": 5125, "count": 1284, "type": "SCALAR"}, {"bufferView": 2, "byteOffset": 1210968, "componentType": 5126, "count": 1480, "max": [0.9853519797325134, 1.1025389432907104, 2.068358898162842], "min": [-0.9853519797325134, 0.038086000829935074, -2.019531011581421], "type": "VEC3"}, {"bufferView": 2, "byteOffset": 1228728, "componentType": 5126, "count": 1480, "max": [1.0, 1.0, 0.9998588562011719], "min": [-1.0, -1.0, -1.0], "type": "VEC3"}, {"bufferView": 1, "byteOffset": 823208, "componentType": 5126, "count": 1480, "max": [0.4250490069389343, 0.6125490069389343], "min": [0.3249509930610657, 0.5749509930610657], "type": "VEC2"}, {"bufferView": 0, "byteOffset": 583212, "componentType": 5125, "count": 5568, "type": "SCALAR"}, {"bufferView": 2, "byteOffset": 1246488, "componentType": 5126, "count": 516, "max": [0.7353519797325134, 1.0029300451278687, 1.3125], "min": [-0.7353519797325134, 0.6333010196685791, -1.34375], "type": "VEC3"}, {"bufferView": 2, "byteOffset": 1252680, "componentType": 5126, "count": 516, "max": [0.7954198122024536, 0.9999913573265076, 0.8321642875671387], "min": [-0.7954198122024536, -0.999799907207489, -0.6203087568283081], "type": "VEC3"}, {"bufferView": 1, "byteOffset": 835048, "componentType": 5126, "count": 516, "max": [0.04919400066137314, 0.6118159890174866], "min": [0.015143999829888344, 0.5778809785842896], "type": "VEC2"}, {"bufferView": 0, "byteOffset": 605484, "componentType": 5125, "count": 1692, "type": "SCALAR"}, {"bufferView": 2, "byteOffset": 1258872, "componentType": 5126, "count": 3726, "max": [0.9948890209197998, 0.6177660226821899, 1.6646310091018677], "min": [-0.9948890209197998, -0.09756600111722946, -1.6881730556488037], "type": "VEC3"}, {"bufferView": 2, "byteOffset": 1303584, "componentType": 5126, "count": 3726, "max": [0.999795138835907, 0.9988211393356323, 0.999881386756897], "min": [-0.999795138835907, -0.9998803734779358, -0.9988220930099487], "type": "VEC3"}, {"bufferView": 3, "byteOffset": 656912, "componentType": 5126, "count": 3726, "max": [0.9999127388000488, 0.7464573979377747, 0.9999731183052063, 1.0], "min": [-0.4529758095741272, -0.7464569211006165, -0.9999731779098511, -1.0], "type": "VEC4"}, {"bufferView": 1, "byteOffset": 839176, "componentType": 5126, "count": 3726, "max": [0.9750980138778687, -1.0253909826278687], "min": [0.024963000789284706, -1.9746090173721313], "type": "VEC2"}, {"bufferView": 1, "byteOffset": 868984, "componentType": 5126, "count": 3726, "max": [0.9750980138778687, -1.0253909826278687], "min": [0.024963000789284706, -1.9746090173721313], "type": "VEC2"}, {"bufferView": 0, "byteOffset": 612252, "componentType": 5125, "count": 15120, "type": "SCALAR"}, {"bufferView": 2, "byteOffset": 1348296, "componentType": 5126, "count": 2114, "max": [1.0151519775390625, 0.4656659960746765, 1.47298002243042], "min": [-1.0151519775390625, 0.19131700694561005, -1.4817520380020142], "type": "VEC3"}, {"bufferView": 2, "byteOffset": 1373664, "componentType": 5126, "count": 2114, "max": [1.0, 0.9967362284660339, 0.999997615814209], "min": [-1.0, -0.9998078942298889, -0.9999978542327881], "type": "VEC3"}, {"bufferView": 3, "byteOffset": 716528, "componentType": 5126, "count": 2114, "max": [0.9990462064743042, 0.9999967813491821, 0.9999999403953552, 1.0], "min": [-0.9988729357719421, -0.9997895359992981, -1.0, -1.0], "type": "VEC4"}, {"bufferView": 1, "byteOffset": 898792, "componentType": 5126, "count": 2114, "max": [0.9482420086860657, 0.9907609820365906], "min": [-0.9956049919128418, -0.9658200144767761], "type": "VEC2"}, {"bufferView": 1, "byteOffset": 915704, "componentType": 5126, "count": 2114, "max": [0.9482420086860657, 0.9907609820365906], "min": [-0.9956049919128418, -0.9658200144767761], "type": "VEC2"}, {"bufferView": 0, "byteOffset": 672732, "componentType": 5125, "count": 5928, "type": "SCALAR"}, {"bufferView": 2, "byteOffset": 1399032, "componentType": 5126, "count": 5734, "max": [0.9838870167732239, 0.7954099774360657, 2.083983898162842], "min": [-0.9838870167732239, 0.03894000127911568, -2.017577886581421], "type": "VEC3"}, {"bufferView": 2, "byteOffset": 1467840, "componentType": 5126, "count": 5734, "max": [1.0, 1.0, 0.9999996423721313], "min": [-1.0, -1.0, -1.0], "type": "VEC3"}, {"bufferView": 3, "byteOffset": 750352, "componentType": 5126, "count": 5734, "max": [1.0, 0.9999989867210388, 1.0, 1.0], "min": [-1.0, -0.9999989867210388, -1.0, -1.0], "type": "VEC4"}, {"bufferView": 1, "byteOffset": 932616, "componentType": 5126, "count": 5734, "max": [1.9902340173721313, 0.9924659729003906], "min": [-0.4379880130290985, -1.9316409826278687], "type": "VEC2"}, {"bufferView": 1, "byteOffset": 978488, "componentType": 5126, "count": 5734, "max": [1.9902340173721313, 0.9924659729003906], "min": [-0.4379880130290985, -1.9316409826278687], "type": "VEC2"}, {"bufferView": 0, "byteOffset": 696444, "componentType": 5125, "count": 13752, "type": "SCALAR"}, {"bufferView": 2, "byteOffset": 1536648, "componentType": 5126, "count": 156, "max": [0.1523440033197403, 0.5654300451278687, -1.96875], "min": [-0.1523440033197403, 0.4184570014476776, -2.019531011581421], "type": "VEC3"}, {"bufferView": 2, "byteOffset": 1538520, "componentType": 5126, "count": 156, "max": [0.999963641166687, 0.9284766316413879, 0.3713908791542053], "min": [-0.999963641166687, -0.9161572456359863, -0.9551364779472351], "type": "VEC3"}, {"bufferView": 1, "byteOffset": 1024360, "componentType": 5126, "count": 156, "max": [0.9941409826278687, 0.9961469769477844], "min": [0.006328999996185303, 0.004395000170916319], "type": "VEC2"}, {"bufferView": 0, "byteOffset": 751452, "componentType": 5125, "count": 432, "type": "SCALAR"}, {"bufferView": 2, "byteOffset": 1540392, "componentType": 5126, "count": 3455, "max": [0.9926760196685791, 0.9213870167732239, 2.140625], "min": [-0.9926760196685791, -0.0007469999836757779, -1.753906011581421], "type": "VEC3"}, {"bufferView": 2, "byteOffset": 1581852, "componentType": 5126, "count": 3455, "max": [1.0, 1.0, 1.0], "min": [-1.0, -1.0, -0.9999988675117493], "type": "VEC3"}, {"bufferView": 3, "byteOffset": 842096, "componentType": 5126, "count": 3455, "max": [1.0, 1.0, 1.0, 1.0], "min": [-1.0, -1.0, -1.0, -1.0], "type": "VEC4"}, {"bufferView": 1, "byteOffset": 1025608, "componentType": 5126, "count": 3455, "max": [0.7221680283546448, 0.6772459745407104], "min": [0.0012649999698624015, -2.445312023162842], "type": "VEC2"}, {"bufferView": 1, "byteOffset": 1053248, "componentType": 5126, "count": 3455, "max": [0.7221680283546448, 0.6772459745407104], "min": [0.0012649999698624015, -2.445312023162842], "type": "VEC2"}, {"bufferView": 1, "byteOffset": 1080888, "componentType": 5126, "count": 3455, "max": [0.7221680283546448, 0.6772459745407104], "min": [0.0012649999698624015, -2.445312023162842], "type": "VEC2"}, {"bufferView": 0, "byteOffset": 753180, "componentType": 5125, "count": 7026, "type": "SCALAR"}, {"bufferView": 2, "byteOffset": 1623312, "componentType": 5126, "count": 1343, "max": [0.9413509964942932, 0.4063139855861664, 1.2296940088272095], "min": [-0.9413509964942932, 0.06378400325775146, -1.5369280576705933], "type": "VEC3"}, {"bufferView": 2, "byteOffset": 1639428, "componentType": 5126, "count": 1343, "max": [1.0, 1.0, 0.999813973903656], "min": [-1.0, -1.0, -1.0], "type": "VEC3"}, {"bufferView": 3, "byteOffset": 897376, "componentType": 5126, "count": 1343, "max": [1.0, 0.9957819581031799, 1.0, 1.0], "min": [-1.0, -0.7009848356246948, -1.0, -1.0], "type": "VEC4"}, {"bufferView": 1, "byteOffset": 1108528, "componentType": 5126, "count": 1343, "max": [0.9946290254592896, 0.9873809814453125], "min": [0.006556999869644642, -2.994141101837158], "type": "VEC2"}, {"bufferView": 1, "byteOffset": 1119272, "componentType": 5126, "count": 1343, "max": [0.9946290254592896, 0.9873809814453125], "min": [0.006556999869644642, -2.994141101837158], "type": "VEC2"}, {"bufferView": 0, "byteOffset": 781284, "componentType": 5125, "count": 3756, "type": "SCALAR"}, {"bufferView": 2, "byteOffset": 1655544, "componentType": 5126, "count": 1575, "max": [0.9331210255622864, 0.4521160125732422, 1.5299869775772095], "min": [-0.9331210255622864, 0.03644099831581116, -1.5216690301895142], "type": "VEC3"}, {"bufferView": 2, "byteOffset": 1674444, "componentType": 5126, "count": 1575, "max": [1.0, 1.0, 1.0], "min": [-1.0, -1.0, -1.0], "type": "VEC3"}, {"bufferView": 3, "byteOffset": 918864, "componentType": 5126, "count": 1575, "max": [0.9994856715202332, 1.0, 1.0, 1.0], "min": [-0.9994856715202332, -1.0, -1.0, -1.0], "type": "VEC4"}, {"bufferView": 1, "byteOffset": 1130016, "componentType": 5126, "count": 1575, "max": [0.9824219942092896, -3.007812023162842], "min": [0.012543000280857086, -3.992187976837158], "type": "VEC2"}, {"bufferView": 1, "byteOffset": 1142616, "componentType": 5126, "count": 1575, "max": [0.9824219942092896, -3.007812023162842], "min": [0.012543000280857086, -3.992187976837158], "type": "VEC2"}, {"bufferView": 0, "byteOffset": 796308, "componentType": 5125, "count": 3120, "type": "SCALAR"}, {"bufferView": 2, "byteOffset": 1693344, "componentType": 5126, "count": 1018, "max": [1.0160069465637207, 0.7539060115814209, 2.142577886581421], "min": [-1.0160069465637207, -0.01995600014925003, -2.091797113418579], "type": "VEC3"}, {"bufferView": 2, "byteOffset": 1705560, "componentType": 5126, "count": 1018, "max": [1.0, 0.9984603524208069, 1.0], "min": [-1.0, -0.9999989867210388, -1.0], "type": "VEC3"}, {"bufferView": 3, "byteOffset": 944064, "componentType": 5126, "count": 1018, "max": [1.0, 0.9999319911003113, 1.0, 1.0], "min": [-1.0, -0.9999319314956665, -1.0, -1.0], "type": "VEC4"}, {"bufferView": 1, "byteOffset": 1155216, "componentType": 5126, "count": 1018, "max": [1.0087889432907104, 1.0051079988479614], "min": [-0.6567379832267761, -2.351562023162842], "type": "VEC2"}, {"bufferView": 1, "byteOffset": 1163360, "componentType": 5126, "count": 1018, "max": [1.0087889432907104, 1.0051079988479614], "min": [-0.6567379832267761, -2.351562023162842], "type": "VEC2"}, {"bufferView": 1, "byteOffset": 1171504, "componentType": 5126, "count": 1018, "max": [1.0087889432907104, 1.0051079988479614], "min": [-0.6567379832267761, -2.351562023162842], "type": "VEC2"}, {"bufferView": 0, "byteOffset": 808788, "componentType": 5125, "count": 2046, "type": "SCALAR"}, {"bufferView": 2, "byteOffset": 1717776, "componentType": 5126, "count": 15210, "max": [0.9931640028953552, 1.1025390625, 2.191406011581421], "min": [-0.9931640028953552, 9.999999974752427e-07, -2.097656011581421], "type": "VEC3"}, {"bufferView": 2, "byteOffset": 1900296, "componentType": 5126, "count": 15210, "max": [1.0, 1.0, 1.0], "min": [-1.0, -1.0, -1.0], "type": "VEC3"}, {"bufferView": 1, "byteOffset": 1179648, "componentType": 5126, "count": 15210, "max": [0.9956049919128418, 0.9875029921531677], "min": [0.010262000374495983, 0.038086000829935074], "type": "VEC2"}, {"bufferView": 0, "byteOffset": 816972, "componentType": 5125, "count": 34461, "type": "SCALAR"}], "asset": {"extras": {"author": "Ddiaz Design (https://sketchfab.com/ddiaz-design)", "license": "CC-BY-NC-SA-4.0 (http://creativecommons.org/licenses/by-nc-sa/4.0/)", "source": "https://sketchfab.com/3d-models/2013-zephyrs-koenigsegg-agera-r-patrol-6af85a718224478483e700ab757371ea", "title": "2013 Zephyr's Koenigsegg Agera R - Patrol"}, "generator": "Sketchfab-17.14.0", "version": "2.0"}, "bufferViews": [{"buffer": 0, "byteLength": 954816, "name": "floatBufferViews", "target": 34963}, {"buffer": 0, "byteLength": 1301328, "byteOffset": 954816, "byteStride": 8, "name": "floatBufferViews", "target": 34962}, {"buffer": 0, "byteLength": 2082816, "byteOffset": 2256144, "byteStride": 12, "name": "floatBufferViews", "target": 34962}, {"buffer": 0, "byteLength": 960352, "byteOffset": 4338960, "byteStride": 16, "name": "floatBufferViews", "target": 34962}], "buffers": [{"byteLength": 5299312, "uri": "scene.bin"}], "extensionsUsed": ["KHR_materials_emissive_strength", "KHR_materials_specular", "KHR_materials_clearcoat", "KHR_materials_transmission"], "images": [{"uri": "textures/Light_C_baseColor.jpg"}, {"uri": "textures/Light_C_emissive.jpg"}, {"uri": "textures/Light_C_normal.jpg"}, {"uri": "textures/grille_B_normal.jpg"}, {"uri": "textures/grille_a_baseColor.png"}, {"uri": "textures/grille_a_normal.jpg"}, {"uri": "textures/Carbon_baseColor.jpg"}, {"uri": "textures/Carbon_normal.jpg"}, {"uri": "textures/AGERA_RinitialShadingGroup1_baseColor.jpg"}, {"uri": "textures/CarPaint_baseColor.jpg"}, {"uri": "textures/CarPaint_metallicRoughness.jpg"}, {"uri": "textures/Light_Cop_baseColor.jpg"}, {"uri": "textures/Light_Cop_emissive.jpg"}, {"uri": "textures/Light_Cop_normal.jpg"}, {"uri": "textures/cop_props_baseColor.jpg"}, {"uri": "textures/cop_props_normal.jpg"}, {"uri": "textures/internal_baseColor.jpg"}, {"uri": "textures/internal_emissive.jpg"}, {"uri": "textures/internal_normal.jpg"}, {"uri": "textures/tire_metallicRoughness.jpg"}, {"uri": "textures/tire_normal.jpg"}, {"uri": "textures/material_baseColor.jpg"}, {"uri": "textures/material_normal.jpg"}, {"uri": "textures/plate_baseColor.jpg"}, {"uri": "textures/chassis_baseColor.png"}, {"uri": "textures/chassis_normal.jpg"}, {"uri": "textures/calipers_baseColor.jpg"}, {"uri": "textures/calipers_metallicRoughness.jpg"}, {"uri": "textures/calipers_normal.jpg"}, {"uri": "textures/breaks_baseColor.jpg"}, {"uri": "textures/breaks_normal.jpg"}, {"uri": "textures/badges_baseColor.png"}, {"uri": "textures/badges_normal.jpg"}, {"uri": "textures/swatch_baseColor.jpg"}], "materials": [{"doubleSided": true, "name": "glass_surr", "pbrMetallicRoughness": {"baseColorFactor": [0.0, 0.0, 0.0, 1.0], "metallicFactor": 0.7542880130682302, "roughnessFactor": 0.0}}, {"doubleSided": true, "name": "mirrors", "pbrMetallicRoughness": {"roughnessFactor": 0.0}}, {"doubleSided": true, "emissiveFactor": [1.0, 1.0, 1.0], "emissiveTexture": {"index": 1}, "extensions": {"KHR_materials_emissive_strength": {"emissiveStrength": 5.836208262729943}, "KHR_materials_specular": {"specularColorFactor": [1.0, 1.0, 1.0], "specularFactor": 0.38247735612146627}}, "name": "Light_C", "normalTexture": {"index": 2}, "pbrMetallicRoughness": {"baseColorTexture": {"index": 0}, "metallicFactor": 0.693335446355646, "roughnessFactor": 0.19961965598371345}}, {"doubleSided": true, "extensions": {"KHR_materials_specular": {"specularColorFactor": [1.0, 1.0, 1.0], "specularFactor": 0.21790542599748874}}, "name": "grille_B", "normalTexture": {"index": 3}, "pbrMetallicRoughness": {"baseColorFactor": [0.026383080430379433, 0.026383080430379433, 0.026383080430379433, 1.0], "metallicFactor": 0.5714303129304774, "roughnessFactor": 0.32152478940888196}}, {"alphaMode": "BLEND", "doubleSided": true, "extensions": {"KHR_materials_specular": {"specularColorFactor": [1.0, 1.0, 1.0], "specularFactor": 0.3520010727651741}}, "name": "grille_a", "normalTexture": {"index": 5}, "pbrMetallicRoughness": {"baseColorTexture": {"index": 4}, "metallicFactor": 0.6201923663005449, "roughnessFactor": 0.2544769660250393}}, {"doubleSided": true, "extensions": {"KHR_materials_clearcoat": {"clearcoatFactor": 0.33981055942265725, "clearcoatRoughnessFactor": 0.04}, "KHR_materials_specular": {"specularColorFactor": [1.0, 1.0, 1.0], "specularFactor": 0.05}}, "name": "Carbon", "normalTexture": {"index": 7}, "pbrMetallicRoughness": {"baseColorTexture": {"index": 6}, "metallicFactor": 0.4, "roughnessFactor": 0.48}}, {"doubleSided": true, "extensions": {"KHR_materials_clearcoat": {"clearcoatFactor": 0.33981055942265725, "clearcoatRoughnessFactor": 0.04}, "KHR_materials_specular": {"specularColorFactor": [1.0, 1.0, 1.0], "specularFactor": 0.05}}, "name": "AGERA_RinitialShadingGroup1", "normalTexture": {"index": 7}, "pbrMetallicRoughness": {"baseColorTexture": {"index": 8}, "metallicFactor": 0.4, "roughnessFactor": 0.48}}, {"doubleSided": true, "extensions": {"KHR_materials_specular": {"specularColorFactor": [1.0, 1.0, 1.0], "specularFactor": 0.3946678694639831}}, "name": "CarPaint", "pbrMetallicRoughness": {"baseColorTexture": {"index": 9}, "metallicRoughnessTexture": {"index": 10}, "roughnessFactor": 0.10209554924357864}}, {"doubleSided": true, "emissiveFactor": [1.0, 1.0, 1.0], "emissiveTexture": {"index": 12}, "extensions": {"KHR_materials_emissive_strength": {"emissiveStrength": 6.689544196706123}, "KHR_materials_specular": {"specularColorFactor": [1.0, 1.0, 1.0], "specularFactor": 0.32152478940888196}}, "name": "Light_Cop", "normalTexture": {"index": 13}, "pbrMetallicRoughness": {"baseColorTexture": {"index": 11}, "metallicFactor": 0.9615267398910168, "roughnessFactor": 0.10573712634405641}}, {"doubleSided": true, "extensions": {"KHR_materials_specular": {"specularColorFactor": [1.0, 1.0, 1.0], "specularFactor": 0.3154295327376236}}, "name": "cop_props", "normalTexture": {"index": 15}, "pbrMetallicRoughness": {"baseColorTexture": {"index": 14}, "metallicFactor": 0.5958113396155111, "roughnessFactor": 0.28495324938133143}}, {"doubleSided": true, "emissiveFactor": [1.0, 1.0, 1.0], "emissiveTexture": {"index": 17, "texCoord": 1}, "extensions": {"KHR_materials_emissive_strength": {"emissiveStrength": 6.262876229718033}, "KHR_materials_specular": {"specularColorFactor": [1.0, 1.0, 1.0], "specularFactor": 0.3154295327376236}}, "name": "internal", "normalTexture": {"index": 18}, "pbrMetallicRoughness": {"baseColorTexture": {"index": 16}, "metallicFactor": 0.6384781363143202, "roughnessFactor": 0.4007631261352415}}, {"alphaMode": "BLEND", "doubleSided": true, "extensions": {"KHR_materials_specular": {"specularColorFactor": [1.0, 1.0, 1.0], "specularFactor": 1.0}, "KHR_materials_transmission": {"transmissionFactor": 1.0}}, "name": "red_glass", "pbrMetallicRoughness": {"baseColorFactor": [0.5, 0.0, 0.0, 0.25], "metallicFactor": 0.0, "roughnessFactor": 0.0}}, {"alphaMode": "BLEND", "doubleSided": true, "extensions": {"KHR_materials_clearcoat": {"clearcoatFactor": 1.0, "clearcoatRoughnessFactor": 0.0}, "KHR_materials_specular": {"specularColorFactor": [1.0, 1.0, 1.0], "specularFactor": 1.0}}, "name": "light_glass", "pbrMetallicRoughness": {"baseColorFactor": [0.0, 0.0, 0.0, 0.4373346661627921], "metallicFactor": 0.0, "roughnessFactor": 0.0}}, {"alphaMode": "BLEND", "doubleSided": true, "extensions": {"KHR_materials_specular": {"specularColorFactor": [1.0, 1.0, 1.0], "specularFactor": 0.7908595530957808}, "KHR_materials_transmission": {"transmissionFactor": 1.0}}, "name": "glass_Window", "pbrMetallicRoughness": {"baseColorFactor": [0.0, 0.0, 0.0, 0.25], "metallicFactor": 0.0, "roughnessFactor": 0.0}}, {"doubleSided": true, "extensions": {"KHR_materials_specular": {"specularColorFactor": [1.0, 1.0, 1.0], "specularFactor": 0.32152478940888196}}, "name": "tire", "normalTexture": {"index": 20}, "occlusionTexture": {"index": 19}, "pbrMetallicRoughness": {"baseColorFactor": [0.025191469456802475, 0.025191469456802475, 0.025191469456802475, 1.0], "metallicFactor": 0.6689544196706123, "metallicRoughnessTexture": {"index": 19}, "roughnessFactor": 0.3337153027513988}}, {"doubleSided": true, "extensions": {"KHR_materials_specular": {"specularColorFactor": [1.0, 1.0, 1.0], "specularFactor": 0.3276200460801404}}, "name": "material", "normalTexture": {"index": 22}, "pbrMetallicRoughness": {"baseColorTexture": {"index": 21}, "metallicFactor": 0.5897160829442527, "roughnessFactor": 0.2605722226962977}}, {"doubleSided": true, "extensions": {"KHR_materials_specular": {"specularColorFactor": [1.0, 1.0, 1.0], "specularFactor": 0.236191196011264}}, "name": "plate", "pbrMetallicRoughness": {"baseColorTexture": {"index": 23}, "metallicFactor": 0.5714303129304774, "roughnessFactor": 0.3276200460801404}}, {"alphaMode": "BLEND", "doubleSided": true, "extensions": {"KHR_materials_specular": {"specularColorFactor": [1.0, 1.0, 1.0], "specularFactor": 0.18742914264119662}}, "name": "chassis", "normalTexture": {"index": 25}, "pbrMetallicRoughness": {"baseColorTexture": {"index": 24}, "metallicFactor": 0.4860967195328595, "roughnessFactor": 0.33981055942265725}}, {"doubleSided": true, "extensions": {"KHR_materials_specular": {"specularColorFactor": [1.0, 1.0, 1.0], "specularFactor": 0.236191196011264}}, "name": "calipers", "normalTexture": {"index": 28}, "pbrMetallicRoughness": {"baseColorTexture": {"index": 26}, "metallicRoughnessTexture": {"index": 27}, "roughnessFactor": 0.28495324938133143}}, {"doubleSided": true, "extensions": {"KHR_materials_specular": {"specularColorFactor": [1.0, 1.0, 1.0], "specularFactor": 0.2971437627238483}}, "name": "breaks", "normalTexture": {"index": 30}, "pbrMetallicRoughness": {"baseColorTexture": {"index": 29}, "metallicFactor": 0.5897160829442527, "roughnessFactor": 0.278857992710073}}, {"alphaMode": "BLEND", "doubleSided": true, "extensions": {"KHR_materials_specular": {"specularColorFactor": [1.0, 1.0, 1.0], "specularFactor": 0.5531445429167022}}, "name": "badges", "normalTexture": {"index": 32}, "pbrMetallicRoughness": {"baseColorTexture": {"index": 31}, "metallicFactor": 0.5714303129304774, "roughnessFactor": 0.08380977922980336}}, {"doubleSided": true, "extensions": {"KHR_materials_specular": {"specularColorFactor": [1.0, 1.0, 1.0], "specularFactor": 0.3154295327376236}}, "name": "swatch", "pbrMetallicRoughness": {"baseColorTexture": {"index": 33}, "metallicFactor": 0.778669039753264, "roughnessFactor": 0.1569528592849045}}], "meshes": [{"name": "AGERA_R:M_Glass_Mirrors_Highcar_koenigsegg_agerar_2013_stolencop_Mesh_lod0_glass_surr_0", "primitives": [{"attributes": {"NORMAL": 1, "POSITION": 0, "TEXCOORD_0": 2}, "indices": 3, "material": 0, "mode": 4}]}, {"name": "AGERA_R:M_Glass_Mirrors_Highcar_koenigsegg_agerar_2013_stolencop_Mesh_lod0_mirrors_0", "primitives": [{"attributes": {"NORMAL": 5, "POSITION": 4, "TEXCOORD_0": 6}, "indices": 7, "material": 1, "mode": 4}]}, {"name": "AGERA_R:car_koenigsegg_agerar_2013_stolencop_Mesh_lod0M_LightCluster_High_middle_Light_C_0", "primitives": [{"attributes": {"NORMAL": 9, "POSITION": 8, "TANGENT": 10, "TEXCOORD_0": 11, "TEXCOORD_1": 12}, "indices": 13, "material": 2, "mode": 4}]}, {"name": "AGERA_R:car_koenigsegg_agerar_2013_stolencop_Mesh_lod0M_GrilleB_High_grille_B_0", "primitives": [{"attributes": {"NORMAL": 15, "POSITION": 14, "TANGENT": 16, "TEXCOORD_0": 17}, "indices": 18, "material": 3, "mode": 4}]}, {"name": "AGERA_R:car_koenigsegg_agerar_2013_stolencop_Mesh_lod0M_GrilleA_High_grille_a_0", "primitives": [{"attributes": {"NORMAL": 20, "POSITION": 19, "TANGENT": 21, "TEXCOORD_0": 22, "TEXCOORD_1": 23, "TEXCOORD_2": 24}, "indices": 25, "material": 4, "mode": 4}]}, {"name": "AGERA_R:car_koenigsegg_agerar_2013_stolencop_Mesh_lod0M_CarbonA_High_Carbon_0", "primitives": [{"attributes": {"NORMAL": 27, "POSITION": 26, "TANGENT": 28, "TEXCOORD_0": 29, "TEXCOORD_1": 30}, "indices": 31, "material": 5, "mode": 4}]}, {"name": "AGERA_R:car_koenigsegg_agerar_2013_stolencop_Mesh_lod0M_InternalTiled_CarbonA_High_AGERA_R:initialShadingGroup1_0", "primitives": [{"attributes": {"NORMAL": 33, "POSITION": 32, "TANGENT": 34, "TEXCOORD_0": 35}, "indices": 36, "material": 6, "mode": 4}]}, {"name": "AGERA_R:car_koenigsegg_agerar_2013_stolencop_Mesh_lod0M_Paint_Carbon_High_CarPaint_0", "primitives": [{"attributes": {"NORMAL": 38, "POSITION": 37, "TEXCOORD_0": 39}, "indices": 40, "material": 7, "mode": 4}]}, {"name": "AGERA_R:car_koenigsegg_agerar_2013_stolencop_Mesh_lod0M_Cop_Lights_High_Light_Cop_0", "primitives": [{"attributes": {"NORMAL": 42, "POSITION": 41, "TANGENT": 43, "TEXCOORD_0": 44, "TEXCOORD_1": 45}, "indices": 46, "material": 8, "mode": 4}]}, {"name": "AGERA_R:car_koenigsegg_agerar_2013_stolencop_Mesh_lod0M_Cop_Props_High_cop_props_0", "primitives": [{"attributes": {"NORMAL": 48, "POSITION": 47, "TANGENT": 49, "TEXCOORD_0": 50, "TEXCOORD_1": 51}, "indices": 52, "material": 9, "mode": 4}]}, {"name": "AGERA_R:car_koenigsegg_agerar_2013_stolencop_Mesh_lod0M_Rim_Carbon_High_Carbon_0", "primitives": [{"attributes": {"NORMAL": 54, "POSITION": 53, "TANGENT": 55, "TEXCOORD_0": 56, "TEXCOORD_1": 57}, "indices": 58, "material": 5, "mode": 4}]}, {"name": "AGERA_R:car_koenigsegg_agerar_2013_stolencop_Mesh_lod0M_Internal_Interior_High_internal_0", "primitives": [{"attributes": {"NORMAL": 60, "POSITION": 59, "TANGENT": 61, "TEXCOORD_0": 62, "TEXCOORD_1": 63, "TEXCOORD_2": 64}, "indices": 65, "material": 10, "mode": 4}]}, {"name": "AGERA_R:car_koenigsegg_agerar_2013_stolencop_Mesh_lod0M_GlassColor_Red_High_red_glass_0", "primitives": [{"attributes": {"NORMAL": 67, "POSITION": 66, "TEXCOORD_0": 68}, "indices": 69, "material": 11, "mode": 4}]}, {"name": "AGERA_R:car_koenigsegg_agerar_2013_stolencop_Mesh_lod0M_Glass_Lights_High_light_glass_0", "primitives": [{"attributes": {"NORMAL": 71, "POSITION": 70, "TEXCOORD_0": 72}, "indices": 73, "material": 12, "mode": 4}]}, {"name": "AGERA_R:car_koenigsegg_agerar_2013_stolencop_Mesh_lod0M_Glass_Lights_High_glass_Window_0", "primitives": [{"attributes": {"NORMAL": 75, "POSITION": 74, "TEXCOORD_0": 76}, "indices": 77, "material": 13, "mode": 4}]}, {"name": "AGERA_R:car_koenigsegg_agerar_2013_stolencop_Mesh_lod0M_Tire_High_tire_0", "primitives": [{"attributes": {"NORMAL": 79, "POSITION": 78, "TANGENT": 80, "TEXCOORD_0": 81, "TEXCOORD_1": 82}, "indices": 83, "material": 14, "mode": 4}]}, {"name": "AGERA_R:car_koenigsegg_agerar_2013_stolencop_Mesh_lod0M_Rim_High_Rim_0", "primitives": [{"attributes": {"NORMAL": 85, "POSITION": 84, "TANGENT": 86, "TEXCOORD_0": 87, "TEXCOORD_1": 88}, "indices": 89, "material": 15, "mode": 4}]}, {"name": "AGERA_R:car_koenigsegg_agerar_2013_stolencop_Mesh_lod0M_Lightcluster_High_Light_C_0", "primitives": [{"attributes": {"NORMAL": 91, "POSITION": 90, "TANGENT": 92, "TEXCOORD_0": 93, "TEXCOORD_1": 94}, "indices": 95, "material": 2, "mode": 4}]}, {"name": "AGERA_R:car_koenigsegg_agerar_2013_stolencop_Mesh_lod0M_LicensePlate_High_plate_0", "primitives": [{"attributes": {"NORMAL": 97, "POSITION": 96, "TEXCOORD_0": 98}, "indices": 99, "material": 16, "mode": 4}]}, {"name": "AGERA_R:car_koenigsegg_agerar_2013_stolencop_Mesh_lod0M_Chassis_High_chassis_0", "primitives": [{"attributes": {"NORMAL": 101, "POSITION": 100, "TANGENT": 102, "TEXCOORD_0": 103, "TEXCOORD_1": 104, "TEXCOORD_2": 105}, "indices": 106, "material": 17, "mode": 4}]}, {"name": "AGERA_R:car_koenigsegg_agerar_2013_stolencop_Mesh_lod0M_Caliper_High_calipers_0", "primitives": [{"attributes": {"NORMAL": 108, "POSITION": 107, "TANGENT": 109, "TEXCOORD_0": 110, "TEXCOORD_1": 111}, "indices": 112, "material": 18, "mode": 4}]}, {"name": "AGERA_R:car_koenigsegg_agerar_2013_stolencop_Mesh_lod0M_BrakeDisc_High_breaks_0", "primitives": [{"attributes": {"NORMAL": 114, "POSITION": 113, "TANGENT": 115, "TEXCOORD_0": 116, "TEXCOORD_1": 117}, "indices": 118, "material": 19, "mode": 4}]}, {"name": "AGERA_R:car_koenigsegg_agerar_2013_stolencop_Mesh_lod0M_Badges_High_badges_0", "primitives": [{"attributes": {"NORMAL": 120, "POSITION": 119, "TANGENT": 121, "TEXCOORD_0": 122, "TEXCOORD_1": 123, "TEXCOORD_2": 124}, "indices": 125, "material": 20, "mode": 4}]}, {"name": "AGERA_R:car_koenigsegg_agerar_2013_stolencop_Mesh_lod0M_Opaque_AluminiumRough_High_swatch_0", "primitives": [{"attributes": {"NORMAL": 127, "POSITION": 126, "TEXCOORD_0": 128}, "indices": 129, "material": 21, "mode": 4}]}], "nodes": [{"children": [1], "matrix": [1.0, 0.0, 0.0, 0.0, 0.0, 2.220446049250313e-16, -1.0, 0.0, 0.0, 1.0, 2.220446049250313e-16, 0.0, 0.0, 0.0, 0.0, 1.0], "name": "Sketchfab_model"}, {"children": [2], "matrix": [0.009999999776482582, 0.0, 0.0, 0.0, 0.0, 0.0, 0.009999999776482582, 0.0, 0.0, -0.009999999776482582, 0.0, 0.0, 0.0, 0.0, 0.0, 1.0], "name": "FINAL_MODEL_Zephyr.fbx"}, {"children": [3, 6, 8, 10, 12, 14, 16, 18, 20, 22, 24, 26, 28, 31, 33, 35, 37, 39, 41, 43, 45, 47], "name": "RootNode"}, {"children": [4, 5], "name": "AGERA_R:M_Glass_Mirrors_Highcar_koenigsegg_agerar_2013_stolencop_Mesh_lod0"}, {"mesh": 0, "name": "AGERA_R:M_Glass_Mirrors_Highcar_koenigsegg_agerar_2013_stolencop_Mesh_lod0_glass_surr_0"}, {"mesh": 1, "name": "AGERA_R:M_Glass_Mirrors_Highcar_koenigsegg_agerar_2013_stolencop_Mesh_lod0_mirrors_0"}, {"children": [7], "name": "AGERA_R:car_koenigsegg_agerar_2013_stolencop_Mesh_lod0M_LightCluster_High_middle"}, {"mesh": 2, "name": "AGERA_R:car_koenigsegg_agerar_2013_stolencop_Mesh_lod0M_LightCluster_High_middle_Light_C_0"}, {"children": [9], "name": "AGERA_R:car_koenigsegg_agerar_2013_stolencop_Mesh_lod0M_GrilleB_High"}, {"mesh": 3, "name": "AGERA_R:car_koenigsegg_agerar_2013_stolencop_Mesh_lod0M_GrilleB_High_grille_B_0"}, {"children": [11], "name": "AGERA_R:car_koenigsegg_agerar_2013_stolencop_Mesh_lod0M_GrilleA_High"}, {"mesh": 4, "name": "AGERA_R:car_koenigsegg_agerar_2013_stolencop_Mesh_lod0M_GrilleA_High_grille_a_0"}, {"children": [13], "name": "AGERA_R:car_koenigsegg_agerar_2013_stolencop_Mesh_lod0M_CarbonA_High"}, {"mesh": 5, "name": "AGERA_R:car_koenigsegg_agerar_2013_stolencop_Mesh_lod0M_CarbonA_High_Carbon_0"}, {"children": [15], "name": "AGERA_R:car_koenigsegg_agerar_2013_stolencop_Mesh_lod0M_InternalTiled_CarbonA_High"}, {"mesh": 6, "name": "AGERA_R:car_koenigsegg_agerar_2013_stolencop_Mesh_lod0M_InternalTiled_CarbonA_High_AGERA_R:initialShadingGroup1_0"}, {"children": [17], "name": "AGERA_R:car_koenigsegg_agerar_2013_stolencop_Mesh_lod0M_Paint_Carbon_High"}, {"mesh": 7, "name": "AGERA_R:car_koenigsegg_agerar_2013_stolencop_Mesh_lod0M_Paint_Carbon_High_CarPaint_0"}, {"children": [19], "name": "AGERA_R:car_koenigsegg_agerar_2013_stolencop_Mesh_lod0M_Cop_Lights_High"}, {"mesh": 8, "name": "AGERA_R:car_koenigsegg_agerar_2013_stolencop_Mesh_lod0M_Cop_Lights_High_Light_Cop_0"}, {"children": [21], "name": "AGERA_R:car_koenigsegg_agerar_2013_stolencop_Mesh_lod0M_Cop_Props_High"}, {"mesh": 9, "name": "AGERA_R:car_koenigsegg_agerar_2013_stolencop_Mesh_lod0M_Cop_Props_High_cop_props_0"}, {"children": [23], "name": "AGERA_R:car_koenigsegg_agerar_2013_stolencop_Mesh_lod0M_Rim_Carbon_High"}, {"mesh": 10, "name": "AGERA_R:car_koenigsegg_agerar_2013_stolencop_Mesh_lod0M_Rim_Carbon_High_Carbon_0"}, {"children": [25], "name": "AGERA_R:car_koenigsegg_agerar_2013_stolencop_Mesh_lod0M_Internal_Interior_High"}, {"mesh": 11, "name": "AGERA_R:car_koenigsegg_agerar_2013_stolencop_Mesh_lod0M_Internal_Interior_High_internal_0"}, {"children": [27], "name": "AGERA_R:car_koenigsegg_agerar_2013_stolencop_Mesh_lod0M_GlassColor_Red_High"}, {"mesh": 12, "name": "AGERA_R:car_koenigsegg_agerar_2013_stolencop_Mesh_lod0M_GlassColor_Red_High_red_glass_0"}, {"children": [29, 30], "name": "AGERA_R:car_koenigsegg_agerar_2013_stolencop_Mesh_lod0M_Glass_Lights_High"}, {"mesh": 13, "name": "AGERA_R:car_koenigsegg_agerar_2013_stolencop_Mesh_lod0M_Glass_Lights_High_light_glass_0"}, {"mesh": 14, "name": "AGERA_R:car_koenigsegg_agerar_2013_stolencop_Mesh_lod0M_Glass_Lights_High_glass_Window_0"}, {"children": [32], "name": "AGERA_R:car_koenigsegg_agerar_2013_stolencop_Mesh_lod0M_Tire_High"}, {"mesh": 15, "name": "AGERA_R:car_koenigsegg_agerar_2013_stolencop_Mesh_lod0M_Tire_High_tire_0"}, {"children": [34], "name": "AGERA_R:car_koenigsegg_agerar_2013_stolencop_Mesh_lod0M_Rim_High"}, {"mesh": 16, "name": "AGERA_R:car_koenigsegg_agerar_2013_stolencop_Mesh_lod0M_Rim_High_Rim_0"}, {"children": [36], "name": "AGERA_R:car_koenigsegg_agerar_2013_stolencop_Mesh_lod0M_Lightcluster_High"}, {"mesh": 17, "name": "AGERA_R:car_koenigsegg_agerar_2013_stolencop_Mesh_lod0M_Lightcluster_High_Light_C_0"}, {"children": [38], "name": "AGERA_R:car_koenigsegg_agerar_2013_stolencop_Mesh_lod0M_LicensePlate_High"}, {"mesh": 18, "name": "AGERA_R:car_koenigsegg_agerar_2013_stolencop_Mesh_lod0M_LicensePlate_High_plate_0"}, {"children": [40], "name": "AGERA_R:car_koenigsegg_agerar_2013_stolencop_Mesh_lod0M_Chassis_High"}, {"mesh": 19, "name": "AGERA_R:car_koenigsegg_agerar_2013_stolencop_Mesh_lod0M_Chassis_High_chassis_0"}, {"children": [42], "name": "AGERA_R:car_koenigsegg_agerar_2013_stolencop_Mesh_lod0M_Caliper_High"}, {"mesh": 20, "name": "AGERA_R:car_koenigsegg_agerar_2013_stolencop_Mesh_lod0M_Caliper_High_calipers_0"}, {"children": [44], "name": "AGERA_R:car_koenigsegg_agerar_2013_stolencop_Mesh_lod0M_BrakeDisc_High"}, {"mesh": 21, "name": "AGERA_R:car_koenigsegg_agerar_2013_stolencop_Mesh_lod0M_BrakeDisc_High_breaks_0"}, {"children": [46], "name": "AGERA_R:car_koenigsegg_agerar_2013_stolencop_Mesh_lod0M_Badges_High"}, {"mesh": 22, "name": "AGERA_R:car_koenigsegg_agerar_2013_stolencop_Mesh_lod0M_Badges_High_badges_0"}, {"children": [48], "name": "AGERA_R:car_koenigsegg_agerar_2013_stolencop_Mesh_lod0M_Opaque_AluminiumRough_High"}, {"mesh": 23, "name": "AGERA_R:car_koenigsegg_agerar_2013_stolencop_Mesh_lod0M_Opaque_AluminiumRough_High_swatch_0"}], "samplers": [{"magFilter": 9729, "minFilter": 9987, "wrapS": 10497, "wrapT": 10497}], "scene": 0, "scenes": [{"name": "Sketchfab_Scene", "nodes": [0]}], "textures": [{"sampler": 0, "source": 0}, {"sampler": 0, "source": 1}, {"sampler": 0, "source": 2}, {"sampler": 0, "source": 3}, {"sampler": 0, "source": 4}, {"sampler": 0, "source": 5}, {"sampler": 0, "source": 6}, {"sampler": 0, "source": 7}, {"sampler": 0, "source": 8}, {"sampler": 0, "source": 9}, {"sampler": 0, "source": 10}, {"sampler": 0, "source": 11}, {"sampler": 0, "source": 12}, {"sampler": 0, "source": 13}, {"sampler": 0, "source": 14}, {"sampler": 0, "source": 15}, {"sampler": 0, "source": 16}, {"sampler": 0, "source": 17}, {"sampler": 0, "source": 18}, {"sampler": 0, "source": 19}, {"sampler": 0, "source": 20}, {"sampler": 0, "source": 21}, {"sampler": 0, "source": 22}, {"sampler": 0, "source": 23}, {"sampler": 0, "source": 24}, {"sampler": 0, "source": 25}, {"sampler": 0, "source": 26}, {"sampler": 0, "source": 27}, {"sampler": 0, "source": 28}, {"sampler": 0, "source": 29}, {"sampler": 0, "source": 30}, {"sampler": 0, "source": 31}, {"sampler": 0, "source": 32}, {"sampler": 0, "source": 33}]}