{"accessors": [{"bufferView": 2, "componentType": 5126, "count": 569, "max": [2.438812494277954, 1.267364263534546, 0.9910763502120972], "min": [-2.400754690170288, -1.267364263534546, -0.9014383554458618], "type": "VEC3"}, {"bufferView": 2, "byteOffset": 6828, "componentType": 5126, "count": 569, "max": [0.9983325004577637, 1.0, 0.9999939203262329], "min": [-0.977307140827179, -1.0, -1.0], "type": "VEC3"}, {"bufferView": 1, "componentType": 5126, "count": 569, "max": [0.9728612303733826, 0.8348044157028198], "min": [0.09687476605176926, 0.046786628663539886], "type": "VEC2"}, {"bufferView": 0, "componentType": 5125, "count": 2562, "type": "SCALAR"}, {"bufferView": 2, "byteOffset": 13656, "componentType": 5126, "count": 504, "max": [2.3775851726531982, 1.2396024465560913, 0.9314067363739014], "min": [-2.6186234951019287, -1.2396024465560913, -0.8844377398490906], "type": "VEC3"}, {"bufferView": 2, "byteOffset": 19704, "componentType": 5126, "count": 504, "max": [0.9808788299560547, 0.99948650598526, 0.9997542500495911], "min": [-0.9418219327926636, -0.99948650598526, -0.9996746778488159], "type": "VEC3"}, {"bufferView": 1, "byteOffset": 4552, "componentType": 5126, "count": 504, "max": [0.8800529837608337, 0.8346158266067505], "min": [0.04907117784023285, 0.07798632979393005], "type": "VEC2"}, {"bufferView": 0, "byteOffset": 10248, "componentType": 5125, "count": 1800, "type": "SCALAR"}, {"bufferView": 2, "byteOffset": 25752, "componentType": 5126, "count": 680, "max": [2.919706106185913, 1.2498886585235596, 0.934503436088562], "min": [-2.9468917846679688, -1.2498886585235596, -0.9825671911239624], "type": "VEC3"}, {"bufferView": 2, "byteOffset": 33912, "componentType": 5126, "count": 680, "max": [0.9968820214271545, 1.0, 0.9999993443489075], "min": [-0.9894566535949707, -1.0, -0.9998541474342346], "type": "VEC3"}, {"bufferView": 1, "byteOffset": 8584, "componentType": 5126, "count": 680, "max": [0.9504613876342773, 0.7789461016654968], "min": [0.05547752603888512, 0.06634880602359772], "type": "VEC2"}, {"bufferView": 0, "byteOffset": 17448, "componentType": 5125, "count": 3048, "type": "SCALAR"}, {"bufferView": 2, "byteOffset": 42072, "componentType": 5126, "count": 587, "max": [2.28938889503479, 1.2627431154251099, 0.9522116184234619], "min": [-2.3098032474517822, -1.2627431154251099, -0.9032362699508667], "type": "VEC3"}, {"bufferView": 2, "byteOffset": 49116, "componentType": 5126, "count": 587, "max": [0.9999645948410034, 1.0, 1.0], "min": [-0.9270087480545044, -1.0, -0.9999894499778748], "type": "VEC3"}, {"bufferView": 1, "byteOffset": 14024, "componentType": 5126, "count": 587, "max": [0.9541658163070679, 0.773584246635437], "min": [0.050437889993190765, 0.08150705695152283], "type": "VEC2"}, {"bufferView": 0, "byteOffset": 29640, "componentType": 5125, "count": 2442, "type": "SCALAR"}, {"bufferView": 2, "byteOffset": 56160, "componentType": 5126, "count": 425, "max": [2.4941515922546387, 1.1328914165496826, 0.9984415173530579], "min": [-2.5432722568511963, -1.1328914165496826, -0.9032363295555115], "type": "VEC3"}, {"bufferView": 2, "byteOffset": 61260, "componentType": 5126, "count": 425, "max": [0.9988054633140564, 0.9986105561256409, 0.9999118447303772], "min": [-0.9986258149147034, -0.9986105561256409, -0.9998564124107361], "type": "VEC3"}, {"bufferView": 1, "byteOffset": 18720, "componentType": 5126, "count": 425, "max": [0.9784759879112244, 0.7772245407104492], "min": [0.044372085481882095, 0.04355669021606445], "type": "VEC2"}, {"bufferView": 0, "byteOffset": 39408, "componentType": 5125, "count": 1836, "type": "SCALAR"}, {"bufferView": 2, "byteOffset": 66360, "componentType": 5126, "count": 565, "max": [2.9958388805389404, 1.3090494871139526, 0.9718138575553894], "min": [-3.060272216796875, -1.3090494871139526, -0.9726776480674744], "type": "VEC3"}, {"bufferView": 2, "byteOffset": 73140, "componentType": 5126, "count": 565, "max": [0.9970179796218872, 0.9990696310997009, 1.0], "min": [-0.9998407363891602, -0.9990696310997009, -0.9999868273735046], "type": "VEC3"}, {"bufferView": 1, "byteOffset": 22120, "componentType": 5126, "count": 565, "max": [0.8833285570144653, 0.8325788378715515], "min": [0.0829574465751648, 0.09003714472055435], "type": "VEC2"}, {"bufferView": 0, "byteOffset": 46752, "componentType": 5125, "count": 2466, "type": "SCALAR"}, {"bufferView": 2, "byteOffset": 79920, "componentType": 5126, "count": 525, "max": [3.002819299697876, 1.3324549198150635, 1.0120673179626465], "min": [-3.020665407180786, -1.3324549198150635, -0.9494701623916626], "type": "VEC3"}, {"bufferView": 2, "byteOffset": 86220, "componentType": 5126, "count": 525, "max": [0.9949175119400024, 0.9985801577568054, 0.9999182820320129], "min": [-0.9884164929389954, -0.9985801577568054, -0.9995412230491638], "type": "VEC3"}, {"bufferView": 1, "byteOffset": 26640, "componentType": 5126, "count": 525, "max": [0.9743005037307739, 0.819124698638916], "min": [0.03958514705300331, 0.05743199586868286], "type": "VEC2"}, {"bufferView": 0, "byteOffset": 56616, "componentType": 5125, "count": 2376, "type": "SCALAR"}, {"bufferView": 2, "byteOffset": 92520, "componentType": 5126, "count": 501, "max": [2.7037060260772705, 1.1639974117279053, 0.9158905148506165], "min": [-2.848031759262085, -1.1639974117279053, -1.0137475728988647], "type": "VEC3"}, {"bufferView": 2, "byteOffset": 98532, "componentType": 5126, "count": 501, "max": [0.9977951049804688, 1.0, 0.9999994039535522], "min": [-0.9998781681060791, -1.0, -0.9998508095741272], "type": "VEC3"}, {"bufferView": 1, "byteOffset": 30840, "componentType": 5126, "count": 501, "max": [0.8810019493103027, 0.8323031663894653], "min": [0.03146164491772652, 0.0660022497177124], "type": "VEC2"}, {"bufferView": 0, "byteOffset": 66120, "componentType": 5125, "count": 2262, "type": "SCALAR"}, {"bufferView": 2, "byteOffset": 104544, "componentType": 5126, "count": 380, "max": [2.760307788848877, 1.1692781448364258, 0.9734940528869629], "min": [-2.799067497253418, -1.1692781448364258, -0.9598203897476196], "type": "VEC3"}, {"bufferView": 2, "byteOffset": 109104, "componentType": 5126, "count": 380, "max": [0.9869062304496765, 0.9978243708610535, 0.9999834299087524], "min": [-0.9973474740982056, -0.9978243112564087, -0.995894193649292], "type": "VEC3"}, {"bufferView": 1, "byteOffset": 34848, "componentType": 5126, "count": 380, "max": [0.8864389061927795, 0.817872941493988], "min": [0.07081964612007141, 0.03787127137184143], "type": "VEC2"}, {"bufferView": 0, "byteOffset": 75168, "componentType": 5125, "count": 1680, "type": "SCALAR"}, {"bufferView": 2, "byteOffset": 113664, "componentType": 5126, "count": 435, "max": [3.0325682163238525, 1.2850948572158813, 1.0116443634033203], "min": [-3.0261483192443848, -1.2850948572158813, -0.973824143409729], "type": "VEC3"}, {"bufferView": 2, "byteOffset": 118884, "componentType": 5126, "count": 435, "max": [0.9909733533859253, 0.9984731674194336, 0.9999989867210388], "min": [-0.9927204847335815, -0.9984731674194336, -0.9999341368675232], "type": "VEC3"}, {"bufferView": 1, "byteOffset": 37888, "componentType": 5126, "count": 435, "max": [0.9651853442192078, 0.7949346899986267], "min": [0.08858314901590347, 0.032887764275074005], "type": "VEC2"}, {"bufferView": 0, "byteOffset": 81888, "componentType": 5125, "count": 1932, "type": "SCALAR"}], "asset": {"extras": {"author": "LEON elenaisakova248 (https://sketchfab.com/elenaisakova248)", "license": "CC-BY-4.0 (http://creativecommons.org/licenses/by/4.0/)", "source": "https://sketchfab.com/3d-models/low-poly-volkswagen-24db62db678548f9a07b90b57fb1abbd", "title": "Low Poly Volkswagen"}, "generator": "Sketchfab-17.14.0", "version": "2.0"}, "bufferViews": [{"buffer": 0, "byteLength": 89616, "name": "floatBufferViews", "target": 34963}, {"buffer": 0, "byteLength": 41368, "byteOffset": 89616, "byteStride": 8, "name": "floatBufferViews", "target": 34962}, {"buffer": 0, "byteLength": 124104, "byteOffset": 130984, "byteStride": 12, "name": "floatBufferViews", "target": 34962}], "buffers": [{"byteLength": 255088, "uri": "scene.bin"}], "images": [{"uri": "textures/Material.001_baseColor.jpg"}, {"uri": "textures/Material_baseColor.jpg"}, {"uri": "textures/Material.002_baseColor.jpg"}, {"uri": "textures/Material.003_baseColor.jpg"}, {"uri": "textures/Material.004_baseColor.jpg"}, {"uri": "textures/Material.005_baseColor.jpg"}, {"uri": "textures/Material.006_baseColor.jpg"}, {"uri": "textures/Material.007_baseColor.jpg"}, {"uri": "textures/Material.008_baseColor.jpg"}, {"uri": "textures/Material.009_baseColor.jpg"}], "materials": [{"doubleSided": true, "name": "Material.001", "pbrMetallicRoughness": {"baseColorTexture": {"index": 0}, "metallicFactor": 0.0, "roughnessFactor": 0.5}}, {"doubleSided": true, "name": "Material", "pbrMetallicRoughness": {"baseColorTexture": {"index": 1}, "metallicFactor": 0.0, "roughnessFactor": 0.5}}, {"doubleSided": true, "name": "Material.002", "pbrMetallicRoughness": {"baseColorTexture": {"index": 2}, "metallicFactor": 0.0, "roughnessFactor": 0.5}}, {"doubleSided": true, "name": "Material.003", "pbrMetallicRoughness": {"baseColorTexture": {"index": 3}, "metallicFactor": 0.0, "roughnessFactor": 0.5}}, {"doubleSided": true, "name": "Material.004", "pbrMetallicRoughness": {"baseColorTexture": {"index": 4}, "metallicFactor": 0.0, "roughnessFactor": 0.5}}, {"doubleSided": true, "name": "Material.005", "pbrMetallicRoughness": {"baseColorTexture": {"index": 5}, "metallicFactor": 0.0, "roughnessFactor": 0.5}}, {"doubleSided": true, "name": "Material.006", "pbrMetallicRoughness": {"baseColorTexture": {"index": 6}, "metallicFactor": 0.0, "roughnessFactor": 0.5}}, {"doubleSided": true, "name": "Material.007", "pbrMetallicRoughness": {"baseColorTexture": {"index": 7}, "metallicFactor": 0.0, "roughnessFactor": 0.5}}, {"doubleSided": true, "name": "Material.008", "pbrMetallicRoughness": {"baseColorTexture": {"index": 8}, "metallicFactor": 0.0, "roughnessFactor": 0.5}}, {"doubleSided": true, "name": "Material.009", "pbrMetallicRoughness": {"baseColorTexture": {"index": 9}, "metallicFactor": 0.0, "roughnessFactor": 0.5}}], "meshes": [{"name": "Object_0", "primitives": [{"attributes": {"NORMAL": 1, "POSITION": 0, "TEXCOORD_0": 2}, "indices": 3, "material": 0, "mode": 4}]}, {"name": "Object_1", "primitives": [{"attributes": {"NORMAL": 5, "POSITION": 4, "TEXCOORD_0": 6}, "indices": 7, "material": 1, "mode": 4}]}, {"name": "Object_2", "primitives": [{"attributes": {"NORMAL": 9, "POSITION": 8, "TEXCOORD_0": 10}, "indices": 11, "material": 2, "mode": 4}]}, {"name": "Object_3", "primitives": [{"attributes": {"NORMAL": 13, "POSITION": 12, "TEXCOORD_0": 14}, "indices": 15, "material": 3, "mode": 4}]}, {"name": "Object_4", "primitives": [{"attributes": {"NORMAL": 17, "POSITION": 16, "TEXCOORD_0": 18}, "indices": 19, "material": 4, "mode": 4}]}, {"name": "Object_5", "primitives": [{"attributes": {"NORMAL": 21, "POSITION": 20, "TEXCOORD_0": 22}, "indices": 23, "material": 5, "mode": 4}]}, {"name": "Object_6", "primitives": [{"attributes": {"NORMAL": 25, "POSITION": 24, "TEXCOORD_0": 26}, "indices": 27, "material": 6, "mode": 4}]}, {"name": "Object_7", "primitives": [{"attributes": {"NORMAL": 29, "POSITION": 28, "TEXCOORD_0": 30}, "indices": 31, "material": 7, "mode": 4}]}, {"name": "Object_8", "primitives": [{"attributes": {"NORMAL": 33, "POSITION": 32, "TEXCOORD_0": 34}, "indices": 35, "material": 8, "mode": 4}]}, {"name": "Object_9", "primitives": [{"attributes": {"NORMAL": 37, "POSITION": 36, "TEXCOORD_0": 38}, "indices": 39, "material": 9, "mode": 4}]}], "nodes": [{"children": [1], "matrix": [1.0, 0.0, 0.0, 0.0, 0.0, 2.220446049250313e-16, -1.0, 0.0, 0.0, 1.0, 2.220446049250313e-16, 0.0, 0.0, 0.0, 0.0, 1.0], "name": "Sketchfab_model"}, {"children": [2], "name": "root"}, {"children": [3, 5, 7, 9, 11, 13, 15, 17, 19, 21], "matrix": [1.0, 0.0, 0.0, 0.0, 0.0, 2.220446049250313e-16, 1.0, 0.0, 0.0, -1.0, 2.220446049250313e-16, 0.0, 0.0, 0.0, 0.0, 1.0], "name": "GLTF_SceneRootNode"}, {"children": [4], "matrix": [-2.9802322387695312e-08, 2.980232327587373e-08, -0.9999999999999991, 0.0, 0.8912364244461052, -2.6560915244999705e-08, -2.6560916036576665e-08, 0.0, -2.980232327587373e-08, -0.9999999999999991, -2.9802322387695312e-08, 0.0, 0.0, -0.006180707365274429, 0.0, 1.0], "name": "Plane_0"}, {"mesh": 0, "name": "Object_4"}, {"children": [6], "matrix": [-2.9802322387695312e-08, 2.980232327587373e-08, -0.9999999999999991, 0.0, 0.887332618236541, -2.6444572753803186e-08, -2.644457354191287e-08, 0.0, -2.980232327587373e-08, -0.9999999999999991, -2.9802322387695312e-08, 0.0, 2.537998914718628, -0.06403212249279022, -0.1246030256152153, 1.0], "name": "Plane.001_1"}, {"mesh": 1, "name": "Object_6"}, {"children": [8], "matrix": [-2.9802322387695312e-08, 2.980232327587373e-08, -0.9999999999999991, 0.0, 0.9242743849754326, -2.7545523195726673e-08, -2.7545524016647236e-08, 0.0, -2.980232327587373e-08, -0.9999999999999991, -2.9802322387695312e-08, 0.0, 5.054738998413086, -0.06007647141814232, 0.0, 1.0], "name": "Plane.002_2"}, {"mesh": 2, "name": "Object_8"}, {"children": [10], "matrix": [-3.354622890583414e-08, 3.354622990558967e-08, -1.125624656677245, 0.0, 0.9595223665237418, -2.8595994905344924e-08, -2.8595995757571983e-08, 0.0, -3.354622990558967e-08, -1.125624656677245, -3.354622890583414e-08, 0.0, 7.728980541229248, 0.07048971951007843, 0.0, 1.0], "name": "Plane.003_3"}, {"mesh": 3, "name": "Object_10"}, {"children": [12], "matrix": [-5.902109512234688e-08, 0.019484786865971826, -0.9998101535195489, 0.0, 0.9999999999999964, -5.902109512234688e-08, -6.018253423389908e-08, 0.0, -6.018253423389908e-08, -0.9998101535195489, -0.019484786865968218, 0.0, 10.44752311706543, -0.031002439558506012, 0.012816313654184341, 1.0], "name": "Plane.004_4"}, {"mesh": 4, "name": "Object_12"}, {"children": [14], "matrix": [-2.9802322387695312e-08, 2.980232327587373e-08, -0.9999999999999991, 0.0, 0.9238514304161064, -2.753291816759429e-08, -2.7532918988139193e-08, 0.0, -2.980232327587373e-08, -0.9999999999999991, -2.9802322387695312e-08, 0.0, 0.0, -0.02670067362487316, 6.172080993652344, 1.0], "name": "Plane.005_5"}, {"mesh": 5, "name": "Object_14"}, {"children": [16], "matrix": [-2.9802322387695312e-08, 2.980232327587373e-08, -0.9999999999999991, 0.0, 0.9100574254989616, -2.7121824786036086e-08, -2.7121825594329452e-08, 0.0, -2.980232327587373e-08, -0.9999999999999991, -2.9802322387695312e-08, 0.0, 2.5608861446380615, 0.017675096169114113, 6.1067280769348145, 1.0], "name": "Plane.006_6"}, {"mesh": 6, "name": "Object_16"}, {"children": [18], "matrix": [-2.9802322387695312e-08, 2.980232327587373e-08, -0.9999999999999991, 0.0, 0.9999999999999991, -2.9802322387695312e-08, -2.980232327587373e-08, 0.0, -2.980232327587373e-08, -0.9999999999999991, -2.9802322387695312e-08, 0.0, 5.066487789154053, -0.07635639607906342, 6.1067280769348145, 1.0], "name": "Plane.007_7"}, {"mesh": 7, "name": "Object_18"}, {"children": [20], "matrix": [-2.9802322387695312e-08, 2.980232327587373e-08, -0.9999999999999991, 0.0, 0.9999999999999991, -2.9802322387695312e-08, -2.980232327587373e-08, 0.0, -2.980232327587373e-08, -0.9999999999999991, -2.9802322387695312e-08, 0.0, 7.754456996917725, -0.024548741057515144, 6.336551666259766, 1.0], "name": "Plane.008_8"}, {"mesh": 8, "name": "Object_20"}, {"children": [22], "matrix": [-2.9802322387695312e-08, 2.980232327587373e-08, -0.9999999999999991, 0.0, 0.9448209404945365, -2.815785826726369e-08, -2.815785910643326e-08, 0.0, -2.980232327587373e-08, -0.9999999999999991, -2.9802322387695312e-08, 0.0, 10.552428245544434, 0.0, 6.410884380340576, 1.0], "name": "Plane.009_9"}, {"mesh": 9, "name": "Object_22"}], "samplers": [{"magFilter": 9729, "minFilter": 9987, "wrapS": 10497, "wrapT": 10497}], "scene": 0, "scenes": [{"name": "Sketchfab_Scene", "nodes": [0]}], "textures": [{"sampler": 0, "source": 0}, {"sampler": 0, "source": 1}, {"sampler": 0, "source": 2}, {"sampler": 0, "source": 3}, {"sampler": 0, "source": 4}, {"sampler": 0, "source": 5}, {"sampler": 0, "source": 6}, {"sampler": 0, "source": 7}, {"sampler": 0, "source": 8}, {"sampler": 0, "source": 9}]}