{"accessors": [{"bufferView": 2, "componentType": 5126, "count": 24, "max": [0.021577000617980957, 0.06756799668073654, 0.16449500620365143], "min": [-0.021577000617980957, -0.06756799668073654, -0.16449500620365143], "type": "VEC3"}, {"bufferView": 2, "byteOffset": 288, "componentType": 5126, "count": 24, "max": [0.8937345743179321, 0.7969577312469482, 0.6725307106971741], "min": [0.4739862084388733, -0.8708246946334839, -0.6182498335838318], "type": "VEC3"}, {"bufferView": 3, "componentType": 5126, "count": 24, "max": [0.6644233465194702, 0.43463513255119324, -0.6875607371330261, 1.0], "min": [-0.6712930798530579, -0.17684704065322876, -0.9919202327728271, 1.0], "type": "VEC4"}, {"bufferView": 1, "componentType": 5126, "count": 24, "max": [0.9976810216903687, 0.1260409951210022], "min": [0.7208170294761658, 0.0038449999410659075], "type": "VEC2"}, {"bufferView": 1, "byteOffset": 192, "componentType": 5126, "count": 24, "max": [0.9976810216903687, 0.1260409951210022], "min": [0.7208170294761658, 0.0038449999410659075], "type": "VEC2"}, {"bufferView": 0, "componentType": 5125, "count": 81, "type": "SCALAR"}, {"bufferView": 2, "byteOffset": 576, "componentType": 5126, "count": 1147, "max": [0.1469469964504242, 0.2765890061855316, 0.27552101016044617], "min": [-0.11664199829101562, -0.2765890061855316, -0.27365899085998535], "type": "VEC3"}, {"bufferView": 2, "byteOffset": 14340, "componentType": 5126, "count": 1147, "max": [1.0, 1.0, 1.0], "min": [-0.007940242066979408, -1.0, -1.0], "type": "VEC3"}, {"bufferView": 3, "byteOffset": 384, "componentType": 5126, "count": 1147, "max": [1.0, 1.0, 0.9999685287475586, 1.0], "min": [-1.0, -0.9615678787231445, -0.9999685287475586, -1.0], "type": "VEC4"}, {"bufferView": 1, "byteOffset": 384, "componentType": 5126, "count": 1147, "max": [0.9927369952201843, 0.5404220223426819], "min": [0.007691000122576952, 0.0032659999560564756], "type": "VEC2"}, {"bufferView": 1, "byteOffset": 9560, "componentType": 5126, "count": 1147, "max": [0.9927369952201843, 0.5404220223426819], "min": [0.007691000122576952, 0.0032659999560564756], "type": "VEC2"}, {"bufferView": 0, "byteOffset": 324, "componentType": 5125, "count": 3534, "type": "SCALAR"}, {"bufferView": 2, "byteOffset": 28104, "componentType": 5126, "count": 243, "max": [0.14810599386692047, 0.35447201132774353, 0.35190901160240173], "min": [-0.14810599386692047, -0.35447201132774353, -0.35190901160240173], "type": "VEC3"}, {"bufferView": 2, "byteOffset": 31020, "componentType": 5126, "count": 243, "max": [1.0, 0.9938837289810181, 0.9867943525314331], "min": [-1.0, -0.9938837289810181, -0.9867943525314331], "type": "VEC3"}, {"bufferView": 1, "byteOffset": 18736, "componentType": 5126, "count": 243, "max": [0.9934999942779541, 0.993956983089447], "min": [0.5120400190353394, 0.5124970078468323], "type": "VEC2"}, {"bufferView": 0, "byteOffset": 14460, "componentType": 5125, "count": 720, "type": "SCALAR"}, {"bufferView": 2, "byteOffset": 33936, "componentType": 5126, "count": 24, "max": [0.021577000617980957, 0.06756799668073654, 0.16449500620365143], "min": [-0.021577000617980957, -0.06756799668073654, -0.16449500620365143], "type": "VEC3"}, {"bufferView": 2, "byteOffset": 34224, "componentType": 5126, "count": 24, "max": [-0.4739862084388733, 0.7969577312469482, 0.6725307106971741], "min": [-0.8937345743179321, -0.8708246946334839, -0.6182498335838318], "type": "VEC3"}, {"bufferView": 3, "byteOffset": 18736, "componentType": 5126, "count": 24, "max": [0.6712930798530579, 0.4346351623535156, -0.6875607371330261, -1.0], "min": [-0.6644233465194702, -0.17684704065322876, -0.9919202327728271, -1.0], "type": "VEC4"}, {"bufferView": 1, "byteOffset": 20680, "componentType": 5126, "count": 24, "max": [0.9976810216903687, 0.1260409951210022], "min": [0.7208170294761658, 0.0038449999410659075], "type": "VEC2"}, {"bufferView": 1, "byteOffset": 20872, "componentType": 5126, "count": 24, "max": [0.9976810216903687, 0.1260409951210022], "min": [0.7208170294761658, 0.0038449999410659075], "type": "VEC2"}, {"bufferView": 0, "byteOffset": 17340, "componentType": 5125, "count": 81, "type": "SCALAR"}, {"bufferView": 2, "byteOffset": 34512, "componentType": 5126, "count": 1147, "max": [0.11664199829101562, 0.2765890061855316, 0.27552101016044617], "min": [-0.1469469964504242, -0.2765890061855316, -0.27365899085998535], "type": "VEC3"}, {"bufferView": 2, "byteOffset": 48276, "componentType": 5126, "count": 1147, "max": [0.007940242066979408, 1.0, 1.0], "min": [-1.0, -1.0, -1.0], "type": "VEC3"}, {"bufferView": 3, "byteOffset": 19120, "componentType": 5126, "count": 1147, "max": [1.0, 1.0, 0.9999685287475586, 1.0], "min": [-1.0, -0.9632378220558167, -0.9999685287475586, -1.0], "type": "VEC4"}, {"bufferView": 1, "byteOffset": 21064, "componentType": 5126, "count": 1147, "max": [0.9927369952201843, 0.5404220223426819], "min": [0.007691000122576952, 0.0032659999560564756], "type": "VEC2"}, {"bufferView": 1, "byteOffset": 30240, "componentType": 5126, "count": 1147, "max": [0.9927369952201843, 0.5404220223426819], "min": [0.007691000122576952, 0.0032659999560564756], "type": "VEC2"}, {"bufferView": 0, "byteOffset": 17664, "componentType": 5125, "count": 3534, "type": "SCALAR"}, {"bufferView": 2, "byteOffset": 62040, "componentType": 5126, "count": 243, "max": [0.14810599386692047, 0.35447201132774353, 0.35190901160240173], "min": [-0.14810599386692047, -0.35447201132774353, -0.35190901160240173], "type": "VEC3"}, {"bufferView": 2, "byteOffset": 64956, "componentType": 5126, "count": 243, "max": [1.0, 0.9938837289810181, 0.9867943525314331], "min": [-1.0, -0.9938837289810181, -0.9867943525314331], "type": "VEC3"}, {"bufferView": 1, "byteOffset": 39416, "componentType": 5126, "count": 243, "max": [0.9934999942779541, 0.993956983089447], "min": [0.5120400190353394, 0.5124970078468323], "type": "VEC2"}, {"bufferView": 0, "byteOffset": 31800, "componentType": 5125, "count": 720, "type": "SCALAR"}, {"bufferView": 2, "byteOffset": 67872, "componentType": 5126, "count": 24, "max": [0.021516000851988792, 0.06744600087404251, 0.16418999433517456], "min": [-0.021516000851988792, -0.06744600087404251, -0.16418999433517456], "type": "VEC3"}, {"bufferView": 2, "byteOffset": 68160, "componentType": 5126, "count": 24, "max": [0.8937345743179321, 0.7969577312469482, 0.6725307106971741], "min": [0.4739862084388733, -0.8708246946334839, -0.6182498335838318], "type": "VEC3"}, {"bufferView": 3, "byteOffset": 37472, "componentType": 5126, "count": 24, "max": [0.6644628047943115, 0.43456602096557617, -0.6875817775726318, 1.0], "min": [-0.6713576316833496, -0.17653535306453705, -0.9919191598892212, 1.0], "type": "VEC4"}, {"bufferView": 1, "byteOffset": 41360, "componentType": 5126, "count": 24, "max": [0.9976810216903687, 0.1260409951210022], "min": [0.7208170294761658, 0.0038449999410659075], "type": "VEC2"}, {"bufferView": 1, "byteOffset": 41552, "componentType": 5126, "count": 24, "max": [0.9976810216903687, 0.1260409951210022], "min": [0.7208170294761658, 0.0038449999410659075], "type": "VEC2"}, {"bufferView": 0, "byteOffset": 34680, "componentType": 5125, "count": 81, "type": "SCALAR"}, {"bufferView": 2, "byteOffset": 68448, "componentType": 5126, "count": 243, "max": [0.1478320062160492, 0.3538320064544678, 0.3512380123138428], "min": [-0.1478320062160492, -0.3538320064544678, -0.3512380123138428], "type": "VEC3"}, {"bufferView": 2, "byteOffset": 71364, "componentType": 5126, "count": 243, "max": [1.0, 0.9938837289810181, 0.9867943525314331], "min": [-1.0, -0.9938837289810181, -0.9867943525314331], "type": "VEC3"}, {"bufferView": 1, "byteOffset": 41744, "componentType": 5126, "count": 243, "max": [0.9934999942779541, 0.993956983089447], "min": [0.5120400190353394, 0.5124970078468323], "type": "VEC2"}, {"bufferView": 0, "byteOffset": 35004, "componentType": 5125, "count": 720, "type": "SCALAR"}, {"bufferView": 2, "byteOffset": 74280, "componentType": 5126, "count": 1147, "max": [0.14667199552059174, 0.2760699987411499, 0.27500200271606445], "min": [-0.11642800271511078, -0.2760699987411499, -0.2731409966945648], "type": "VEC3"}, {"bufferView": 2, "byteOffset": 88044, "componentType": 5126, "count": 1147, "max": [1.0, 1.0, 1.0], "min": [-0.007940242066979408, -1.0, -1.0], "type": "VEC3"}, {"bufferView": 3, "byteOffset": 37856, "componentType": 5126, "count": 1147, "max": [1.0, 1.0, 0.9999685287475586, 1.0], "min": [-1.0, -0.9631007313728333, -0.9999685287475586, -1.0], "type": "VEC4"}, {"bufferView": 1, "byteOffset": 43688, "componentType": 5126, "count": 1147, "max": [0.9927369952201843, 0.5404220223426819], "min": [0.007691000122576952, 0.0032659999560564756], "type": "VEC2"}, {"bufferView": 1, "byteOffset": 52864, "componentType": 5126, "count": 1147, "max": [0.9927369952201843, 0.5404220223426819], "min": [0.007691000122576952, 0.0032659999560564756], "type": "VEC2"}, {"bufferView": 0, "byteOffset": 37884, "componentType": 5125, "count": 3534, "type": "SCALAR"}, {"bufferView": 2, "byteOffset": 101808, "componentType": 5126, "count": 24, "max": [0.021516000851988792, 0.06744600087404251, 0.16418999433517456], "min": [-0.021516000851988792, -0.06744600087404251, -0.16418999433517456], "type": "VEC3"}, {"bufferView": 2, "byteOffset": 102096, "componentType": 5126, "count": 24, "max": [-0.4739862084388733, 0.7969577312469482, 0.6725307106971741], "min": [-0.8937345743179321, -0.8708246946334839, -0.6182498335838318], "type": "VEC3"}, {"bufferView": 3, "byteOffset": 56208, "componentType": 5126, "count": 24, "max": [0.6713576316833496, 0.4342978298664093, -0.6876635551452637, -1.0], "min": [-0.6644628047943115, -0.17653535306453705, -0.9919191598892212, -1.0], "type": "VEC4"}, {"bufferView": 1, "byteOffset": 62040, "componentType": 5126, "count": 24, "max": [0.9976810216903687, 0.1260409951210022], "min": [0.7208170294761658, 0.0038449999410659075], "type": "VEC2"}, {"bufferView": 1, "byteOffset": 62232, "componentType": 5126, "count": 24, "max": [0.9976810216903687, 0.1260409951210022], "min": [0.7208170294761658, 0.0038449999410659075], "type": "VEC2"}, {"bufferView": 0, "byteOffset": 52020, "componentType": 5125, "count": 81, "type": "SCALAR"}, {"bufferView": 2, "byteOffset": 102384, "componentType": 5126, "count": 1147, "max": [0.11642800271511078, 0.2760699987411499, 0.27500200271606445], "min": [-0.14667199552059174, -0.2760699987411499, -0.2731409966945648], "type": "VEC3"}, {"bufferView": 2, "byteOffset": 116148, "componentType": 5126, "count": 1147, "max": [0.007940242066979408, 1.0, 1.0], "min": [-1.0, -1.0, -1.0], "type": "VEC3"}, {"bufferView": 3, "byteOffset": 56592, "componentType": 5126, "count": 1147, "max": [1.0, 1.0, 0.9999685287475586, 1.0], "min": [-1.0, -0.9629917144775391, -0.9999685287475586, -1.0], "type": "VEC4"}, {"bufferView": 1, "byteOffset": 62424, "componentType": 5126, "count": 1147, "max": [0.9927369952201843, 0.5404220223426819], "min": [0.007691000122576952, 0.0032659999560564756], "type": "VEC2"}, {"bufferView": 1, "byteOffset": 71600, "componentType": 5126, "count": 1147, "max": [0.9927369952201843, 0.5404220223426819], "min": [0.007691000122576952, 0.0032659999560564756], "type": "VEC2"}, {"bufferView": 0, "byteOffset": 52344, "componentType": 5125, "count": 3534, "type": "SCALAR"}, {"bufferView": 2, "byteOffset": 129912, "componentType": 5126, "count": 243, "max": [0.1478320062160492, 0.3538320064544678, 0.3512380123138428], "min": [-0.1478320062160492, -0.3538320064544678, -0.3512380123138428], "type": "VEC3"}, {"bufferView": 2, "byteOffset": 132828, "componentType": 5126, "count": 243, "max": [1.0, 0.9938837289810181, 0.9867943525314331], "min": [-1.0, -0.9938837289810181, -0.9867943525314331], "type": "VEC3"}, {"bufferView": 1, "byteOffset": 80776, "componentType": 5126, "count": 243, "max": [0.9934999942779541, 0.993956983089447], "min": [0.5120400190353394, 0.5124970078468323], "type": "VEC2"}, {"bufferView": 0, "byteOffset": 66480, "componentType": 5125, "count": 720, "type": "SCALAR"}, {"bufferView": 2, "byteOffset": 135744, "componentType": 5126, "count": 3734, "max": [0.2030400037765503, 0.499985009431839, 0.13248099386692047], "min": [-0.2030400037765503, -0.499985009431839, -0.13242003321647644], "type": "VEC3"}, {"bufferView": 2, "byteOffset": 180552, "componentType": 5126, "count": 3734, "max": [0.9999685287475586, 0.9979904294013977, 1.0], "min": [-0.9999685287475586, -1.0, -0.9999685287475586], "type": "VEC3"}, {"bufferView": 1, "byteOffset": 82720, "componentType": 5126, "count": 3734, "max": [0.9759510159492493, 0.8634300231933594], "min": [0.0065310001373291016, 0.003478999948129058], "type": "VEC2"}, {"bufferView": 0, "byteOffset": 69360, "componentType": 5125, "count": 17115, "type": "SCALAR"}, {"bufferView": 2, "byteOffset": 225360, "componentType": 5126, "count": 1291, "max": [0.20291799306869507, 0.488754004240036, 0.11587899923324585], "min": [-0.20291799306869507, -0.499985009431839, -0.13248099386692047], "type": "VEC3"}, {"bufferView": 2, "byteOffset": 240852, "componentType": 5126, "count": 1291, "max": [1.0, 1.0, 0.9998741149902344], "min": [-1.0, -1.0, -1.0], "type": "VEC3"}, {"bufferView": 1, "byteOffset": 112592, "componentType": 5126, "count": 1291, "max": [0.7789850234985352, 0.9945369958877563], "min": [0.004608000162988901, 0.1291240006685257], "type": "VEC2"}, {"bufferView": 0, "byteOffset": 137820, "componentType": 5125, "count": 3570, "type": "SCALAR"}, {"bufferView": 2, "byteOffset": 256344, "componentType": 5126, "count": 420, "max": [0.17102600634098053, 0.2138739973306656, 0.10989700257778168], "min": [-0.17102600634098053, -0.1665090024471283, 0.046448998153209686], "type": "VEC3"}, {"bufferView": 2, "byteOffset": 261384, "componentType": 5126, "count": 420, "max": [0.9845922589302063, 0.9954645037651062, 0.9918761849403381], "min": [-0.9903807044029236, -0.9790220260620117, -0.9999685287475586], "type": "VEC3"}, {"bufferView": 1, "byteOffset": 122920, "componentType": 5126, "count": 420, "max": [0.5828120112419128, 0.5214700102806091], "min": [0.5371260046958923, 0.2834250032901764], "type": "VEC2"}, {"bufferView": 0, "byteOffset": 152100, "componentType": 5125, "count": 1500, "type": "SCALAR"}, {"bufferView": 2, "byteOffset": 266424, "componentType": 5126, "count": 81, "max": [0.1900389939546585, 0.4287239909172058, -0.09662199765443802], "min": [-0.1900389939546585, -0.49851998686790466, -0.13248099386692047], "type": "VEC3"}, {"bufferView": 2, "byteOffset": 267396, "componentType": 5126, "count": 81, "max": [0.42886874079704285, 0.3735104501247406, 0.996865451335907], "min": [-0.42886874079704285, -0.9909095168113708, -1.0], "type": "VEC3"}, {"bufferView": 3, "byteOffset": 74944, "componentType": 5126, "count": 81, "max": [0.7495145797729492, 1.0, 0.3727470934391022, 1.0], "min": [-0.38041338324546814, -0.9968426823616028, -0.9895151853561401, 1.0], "type": "VEC4"}, {"bufferView": 1, "byteOffset": 126280, "componentType": 5126, "count": 81, "max": [0.9858700037002563, 0.988677978515625], "min": [0.0167239997535944, 0.5898920297622681], "type": "VEC2"}, {"bufferView": 1, "byteOffset": 126928, "componentType": 5126, "count": 81, "max": [0.9858700037002563, 0.988677978515625], "min": [0.0167239997535944, 0.5898920297622681], "type": "VEC2"}, {"bufferView": 0, "byteOffset": 158100, "componentType": 5125, "count": 222, "type": "SCALAR"}, {"bufferView": 2, "byteOffset": 268368, "componentType": 5126, "count": 677, "max": [0.17108699679374695, 0.3743399977684021, 0.11459700018167496], "min": [-0.17108699679374695, -0.26593801379203796, -0.11673299968242645], "type": "VEC3"}, {"bufferView": 2, "byteOffset": 276492, "componentType": 5126, "count": 677, "max": [1.0, 0.9994965195655823, 1.0], "min": [-1.0, -0.9960864186286926, -1.0], "type": "VEC3"}, {"bufferView": 3, "byteOffset": 76240, "componentType": 5126, "count": 677, "max": [1.0, 1.0, 0.9945632219314575, 1.0], "min": [-1.0, -0.9999980926513672, -0.9990678429603577, -1.0], "type": "VEC4"}, {"bufferView": 1, "byteOffset": 127576, "componentType": 5126, "count": 677, "max": [0.9038360118865967, 0.7442240118980408], "min": [0.011169999837875366, 0.22034400701522827], "type": "VEC2"}, {"bufferView": 1, "byteOffset": 132992, "componentType": 5126, "count": 677, "max": [0.9038360118865967, 0.7442240118980408], "min": [0.011169999837875366, 0.22034400701522827], "type": "VEC2"}, {"bufferView": 0, "byteOffset": 158988, "componentType": 5125, "count": 2022, "type": "SCALAR"}, {"bufferView": 2, "byteOffset": 284616, "componentType": 5126, "count": 1734, "max": [0.499985009431839, 0.2560200095176697, 0.19992700219154358], "min": [-0.499985009431839, -0.2560200095176697, -0.20230700075626373], "type": "VEC3"}, {"bufferView": 2, "byteOffset": 305424, "componentType": 5126, "count": 1734, "max": [1.0, 0.9998741149902344, 0.9999370574951172], "min": [-1.0, -0.8500903844833374, -1.0], "type": "VEC3"}, {"bufferView": 1, "byteOffset": 138408, "componentType": 5126, "count": 1734, "max": [0.9023709893226624, 0.5479599833488464], "min": [0.7637559771537781, 0.00228899996727705], "type": "VEC2"}, {"bufferView": 0, "byteOffset": 167076, "componentType": 5125, "count": 8874, "type": "SCALAR"}, {"bufferView": 2, "byteOffset": 326232, "componentType": 5126, "count": 938, "max": [0.499985009431839, 0.227851003408432, 0.20230700075626373], "min": [-0.499985009431839, -0.2560200095176697, -0.20230700075626373], "type": "VEC3"}, {"bufferView": 2, "byteOffset": 337488, "componentType": 5126, "count": 938, "max": [1.0, 1.0, 1.0], "min": [-1.0, -1.0, -1.0], "type": "VEC3"}, {"bufferView": 1, "byteOffset": 152280, "componentType": 5126, "count": 938, "max": [0.3455919921398163, 0.8650169968605042], "min": [0.0042119999416172504, 0.006316999904811382], "type": "VEC2"}, {"bufferView": 0, "byteOffset": 202572, "componentType": 5125, "count": 2580, "type": "SCALAR"}, {"bufferView": 2, "byteOffset": 348744, "componentType": 5126, "count": 1119, "max": [0.47193801403045654, 0.2473219931125641, 0.19812600314617157], "min": [-0.47193801403045654, -0.10574699938297272, -0.1965699940919876], "type": "VEC3"}, {"bufferView": 2, "byteOffset": 362172, "componentType": 5126, "count": 1119, "max": [0.9984603524208069, 0.9874407052993774, 1.0], "min": [-0.9984603524208069, -0.888050377368927, -0.9998425841331482], "type": "VEC3"}, {"bufferView": 3, "byteOffset": 87072, "componentType": 5126, "count": 1119, "max": [0.9989228248596191, 0.9999897480010986, 0.9990915060043335, 1.0], "min": [-1.0, -0.9999219179153442, -0.9371534585952759, -1.0], "type": "VEC4"}, {"bufferView": 1, "byteOffset": 159784, "componentType": 5126, "count": 1119, "max": [0.9944459795951843, 0.9897459745407104], "min": [0.0041809999383986, 0.3239850103855133], "type": "VEC2"}, {"bufferView": 1, "byteOffset": 168736, "componentType": 5126, "count": 1119, "max": [0.9944459795951843, 0.9897459745407104], "min": [0.0041809999383986, 0.3239850103855133], "type": "VEC2"}, {"bufferView": 0, "byteOffset": 212892, "componentType": 5125, "count": 3507, "type": "SCALAR"}, {"bufferView": 2, "byteOffset": 375600, "componentType": 5126, "count": 864, "max": [0.3964349925518036, 0.17590899765491486, 0.20038500428199768], "min": [-0.3964349925518036, -0.016572000458836555, -0.1443219929933548], "type": "VEC3"}, {"bufferView": 2, "byteOffset": 385968, "componentType": 5126, "count": 864, "max": [0.9992135763168335, 1.0, 1.0], "min": [-0.9992135763168335, -0.007944750599563122, -1.0], "type": "VEC3"}, {"bufferView": 3, "byteOffset": 104976, "componentType": 5126, "count": 864, "max": [0.9999994039535522, 1.0, 0.9998022317886353, 1.0], "min": [-1.0, -0.9486785531044006, -0.9992125034332275, -1.0], "type": "VEC4"}, {"bufferView": 1, "byteOffset": 177688, "componentType": 5126, "count": 864, "max": [0.8286389708518982, 0.8818320035934448], "min": [0.0047610001638531685, 0.3486739993095398], "type": "VEC2"}, {"bufferView": 1, "byteOffset": 184600, "componentType": 5126, "count": 864, "max": [0.8286389708518982, 0.8818320035934448], "min": [0.0047610001638531685, 0.3486739993095398], "type": "VEC2"}, {"bufferView": 0, "byteOffset": 226920, "componentType": 5125, "count": 2400, "type": "SCALAR"}, {"bufferView": 2, "byteOffset": 396336, "componentType": 5126, "count": 42, "max": [0.07919599860906601, 0.21970300376415253, 0.0921659991145134], "min": [-0.0791039988398552, 0.21140199899673462, 0.012391000054776669], "type": "VEC3"}, {"bufferView": 2, "byteOffset": 396840, "componentType": 5126, "count": 42, "max": [0.9831058979034424, 0.9962109327316284, 0.9596227407455444], "min": [-0.9831058979034424, -0.2537131607532501, -0.9596227407455444], "type": "VEC3"}, {"bufferView": 1, "byteOffset": 191512, "componentType": 5126, "count": 42, "max": [0.9941710233688354, 0.9951170086860657], "min": [0.007538000121712685, 0.5319380164146423], "type": "VEC2"}, {"bufferView": 0, "byteOffset": 236520, "componentType": 5125, "count": 102, "type": "SCALAR"}, {"bufferView": 2, "byteOffset": 397344, "componentType": 5126, "count": 827, "max": [0.499985009431839, 0.1765500009059906, 0.1926019936800003], "min": [-0.499985009431839, -0.1404460072517395, -0.19385400414466858], "type": "VEC3"}, {"bufferView": 2, "byteOffset": 407268, "componentType": 5126, "count": 827, "max": [1.0, 1.0, 1.0], "min": [-1.0, -1.0, -1.0], "type": "VEC3"}, {"bufferView": 1, "byteOffset": 191848, "componentType": 5126, "count": 827, "max": [0.696677029132843, 0.9965819716453552], "min": [0.002624999964609742, 0.15881800651550293], "type": "VEC2"}, {"bufferView": 0, "byteOffset": 236928, "componentType": 5125, "count": 2046, "type": "SCALAR"}, {"bufferView": 2, "byteOffset": 417192, "componentType": 5126, "count": 440, "max": [0.3134559988975525, 0.05426200106739998, 0.13147400319576263], "min": [-0.3134559988975525, -0.12851299345493317, 0.021973000839352608], "type": "VEC3"}, {"bufferView": 2, "byteOffset": 422472, "componentType": 5126, "count": 440, "max": [1.0, 0.023766104131937027, 0.9886444211006165], "min": [-1.0, -0.9977401494979858, -0.9996852278709412], "type": "VEC3"}, {"bufferView": 1, "byteOffset": 198464, "componentType": 5126, "count": 440, "max": [0.9185460209846497, 0.8582109808921814], "min": [0.013671999797224998, 0.64165198802948], "type": "VEC2"}, {"bufferView": 0, "byteOffset": 245112, "componentType": 5125, "count": 996, "type": "SCALAR"}, {"bufferView": 2, "byteOffset": 427752, "componentType": 5126, "count": 1766, "max": [0.499985009431839, 0.1765500009059906, 0.19406700134277344], "min": [-0.499985009431839, -0.1765500009059906, -0.16974399983882904], "type": "VEC3"}, {"bufferView": 2, "byteOffset": 448944, "componentType": 5126, "count": 1766, "max": [0.9999685287475586, 0.8638560771942139, 0.9999685287475586], "min": [-0.9999685287475586, -1.0, -1.0], "type": "VEC3"}, {"bufferView": 1, "byteOffset": 201984, "componentType": 5126, "count": 1766, "max": [0.9985349774360657, 0.9941710233688354], "min": [0.7870110273361206, 0.5038610100746155], "type": "VEC2"}, {"bufferView": 0, "byteOffset": 249096, "componentType": 5125, "count": 7146, "type": "SCALAR"}, {"bufferView": 2, "byteOffset": 470136, "componentType": 5126, "count": 186, "max": [0.4956820011138916, 0.1425209939479828, 0.17166699469089508], "min": [-0.4956820011138916, -0.1765500009059906, -0.19406700134277344], "type": "VEC3"}, {"bufferView": 2, "byteOffset": 472368, "componentType": 5126, "count": 186, "max": [0.9790220260620117, 0.5760722756385803, 0.9560214281082153], "min": [-0.9799082279205322, -0.9974274635314941, -1.0], "type": "VEC3"}, {"bufferView": 3, "byteOffset": 118800, "componentType": 5126, "count": 186, "max": [1.0, 0.3628252446651459, 0.7846899032592773, 1.0], "min": [-0.9992234706878662, -0.9995843768119812, -0.784686803817749, -1.0], "type": "VEC4"}, {"bufferView": 1, "byteOffset": 216112, "componentType": 5126, "count": 186, "max": [0.7841730117797852, 0.9942010045051575], "min": [0.0013729999773204327, 0.5146639943122864], "type": "VEC2"}, {"bufferView": 1, "byteOffset": 217600, "componentType": 5126, "count": 186, "max": [0.7841730117797852, 0.9942010045051575], "min": [0.0013729999773204327, 0.5146639943122864], "type": "VEC2"}, {"bufferView": 0, "byteOffset": 277680, "componentType": 5125, "count": 666, "type": "SCALAR"}, {"bufferView": 2, "byteOffset": 474600, "componentType": 5126, "count": 236, "max": [0.4005550146102905, 0.09717100113630295, 0.127018004655838], "min": [-0.4005550146102905, -0.1352580040693283, 0.054322998970746994], "type": "VEC3"}, {"bufferView": 2, "byteOffset": 477432, "componentType": 5126, "count": 236, "max": [0.9437907934188843, 0.0, 1.0], "min": [-0.9437907934188843, -1.0, -1.0], "type": "VEC3"}, {"bufferView": 1, "byteOffset": 219088, "componentType": 5126, "count": 236, "max": [0.0956140011548996, 0.9437540173530579], "min": [0.0039369999431073666, 0.2226019948720932], "type": "VEC2"}, {"bufferView": 0, "byteOffset": 280344, "componentType": 5125, "count": 630, "type": "SCALAR"}, {"bufferView": 2, "byteOffset": 480264, "componentType": 5126, "count": 26, "max": [0.3795279860496521, -0.005065999925136566, -0.031190000474452972], "min": [-0.3795279860496521, -0.009979999624192715, -0.08236899971961975], "type": "VEC3"}, {"bufferView": 2, "byteOffset": 480576, "componentType": 5126, "count": 26, "max": [0.19763579964637756, -0.9801837205886841, 0.1900215446949005], "min": [-0.19763579964637756, -1.0, -0.1823728233575821], "type": "VEC3"}, {"bufferView": 3, "byteOffset": 121776, "componentType": 5126, "count": 26, "max": [1.0, 0.19749660789966583, 0.03751051798462868, 1.0], "min": [0.9795690774917603, -0.19749920070171356, -0.03796089440584183, 1.0], "type": "VEC4"}, {"bufferView": 1, "byteOffset": 220976, "componentType": 5126, "count": 26, "max": [0.9427779912948608, 0.9976810216903687], "min": [0.7904289960861206, 0.8357189893722534], "type": "VEC2"}, {"bufferView": 1, "byteOffset": 221184, "componentType": 5126, "count": 26, "max": [0.9427779912948608, 0.9976810216903687], "min": [0.7904289960861206, 0.8357189893722534], "type": "VEC2"}, {"bufferView": 0, "byteOffset": 282864, "componentType": 5125, "count": 72, "type": "SCALAR"}, {"bufferView": 2, "byteOffset": 480888, "componentType": 5126, "count": 654, "max": [0.11642800271511078, 0.499985009431839, 0.28031298518180847], "min": [-0.04443499818444252, -0.499985009431839, -0.28031298518180847], "type": "VEC3"}, {"bufferView": 2, "byteOffset": 488736, "componentType": 5126, "count": 654, "max": [1.0, 0.9999685287475586, 0.9999685287475586], "min": [-0.9985858201980591, -0.9999685287475586, -0.996865451335907], "type": "VEC3"}, {"bufferView": 1, "byteOffset": 221392, "componentType": 5126, "count": 654, "max": [0.7631459832191467, 0.6246219873428345], "min": [0.04641899839043617, 0.007903999648988247], "type": "VEC2"}, {"bufferView": 0, "byteOffset": 283152, "componentType": 5125, "count": 2643, "type": "SCALAR"}, {"bufferView": 2, "byteOffset": 496584, "componentType": 5126, "count": 125, "max": [0.11227799952030182, 0.499985009431839, 0.27814599871635437], "min": [-0.11642800271511078, -0.499985009431839, -0.28031298518180847], "type": "VEC3"}, {"bufferView": 2, "byteOffset": 498084, "componentType": 5126, "count": 125, "max": [0.34086233377456665, 0.9998741149902344, 0.9979904294013977], "min": [-1.0, -1.0, -0.9998741149902344], "type": "VEC3"}, {"bufferView": 1, "byteOffset": 226624, "componentType": 5126, "count": 125, "max": [0.7166360020637512, 0.5422829985618591], "min": [0.26712900400161743, 0.10324399918317795], "type": "VEC2"}, {"bufferView": 0, "byteOffset": 293724, "componentType": 5125, "count": 381, "type": "SCALAR"}, {"bufferView": 2, "byteOffset": 499584, "componentType": 5126, "count": 59, "max": [-0.026612000539898872, 0.46238601207733154, 0.22840100526809692], "min": [-0.0595720000565052, -0.43723899126052856, 0.2065189927816391], "type": "VEC3"}, {"bufferView": 2, "byteOffset": 500292, "componentType": 5126, "count": 59, "max": [0.9998425841331482, 0.5720053315162659, 0.9999685287475586], "min": [-0.06336434185504913, -0.4655492901802063, -0.722449779510498], "type": "VEC3"}, {"bufferView": 1, "byteOffset": 227624, "componentType": 5126, "count": 59, "max": [0.20511500537395477, 0.5115209817886353], "min": [0.19708900153636932, 0.2938019931316376], "type": "VEC2"}, {"bufferView": 0, "byteOffset": 295248, "componentType": 5125, "count": 192, "type": "SCALAR"}, {"bufferView": 2, "byteOffset": 501000, "componentType": 5126, "count": 706, "max": [0.04501499980688095, 0.499985009431839, 0.2803129553794861], "min": [-0.11642800271511078, -0.499985009431839, -0.28031301498413086], "type": "VEC3"}, {"bufferView": 2, "byteOffset": 509472, "componentType": 5126, "count": 706, "max": [0.9985858201980591, 1.0, 0.9968342185020447], "min": [-1.0, -1.0, -0.996865451335907], "type": "VEC3"}, {"bufferView": 1, "byteOffset": 228096, "componentType": 5126, "count": 706, "max": [0.7631459832191467, 0.6246219873428345], "min": [0.21118800342082977, 0.007903999648988247], "type": "VEC2"}, {"bufferView": 0, "byteOffset": 296016, "componentType": 5125, "count": 3243, "type": "SCALAR"}, {"bufferView": 2, "byteOffset": 517944, "componentType": 5126, "count": 145, "max": [0.11642800271511078, 0.499985009431839, 0.27814599871635437], "min": [-0.11227799952030182, -0.499985009431839, -0.28031298518180847], "type": "VEC3"}, {"bufferView": 2, "byteOffset": 519684, "componentType": 5126, "count": 145, "max": [1.0, 0.9998741149902344, 0.9974586963653564], "min": [-0.6183271408081055, -1.0, -0.9998741149902344], "type": "VEC3"}, {"bufferView": 1, "byteOffset": 233744, "componentType": 5126, "count": 145, "max": [0.7166360020637512, 0.5422829985618591], "min": [0.26670101284980774, 0.10324399918317795], "type": "VEC2"}, {"bufferView": 0, "byteOffset": 308988, "componentType": 5125, "count": 651, "type": "SCALAR"}, {"bufferView": 2, "byteOffset": 521424, "componentType": 5126, "count": 59, "max": [0.0595720000565052, 0.46287399530410767, 0.22840100526809692], "min": [0.026612000539898872, -0.43708598613739014, 0.2052370011806488], "type": "VEC3"}, {"bufferView": 2, "byteOffset": 522132, "componentType": 5126, "count": 59, "max": [0.0712469071149826, 0.648976743221283, 0.9999685287475586], "min": [-0.9996852278709412, -0.6561315655708313, -0.6481854915618896], "type": "VEC3"}, {"bufferView": 1, "byteOffset": 234904, "componentType": 5126, "count": 59, "max": [0.2052370011806488, 0.51146000623703], "min": [0.1973630040884018, 0.29364898800849915], "type": "VEC2"}, {"bufferView": 0, "byteOffset": 311592, "componentType": 5125, "count": 192, "type": "SCALAR"}, {"bufferView": 2, "byteOffset": 522840, "componentType": 5126, "count": 312, "max": [0.1778309941291809, 0.3947870135307312, 0.07592999935150146], "min": [-0.1778309941291809, -0.2707599997520447, -0.014709999784827232], "type": "VEC3"}, {"bufferView": 2, "byteOffset": 526584, "componentType": 5126, "count": 312, "max": [0.9253711104393005, 0.609787106513977, 0.969200849533081], "min": [-0.9107214212417603, -0.6899766325950623, 0.3480030596256256], "type": "VEC3"}, {"bufferView": 1, "byteOffset": 235376, "componentType": 5126, "count": 312, "max": [0.4869529902935028, 0.83120197057724], "min": [0.4725179970264435, 0.8136540055274963], "type": "VEC2"}, {"bufferView": 0, "byteOffset": 312360, "componentType": 5125, "count": 912, "type": "SCALAR"}, {"bufferView": 2, "byteOffset": 530328, "componentType": 5126, "count": 401, "max": [0.17422999441623688, 0.499985009431839, 0.07141300290822983], "min": [-0.17422999441623688, -0.499985009431839, -0.07592999935150146], "type": "VEC3"}, {"bufferView": 2, "byteOffset": 535140, "componentType": 5126, "count": 401, "max": [0.9317079782485962, 0.9762213230133057, 0.9672794938087463], "min": [-0.9317079782485962, -0.9482092261314392, -0.3722546696662903], "type": "VEC3"}, {"bufferView": 0, "byteOffset": 316008, "componentType": 5125, "count": 1446, "type": "SCALAR"}, {"bufferView": 2, "byteOffset": 539952, "componentType": 5126, "count": 168, "max": [0.499985009431839, 0.11929699778556824, 0.061556000262498856], "min": [-0.499985009431839, -0.11929699778556824, -0.061556000262498856], "type": "VEC3"}, {"bufferView": 2, "byteOffset": 541968, "componentType": 5126, "count": 168, "max": [0.9984603524208069, 0.9901320934295654, 0.5068361759185791], "min": [-0.9984603524208069, -0.3799963593482971, -0.3886076807975769], "type": "VEC3"}, {"bufferView": 1, "byteOffset": 237872, "componentType": 5126, "count": 168, "max": [0.9892879724502563, 0.7159339785575867], "min": [0.01046799961477518, 0.27756598591804504], "type": "VEC2"}, {"bufferView": 0, "byteOffset": 321792, "componentType": 5125, "count": 612, "type": "SCALAR"}, {"bufferView": 2, "byteOffset": 543984, "componentType": 5126, "count": 24, "max": [0.499985009431839, 0.01123099960386753, 0.010285000316798687], "min": [-0.499985009431839, -0.01123099960386753, -0.010285000316798687], "type": "VEC3"}, {"bufferView": 2, "byteOffset": 544272, "componentType": 5126, "count": 24, "max": [0.3086118698120117, 0.9638321995735168, -0.055301733314991], "min": [-0.3086118698120117, 0.949573814868927, -0.05539168789982796], "type": "VEC3"}, {"bufferView": 1, "byteOffset": 239216, "componentType": 5126, "count": 24, "max": [0.6318860054016113, 0.1813099980354309], "min": [0.48451200127601624, 0.14194199442863464], "type": "VEC2"}, {"bufferView": 0, "byteOffset": 324240, "componentType": 5125, "count": 60, "type": "SCALAR"}], "asset": {"extras": {"author": "Ddiaz Design (https://sketchfab.com/ddiaz-design)", "license": "CC-BY-4.0 (http://creativecommons.org/licenses/by/4.0/)", "source": "https://sketchfab.com/3d-models/2008-chevrolet-camaro-gs-racecar-concept-66b93b7970a44d1ebe5ec9f6d9a29149", "title": "2008 Chevrolet Camaro GS Racecar Concept"}, "generator": "Sketchfab-16.59.0", "version": "2.0"}, "bufferViews": [{"buffer": 0, "byteLength": 324480, "name": "floatBufferViews", "target": 34963}, {"buffer": 0, "byteLength": 239408, "byteOffset": 324480, "byteStride": 8, "name": "floatBufferViews", "target": 34962}, {"buffer": 0, "byteLength": 544560, "byteOffset": 563888, "byteStride": 12, "name": "floatBufferViews", "target": 34962}, {"buffer": 0, "byteLength": 122192, "byteOffset": 1108448, "byteStride": 16, "name": "floatBufferViews", "target": 34962}], "buffers": [{"byteLength": 1230640, "uri": "scene.bin"}], "extensionsUsed": ["KHR_materials_specular", "KHR_materials_clearcoat", "KHR_materials_transmission"], "images": [{"uri": "textures/diff_baseColor.jpg"}, {"uri": "textures/diff_normal.jpg"}, {"uri": "textures/tire_baseColor.jpg"}, {"uri": "textures/color_baseColor.jpg"}, {"uri": "textures/color_clearcoat.jpg"}, {"uri": "textures/carpaint_metallicRoughness.jpg"}, {"uri": "textures/plastic_metallicRoughness.jpg"}, {"uri": "textures/buttom_baseColor.jpg"}, {"uri": "textures/buttom_metallicRoughness.jpg"}, {"uri": "textures/buttom_normal.jpg"}, {"uri": "textures/plate_baseColor.jpg"}, {"uri": "textures/glows_baseColor.jpg"}, {"uri": "textures/glows_metallicRoughness.jpg"}, {"uri": "textures/glows_emissive.jpg"}], "materials": [{"doubleSided": true, "extensions": {"KHR_materials_specular": {"specularColorFactor": [1.0, 1.0, 1.0], "specularFactor": 0.17523862929867975}}, "name": "diff", "normalTexture": {"index": 1}, "pbrMetallicRoughness": {"baseColorTexture": {"index": 0}, "metallicFactor": 0.23009593934000558, "roughnessFactor": 0.3276200460801404}}, {"doubleSided": true, "extensions": {"KHR_materials_specular": {"specularColorFactor": [1.0, 1.0, 1.0], "specularFactor": 0.10819080591483707}}, "name": "tire", "pbrMetallicRoughness": {"baseColorTexture": {"index": 2}, "metallicFactor": 0.49828723287537635, "roughnessFactor": 0.4678109495190842}}, {"doubleSided": true, "extensions": {"KHR_materials_clearcoat": {"clearcoatFactor": 1.0, "clearcoatRoughnessFactor": 0.06552400921602808, "clearcoatTexture": {"index": 4}}, "KHR_materials_specular": {"specularColorFactor": [1.0, 1.0, 1.0], "specularFactor": 0.1569528592849045}}, "name": "color", "pbrMetallicRoughness": {"baseColorTexture": {"index": 3}, "metallicFactor": 0.05333349587351123, "roughnessFactor": 0.059428752544769654}}, {"doubleSided": true, "extensions": {"KHR_materials_specular": {"specularColorFactor": [1.0, 1.0, 1.0], "specularFactor": 0.1569528592849045}}, "name": "carpaint", "pbrMetallicRoughness": {"baseColorTexture": {"index": 3}, "metallicRoughnessTexture": {"index": 5}, "roughnessFactor": 0.1386670892711292}}, {"doubleSided": true, "extensions": {"KHR_materials_specular": {"specularColorFactor": [1.0, 1.0, 1.0], "specularFactor": 0.1569528592849045}}, "name": "plastic", "occlusionTexture": {"index": 6}, "pbrMetallicRoughness": {"baseColorFactor": [0.1138788422272192, 0.1138788422272192, 0.1138788422272192, 1.0], "metallicFactor": 0.5714303129304774, "metallicRoughnessTexture": {"index": 6}, "roughnessFactor": 0.4556204361765674}}, {"doubleSided": true, "extensions": {"KHR_materials_specular": {"specularColorFactor": [1.0, 1.0, 1.0], "specularFactor": 0.24838170935378087}}, "name": "buttom", "normalTexture": {"index": 9}, "pbrMetallicRoughness": {"baseColorTexture": {"index": 7}, "metallicRoughnessTexture": {"index": 8}, "roughnessFactor": 0.29104850605258986}}, {"doubleSided": true, "name": "plate", "pbrMetallicRoughness": {"baseColorFactor": [0.0, 0.0, 0.0, 1.0], "baseColorTexture": {"index": 10}, "metallicFactor": 0.4373346661627921, "roughnessFactor": 0.38247735612146627}}, {"doubleSided": true, "extensions": {"KHR_materials_specular": {"specularColorFactor": [1.0, 1.0, 1.0], "specularFactor": 0.1630481159561629}}, "name": "glass_surr", "pbrMetallicRoughness": {"baseColorFactor": [0.0, 0.0, 0.0, 1.0], "metallicFactor": 0.0, "roughnessFactor": 0.03504772585973595}}, {"alphaMode": "BLEND", "doubleSided": true, "extensions": {"KHR_materials_transmission": {"transmissionFactor": 1.0}}, "name": "glass", "pbrMetallicRoughness": {"baseColorFactor": [0.0, 0.0, 0.0, 0.25], "metallicFactor": 0.0, "roughnessFactor": 0.0}}, {"alphaMode": "BLEND", "doubleSided": true, "emissiveFactor": [0.28952469188477525, 0.28952469188477525, 0.28952469188477525], "emissiveTexture": {"index": 13}, "name": "glows", "pbrMetallicRoughness": {"baseColorFactor": [1.0, 1.0, 1.0, 0.2971437627238483], "baseColorTexture": {"index": 11}, "metallicFactor": 0.0, "metallicRoughnessTexture": {"index": 12}}}], "meshes": [{"name": "bone_caliper_BL_rim_diff_0", "primitives": [{"attributes": {"NORMAL": 1, "POSITION": 0, "TANGENT": 2, "TEXCOORD_0": 3, "TEXCOORD_1": 4}, "indices": 5, "material": 0, "mode": 4}]}, {"name": "WheelBL_rim_diff_0", "primitives": [{"attributes": {"NORMAL": 7, "POSITION": 6, "TANGENT": 8, "TEXCOORD_0": 9, "TEXCOORD_1": 10}, "indices": 11, "material": 0, "mode": 4}]}, {"name": "WheelBL_tyres_tire_0", "primitives": [{"attributes": {"NORMAL": 13, "POSITION": 12, "TEXCOORD_0": 14}, "indices": 15, "material": 1, "mode": 4}]}, {"name": "bone_caliper_BR_rim_diff_0", "primitives": [{"attributes": {"NORMAL": 17, "POSITION": 16, "TANGENT": 18, "TEXCOORD_0": 19, "TEXCOORD_1": 20}, "indices": 21, "material": 0, "mode": 4}]}, {"name": "WheelBR_rim_diff_0", "primitives": [{"attributes": {"NORMAL": 23, "POSITION": 22, "TANGENT": 24, "TEXCOORD_0": 25, "TEXCOORD_1": 26}, "indices": 27, "material": 0, "mode": 4}]}, {"name": "WheelBR_tyres_tire_0", "primitives": [{"attributes": {"NORMAL": 29, "POSITION": 28, "TEXCOORD_0": 30}, "indices": 31, "material": 1, "mode": 4}]}, {"name": "bone_caliper_FL_rim_diff_0", "primitives": [{"attributes": {"NORMAL": 33, "POSITION": 32, "TANGENT": 34, "TEXCOORD_0": 35, "TEXCOORD_1": 36}, "indices": 37, "material": 0, "mode": 4}]}, {"name": "WheelFL_tyres_tire_0", "primitives": [{"attributes": {"NORMAL": 39, "POSITION": 38, "TEXCOORD_0": 40}, "indices": 41, "material": 1, "mode": 4}]}, {"name": "WheelFL_rim_diff_0", "primitives": [{"attributes": {"NORMAL": 43, "POSITION": 42, "TANGENT": 44, "TEXCOORD_0": 45, "TEXCOORD_1": 46}, "indices": 47, "material": 0, "mode": 4}]}, {"name": "bone_caliper_FR_rim_diff_0", "primitives": [{"attributes": {"NORMAL": 49, "POSITION": 48, "TANGENT": 50, "TEXCOORD_0": 51, "TEXCOORD_1": 52}, "indices": 53, "material": 0, "mode": 4}]}, {"name": "WheelFR_rim_diff_0", "primitives": [{"attributes": {"NORMAL": 55, "POSITION": 54, "TANGENT": 56, "TEXCOORD_0": 57, "TEXCOORD_1": 58}, "indices": 59, "material": 0, "mode": 4}]}, {"name": "WheelFR_tyres_tire_0", "primitives": [{"attributes": {"NORMAL": 61, "POSITION": 60, "TEXCOORD_0": 62}, "indices": 63, "material": 1, "mode": 4}]}, {"name": "chassis_carpaint_color_0", "primitives": [{"attributes": {"NORMAL": 65, "POSITION": 64, "TEXCOORD_0": 66}, "indices": 67, "material": 2, "mode": 4}]}, {"name": "chassis_carpaint_carpaint_0", "primitives": [{"attributes": {"NORMAL": 69, "POSITION": 68, "TEXCOORD_0": 70}, "indices": 71, "material": 3, "mode": 4}]}, {"name": "chassis_carpaint_plastic_0", "primitives": [{"attributes": {"NORMAL": 73, "POSITION": 72, "TEXCOORD_0": 74}, "indices": 75, "material": 4, "mode": 4}]}, {"name": "chassis_car_bottom_buttom_0", "primitives": [{"attributes": {"NORMAL": 77, "POSITION": 76, "TANGENT": 78, "TEXCOORD_0": 79, "TEXCOORD_1": 80}, "indices": 81, "material": 5, "mode": 4}]}, {"name": "chassis_interior_diff_0", "primitives": [{"attributes": {"NORMAL": 83, "POSITION": 82, "TANGENT": 84, "TEXCOORD_0": 85, "TEXCOORD_1": 86}, "indices": 87, "material": 0, "mode": 4}]}, {"name": "detach_bumper_B_25_carpaint_color_0", "primitives": [{"attributes": {"NORMAL": 89, "POSITION": 88, "TEXCOORD_0": 90}, "indices": 91, "material": 2, "mode": 4}]}, {"name": "detach_bumper_B_25_carpaint_carpaint_0", "primitives": [{"attributes": {"NORMAL": 93, "POSITION": 92, "TEXCOORD_0": 94}, "indices": 95, "material": 3, "mode": 4}]}, {"name": "detach_bumper_B_25_interior_diff_0", "primitives": [{"attributes": {"NORMAL": 97, "POSITION": 96, "TANGENT": 98, "TEXCOORD_0": 99, "TEXCOORD_1": 100}, "indices": 101, "material": 0, "mode": 4}]}, {"name": "detach_bumper_B_25_chrome2_diff_0", "primitives": [{"attributes": {"NORMAL": 103, "POSITION": 102, "TANGENT": 104, "TEXCOORD_0": 105, "TEXCOORD_1": 106}, "indices": 107, "material": 0, "mode": 4}]}, {"name": "detach_bumper_B_25_licence_plate_plate_0", "primitives": [{"attributes": {"NORMAL": 109, "POSITION": 108, "TEXCOORD_0": 110}, "indices": 111, "material": 6, "mode": 4}]}, {"name": "detach_bumper_F_25_carpaint_carpaint_0", "primitives": [{"attributes": {"NORMAL": 113, "POSITION": 112, "TEXCOORD_0": 114}, "indices": 115, "material": 3, "mode": 4}]}, {"name": "detach_bumper_F_25_carpaint_plastic_0", "primitives": [{"attributes": {"NORMAL": 117, "POSITION": 116, "TEXCOORD_0": 118}, "indices": 119, "material": 4, "mode": 4}]}, {"name": "detach_bumper_F_25_carpaint_color_0", "primitives": [{"attributes": {"NORMAL": 121, "POSITION": 120, "TEXCOORD_0": 122}, "indices": 123, "material": 2, "mode": 4}]}, {"name": "detach_bumper_F_25_interior_diff_0", "primitives": [{"attributes": {"NORMAL": 125, "POSITION": 124, "TANGENT": 126, "TEXCOORD_0": 127, "TEXCOORD_1": 128}, "indices": 129, "material": 0, "mode": 4}]}, {"name": "detach_bumper_F_25_chrome_carpaint_0", "primitives": [{"attributes": {"NORMAL": 131, "POSITION": 130, "TEXCOORD_0": 132}, "indices": 133, "material": 3, "mode": 4}]}, {"name": "detach_bumper_F_25_chrome2_diff_0", "primitives": [{"attributes": {"NORMAL": 135, "POSITION": 134, "TANGENT": 136, "TEXCOORD_0": 137, "TEXCOORD_1": 138}, "indices": 139, "material": 0, "mode": 4}]}, {"name": "detach_door_L_40_pivot_carpaint_color_0", "primitives": [{"attributes": {"NORMAL": 141, "POSITION": 140, "TEXCOORD_0": 142}, "indices": 143, "material": 2, "mode": 4}]}, {"name": "detach_door_L_40_pivot_carpaint_carpaint_0", "primitives": [{"attributes": {"NORMAL": 145, "POSITION": 144, "TEXCOORD_0": 146}, "indices": 147, "material": 3, "mode": 4}]}, {"name": "detach_door_L_40_pivot_carpaint_plastic_0", "primitives": [{"attributes": {"NORMAL": 149, "POSITION": 148, "TEXCOORD_0": 150}, "indices": 151, "material": 4, "mode": 4}]}, {"name": "detach_door_R_40_carpaint_color_0", "primitives": [{"attributes": {"NORMAL": 153, "POSITION": 152, "TEXCOORD_0": 154}, "indices": 155, "material": 2, "mode": 4}]}, {"name": "detach_door_R_40_carpaint_carpaint_0", "primitives": [{"attributes": {"NORMAL": 157, "POSITION": 156, "TEXCOORD_0": 158}, "indices": 159, "material": 3, "mode": 4}]}, {"name": "detach_door_R_40_carpaint_plastic_0", "primitives": [{"attributes": {"NORMAL": 161, "POSITION": 160, "TEXCOORD_0": 162}, "indices": 163, "material": 4, "mode": 4}]}, {"name": "glasses_glass_boder_glass_surr_0", "primitives": [{"attributes": {"NORMAL": 165, "POSITION": 164, "TEXCOORD_0": 166}, "indices": 167, "material": 7, "mode": 4}]}, {"name": "glasses_glass_window_glass_0", "primitives": [{"attributes": {"NORMAL": 169, "POSITION": 168}, "indices": 170, "material": 8, "mode": 4}]}, {"name": "lights_brakes_glows_glows_0", "primitives": [{"attributes": {"NORMAL": 172, "POSITION": 171, "TEXCOORD_0": 173}, "indices": 174, "material": 9, "mode": 4}]}, {"name": "lights_reverse_glows_glows_0", "primitives": [{"attributes": {"NORMAL": 176, "POSITION": 175, "TEXCOORD_0": 177}, "indices": 178, "material": 9, "mode": 4}]}], "nodes": [{"children": [1], "matrix": [1.0, 0.0, 0.0, 0.0, 0.0, 2.220446049250313e-16, -1.0, 0.0, 0.0, 1.0, 2.220446049250313e-16, 0.0, 0.0, 0.0, 0.0, 1.0], "name": "Sketchfab_model"}, {"children": [2], "matrix": [0.009999999776482582, 0.0, 0.0, 0.0, 0.0, 0.0, 0.009999999776482582, 0.0, 0.0, -0.009999999776482582, 0.0, 0.0, 0.0, 0.0, 0.0, 1.0], "name": "FINAL_MODEL_GS.fbx"}, {"children": [3], "name": "RootNode"}, {"children": [4, 14, 24, 34, 44, 53, 63, 74, 80, 85, 90, 93], "matrix": [1.0, 0.0, 0.0, 0.0, 0.0, 2.220446049250313e-16, -1.0, 0.0, 0.0, 1.0, 2.220446049250313e-16, 0.0, 0.0, 0.0, 0.0, 1.0], "name": "car_chevrolet_camaro_gs"}, {"children": [5, 8], "matrix": [1.0, 0.0, 0.0, 0.0, 0.0, 1.0, 0.0, 0.0, 0.0, 0.0, 1.0, 0.0, 0.8120440244674683, 1.4351999759674072, 0.3547370135784149, 1.0], "name": "bone_wheel_BL_steer"}, {"children": [6], "matrix": [1.0, 0.0, 0.0, 0.0, 0.0, 1.0, 0.0, 0.0, 0.0, 0.0, 1.0, 0.0, 0.04273099824786186, 0.15967999398708344, 0.02780199982225895, 1.0], "name": "bone_caliper_BL"}, {"children": [7], "name": "bone_caliper_BL_rim"}, {"mesh": 0, "name": "bone_caliper_BL_rim_diff_0"}, {"children": [9], "name": "bone_wheel_BL_rotation"}, {"children": [10, 12], "name": "WheelBL"}, {"children": [11], "name": "WheelBL_rim"}, {"mesh": 1, "name": "WheelBL_rim_diff_0"}, {"children": [13], "name": "WheelBL_tyres"}, {"mesh": 2, "name": "WheelBL_tyres_tire_0"}, {"children": [15, 18], "matrix": [1.0, 0.0, 0.0, 0.0, 0.0, 1.0, 0.0, 0.0, 0.0, 0.0, 1.0, 0.0, -0.8120440244674683, 1.4351999759674072, 0.3547370135784149, 1.0], "name": "bone_wheel_BR_steer"}, {"children": [16], "matrix": [1.0, 0.0, 0.0, 0.0, 0.0, 1.0, 0.0, 0.0, 0.0, 0.0, 1.0, 0.0, -0.04273099824786186, 0.15967999398708344, 0.02780199982225895, 1.0], "name": "bone_caliper_BR"}, {"children": [17], "name": "bone_caliper_BR_rim"}, {"mesh": 3, "name": "bone_caliper_BR_rim_diff_0"}, {"children": [19], "name": "bone_wheel_BR_rotation"}, {"children": [20, 22], "name": "WheelBR"}, {"children": [21], "name": "WheelBR_rim"}, {"mesh": 4, "name": "WheelBR_rim_diff_0"}, {"children": [23], "name": "WheelBR_tyres"}, {"mesh": 5, "name": "WheelBR_tyres_tire_0"}, {"children": [25, 28], "matrix": [1.0, 0.0, 0.0, 0.0, 0.0, 1.0, 0.0, 0.0, 0.0, 0.0, 1.0, 0.0, 0.8132389783859253, -1.464460015296936, 0.35488998889923096, 1.0], "name": "bone_wheel_FL_steer"}, {"children": [26], "matrix": [1.0, 0.0, 0.0, 0.0, 0.0, 1.0, 0.0, 0.0, 0.0, 0.0, 1.0, 0.0, -0.8615760207176208, -0.0043680001981556416, 0.0019460000330582261, 1.0], "name": "bone_caliper_FL"}, {"children": [27], "matrix": [1.0, 0.0, 0.0, 0.0, 0.0, 1.0, 0.0, 0.0, 0.0, 0.0, 1.0, 0.0, 0.9030579924583435, 0.15937800705432892, 0.02504199929535389, 1.0], "name": "bone_caliper_FL_rim"}, {"mesh": 6, "name": "bone_caliper_FL_rim_diff_0"}, {"children": [29], "name": "bone_wheel_FL_rotation"}, {"children": [30, 32], "name": "WheelFL"}, {"children": [31], "name": "WheelFL_tyres"}, {"mesh": 7, "name": "WheelFL_tyres_tire_0"}, {"children": [33], "name": "WheelFL_rim"}, {"mesh": 8, "name": "WheelFL_rim_diff_0"}, {"children": [35, 38], "matrix": [1.0, 0.0, 0.0, 0.0, 0.0, 1.0, 0.0, 0.0, 0.0, 0.0, 1.0, 0.0, -0.8132389783859253, -1.464460015296936, 0.35488998889923096, 1.0], "name": "bone_wheel_FR_steer"}, {"children": [36], "matrix": [1.0, 0.0, 0.0, 0.0, 0.0, 1.0, 0.0, 0.0, 0.0, 0.0, 1.0, 0.0, -0.04148099943995476, 0.15500999987125397, 0.026988999918103218, 1.0], "name": "bone_caliper_FR"}, {"children": [37], "name": "bone_caliper_FR_rim"}, {"mesh": 9, "name": "bone_caliper_FR_rim_diff_0"}, {"children": [39], "name": "bone_wheel_FR_rotation"}, {"children": [40, 42], "name": "WheelFR"}, {"children": [41], "name": "WheelFR_rim"}, {"mesh": 10, "name": "WheelFR_rim_diff_0"}, {"children": [43], "name": "WheelFR_tyres"}, {"mesh": 11, "name": "WheelFR_tyres_tire_0"}, {"children": [45, 49, 51], "matrix": [1.0, 0.0, 0.0, 0.0, 0.0, 1.0, 0.0, 0.0, 0.0, 0.0, 1.0, 0.0, 0.0, -0.02734600007534027, -0.021740999072790146, 1.0], "name": "chassis"}, {"children": [46, 47, 48], "matrix": [4.7189202308654785, 0.0, 0.0, 0.0, 0.0, 4.7189202308654785, 0.0, 0.0, 0.0, 0.0, 4.7189202308654785, 0.0, 0.0, 0.19984999299049377, 0.7403200268745422, 1.0], "name": "chassis_carpaint"}, {"mesh": 12, "name": "chassis_carpaint_color_0"}, {"mesh": 13, "name": "chassis_carpaint_carpaint_0"}, {"mesh": 14, "name": "chassis_carpaint_plastic_0"}, {"children": [50], "matrix": [4.7189202308654785, 0.0, 0.0, 0.0, 0.0, 4.7189202308654785, 0.0, 0.0, 0.0, 0.0, 4.7189202308654785, 0.0, 0.0, 0.19984999299049377, 0.7403200268745422, 1.0], "name": "chassis_car_bottom"}, {"mesh": 15, "name": "chassis_car_bottom_buttom_0"}, {"children": [52], "matrix": [4.7189202308654785, 0.0, 0.0, 0.0, 0.0, 4.7189202308654785, 0.0, 0.0, 0.0, 0.0, 4.7189202308654785, 0.0, 0.0, 0.19984999299049377, 0.7403200268745422, 1.0], "name": "chassis_interior"}, {"mesh": 16, "name": "chassis_interior_diff_0"}, {"children": [54, 57, 59, 61], "matrix": [1.0, 0.0, 0.0, 0.0, 0.0, 1.0, 0.0, 0.0, 0.0, 0.0, 1.0, 0.0, -0.85760498046875, 2.1611900329589844, 0.708141028881073, 1.0], "name": "detach_bumper_B_25"}, {"children": [55, 56], "matrix": [1.9017319679260254, 0.0, 0.0, 0.0, 0.0, 1.9017319679260254, 0.0, 0.0, 0.0, 0.0, 1.9017319679260254, 0.0, 0.8576040267944336, -0.06555300205945969, -0.1918189972639084, 1.0], "name": "detach_bumper_B_25_carpaint"}, {"mesh": 17, "name": "detach_bumper_B_25_carpaint_color_0"}, {"mesh": 18, "name": "detach_bumper_B_25_carpaint_carpaint_0"}, {"children": [58], "matrix": [1.9017319679260254, 0.0, 0.0, 0.0, 0.0, 1.9017319679260254, 0.0, 0.0, 0.0, 0.0, 1.9017319679260254, 0.0, 0.8576040267944336, -0.06555300205945969, -0.1918189972639084, 1.0], "name": "detach_bumper_B_25_interior"}, {"mesh": 19, "name": "detach_bumper_B_25_interior_diff_0"}, {"children": [60], "matrix": [1.9017319679260254, 0.0, 0.0, 0.0, 0.0, 1.9017319679260254, 0.0, 0.0, 0.0, 0.0, 1.9017319679260254, 0.0, 0.8576040267944336, -0.06555300205945969, -0.1918189972639084, 1.0], "name": "detach_bumper_B_25_chrome2"}, {"mesh": 20, "name": "detach_bumper_B_25_chrome2_diff_0"}, {"children": [62], "matrix": [1.9017319679260254, 0.0, 0.0, 0.0, 0.0, 1.9017319679260254, 0.0, 0.0, 0.0, 0.0, 1.9017319679260254, 0.0, 0.8576040267944336, -0.06555300205945969, -0.1918189972639084, 1.0], "name": "detach_bumper_B_25_licence_plate"}, {"mesh": 21, "name": "detach_bumper_B_25_licence_plate_plate_0"}, {"children": [64, 68, 70, 72], "matrix": [1.0, 0.0, 0.0, 0.0, 0.0, 1.0, 0.0, 0.0, 0.0, 0.0, 1.0, 0.0, 0.8892470002174377, -1.9529900550842285, 0.5894060134887695, 1.0], "name": "detach_bumper_F_25"}, {"children": [65, 66, 67], "matrix": [1.8721460103988647, 0.0, 0.0, 0.0, 0.0, 1.8721460103988647, 0.0, 0.0, 0.0, 0.0, 1.8721460103988647, 0.0, -0.8892470002174377, -0.1400189995765686, -0.10916399955749512, 1.0], "name": "detach_bumper_F_25_carpaint"}, {"mesh": 22, "name": "detach_bumper_F_25_carpaint_carpaint_0"}, {"mesh": 23, "name": "detach_bumper_F_25_carpaint_plastic_0"}, {"mesh": 24, "name": "detach_bumper_F_25_carpaint_color_0"}, {"children": [69], "matrix": [1.8721460103988647, 0.0, 0.0, 0.0, 0.0, 1.8721460103988647, 0.0, 0.0, 0.0, 0.0, 1.8721460103988647, 0.0, -0.8892470002174377, -0.1400189995765686, -0.10916399955749512, 1.0], "name": "detach_bumper_F_25_interior"}, {"mesh": 25, "name": "detach_bumper_F_25_interior_diff_0"}, {"children": [71], "matrix": [1.8721460103988647, 0.0, 0.0, 0.0, 0.0, 1.8721460103988647, 0.0, 0.0, 0.0, 0.0, 1.8721460103988647, 0.0, -0.8892470002174377, -0.1400189995765686, -0.10916399955749512, 1.0], "name": "detach_bumper_F_25_chrome"}, {"mesh": 26, "name": "detach_bumper_F_25_chrome_carpaint_0"}, {"children": [73], "matrix": [1.8721460103988647, 0.0, 0.0, 0.0, 0.0, 1.8721460103988647, 0.0, 0.0, 0.0, 0.0, 1.8721460103988647, 0.0, -0.8892470002174377, -0.1400189995765686, -0.10916399955749512, 1.0], "name": "detach_bumper_F_25_chrome2"}, {"mesh": 27, "name": "detach_bumper_F_25_chrome2_diff_0"}, {"children": [75], "matrix": [-0.9999999999997917, 1.224646799147098e-16, 6.457718232378571e-07, 0.0, 1.2246475899897496e-16, 1.0, 1.224646799147098e-16, 0.0, -6.457718232378571e-07, 1.2246475899897496e-16, -0.9999999999997917, 0.0, 0.9425789713859558, -0.7283269762992859, 0.6605600118637085, 1.0], "name": "detach_door_L_40"}, {"children": [76], "matrix": [-0.9999999999997917, 1.224646799147098e-16, 6.45771823237857e-07, 0.0, 1.2246475899897496e-16, 1.0, 1.224646799147098e-16, 0.0, -6.45771823237857e-07, 1.2246475899897496e-16, -0.9999999999997917, 0.0, 0.0, 0.0, 0.0, 1.0], "name": "detach_door_L_40_pivot"}, {"children": [77, 78, 79], "matrix": [1.4950599670410156, -4.701977299632841e-38, -1.4479720503954615e-38, 0.0, 4.701977299632841e-38, 1.4950599670410156, 1.2325951372349519e-32, 0.0, 1.4479720503954615e-38, -1.2325951372349519e-32, 1.4950599670410156, 0.0, -0.0855259969830513, 0.7475299835205078, -0.04427200183272362, 1.0], "name": "detach_door_L_40_pivot_carpaint"}, {"mesh": 28, "name": "detach_door_L_40_pivot_carpaint_color_0"}, {"mesh": 29, "name": "detach_door_L_40_pivot_carpaint_carpaint_0"}, {"mesh": 30, "name": "detach_door_L_40_pivot_carpaint_plastic_0"}, {"children": [81], "matrix": [1.0, 0.0, 0.0, 0.0, 0.0, 1.0, 0.0, 0.0, 0.0, 0.0, 1.0, 0.0, -0.9425789713859558, -0.7283279895782471, 0.6605600118637085, 1.0], "name": "detach_door_R_40"}, {"children": [82, 83, 84], "matrix": [1.4950599670410156, 0.0, 0.0, 0.0, 0.0, 1.4950599670410156, 0.0, 0.0, 0.0, 0.0, 1.4950599670410156, 0.0, 0.0855259969830513, 0.7475299835205078, -0.04427200183272362, 1.0], "name": "detach_door_R_40_carpaint"}, {"mesh": 31, "name": "detach_door_R_40_carpaint_color_0"}, {"mesh": 32, "name": "detach_door_R_40_carpaint_carpaint_0"}, {"mesh": 33, "name": "detach_door_R_40_carpaint_plastic_0"}, {"children": [86, 88], "matrix": [1.0, 0.0, 0.0, 0.0, 0.0, 1.0, 0.0, 0.0, 0.0, 0.0, 1.0, 0.0, 0.0, -0.02734600007534027, -0.021740999072790146, 1.0], "name": "glasses"}, {"children": [87], "matrix": [4.539909839630127, 0.0, 0.0, 0.0, 0.0, 4.539909839630127, 0.0, 0.0, 0.0, 0.0, 4.539909839630127, 0.0, 0.0, 0.1740649938583374, 0.9390460252761841, 1.0], "name": "glasses_glass_boder"}, {"mesh": 34, "name": "glasses_glass_boder_glass_surr_0"}, {"children": [89], "matrix": [4.539909839630127, 0.0, 0.0, 0.0, 0.0, 4.539909839630127, 0.0, 0.0, 0.0, 0.0, 4.539909839630127, 0.0, 0.0, 0.1740649938583374, 0.9390460252761841, 1.0], "name": "glasses_glass_window"}, {"mesh": 35, "name": "glasses_glass_window_glass_0"}, {"children": [91], "matrix": [1.0, 0.0, 0.0, 0.0, 0.0, 1.0, 0.0, 0.0, 0.0, 0.0, 1.0, 0.0, 0.0, -0.02734600007534027, -0.021740999072790146, 1.0], "name": "lights_brakes"}, {"children": [92], "matrix": [1.7970060110092163, 0.0, 0.0, 0.0, 0.0, 1.7970060110092163, 0.0, 0.0, 0.0, 0.0, 1.7970060110092163, 0.0, 0.0, 2.2153637409210205, 0.7949110865592957, 1.0], "name": "lights_brakes_glows"}, {"mesh": 36, "name": "lights_brakes_glows_glows_0"}, {"children": [94], "matrix": [1.0, 0.0, 0.0, 0.0, 0.0, 1.0, 0.0, 0.0, 0.0, 0.0, 1.0, 0.0, 0.0, -0.02734600007534027, -0.021740999072790146, 1.0], "name": "lights_reverse"}, {"children": [95], "matrix": [1.110002040863037, 0.0, 0.0, 0.0, 0.0, 1.110002040863037, 0.0, 0.0, 0.0, 0.0, 1.110002040863037, 0.0, 0.0, 2.48075008392334, 0.5787500143051147, 1.0], "name": "lights_reverse_glows"}, {"mesh": 37, "name": "lights_reverse_glows_glows_0"}], "samplers": [{"magFilter": 9729, "minFilter": 9987, "wrapS": 10497, "wrapT": 10497}], "scene": 0, "scenes": [{"name": "Sketchfab_Scene", "nodes": [0]}], "textures": [{"sampler": 0, "source": 0}, {"sampler": 0, "source": 1}, {"sampler": 0, "source": 2}, {"sampler": 0, "source": 3}, {"sampler": 0, "source": 4}, {"sampler": 0, "source": 5}, {"sampler": 0, "source": 6}, {"sampler": 0, "source": 7}, {"sampler": 0, "source": 8}, {"sampler": 0, "source": 9}, {"sampler": 0, "source": 10}, {"sampler": 0, "source": 11}, {"sampler": 0, "source": 12}, {"sampler": 0, "source": 13}]}