{"accessors": [{"bufferView": 2, "componentType": 5126, "count": 3480, "max": [0.9948890209197998, 0.6177660226821899, 1.6646310091018677], "min": [-0.9948890209197998, -0.09756600111722946, -1.6881730556488037], "type": "VEC3"}, {"bufferView": 2, "byteOffset": 41760, "componentType": 5126, "count": 3480, "max": [0.999795138835907, 0.9988211393356323, 0.999881386756897], "min": [-0.999795138835907, -0.9988216161727905, -0.9988220930099487], "type": "VEC3"}, {"bufferView": 3, "componentType": 5126, "count": 3480, "max": [0.9999112486839294, 0.9979296922683716, 0.9999731183052063, 1.0], "min": [-0.7751438617706299, -0.9967052936553955, -0.9999731779098511, -1.0], "type": "VEC4"}, {"bufferView": 1, "componentType": 5126, "count": 3480, "max": [0.9750980138778687, -1.0253909826278687], "min": [0.024963000789284706, -1.9746090173721313], "type": "VEC2"}, {"bufferView": 1, "byteOffset": 27840, "componentType": 5126, "count": 3480, "max": [0.9750980138778687, -1.0253909826278687], "min": [0.024963000789284706, -1.9746090173721313], "type": "VEC2"}, {"bufferView": 0, "componentType": 5125, "count": 15120, "type": "SCALAR"}, {"bufferView": 2, "byteOffset": 83520, "componentType": 5126, "count": 12901, "max": [1.0996090173721313, 1.095703125, 2.253906011581421], "min": [-1.0996090173721313, 9.999999974752427e-07, -2.089843988418579], "type": "VEC3"}, {"bufferView": 2, "byteOffset": 238332, "componentType": 5126, "count": 12901, "max": [1.0, 1.0, 1.0], "min": [-1.0, -1.0, -1.0], "type": "VEC3"}, {"bufferView": 1, "byteOffset": 55680, "componentType": 5126, "count": 12901, "max": [0.3625490069389343, 0.9875029921531677], "min": [0.010780000127851963, 0.8875120282173157], "type": "VEC2"}, {"bufferView": 0, "byteOffset": 60480, "componentType": 5125, "count": 30333, "type": "SCALAR"}, {"bufferView": 2, "byteOffset": 393144, "componentType": 5126, "count": 676, "max": [0.8530269861221313, 0.8198239803314209, -1.0449219942092896], "min": [-0.8530269861221313, 0.5644530057907104, -1.9443360567092896], "type": "VEC3"}, {"bufferView": 2, "byteOffset": 401256, "componentType": 5126, "count": 676, "max": [0.9935513734817505, 1.0, 0.0], "min": [-0.9935513734817505, -1.0, -0.8899099826812744], "type": "VEC3"}, {"bufferView": 1, "byteOffset": 158888, "componentType": 5126, "count": 676, "max": [0.049988001585006714, 0.6750490069389343], "min": [0.012497000396251678, 0.6374509930610657], "type": "VEC2"}, {"bufferView": 0, "byteOffset": 181812, "componentType": 5125, "count": 1602, "type": "SCALAR"}, {"bufferView": 2, "byteOffset": 409368, "componentType": 5126, "count": 635, "max": [0.8530269861221313, 0.8208010196685791, -1.0458979606628418], "min": [-0.8530269861221313, 0.5644530057907104, -1.9472659826278687], "type": "VEC3"}, {"bufferView": 2, "byteOffset": 416988, "componentType": 5126, "count": 635, "max": [0.9990258812904358, 1.0, 0.16283607482910156], "min": [-0.9990258812904358, -1.0, -1.0], "type": "VEC3"}, {"bufferView": 1, "byteOffset": 164296, "componentType": 5126, "count": 635, "max": [0.4250490069389343, 0.6125490069389343], "min": [0.3874509930610657, 0.5749509930610657], "type": "VEC2"}, {"bufferView": 0, "byteOffset": 188220, "componentType": 5125, "count": 2916, "type": "SCALAR"}, {"bufferView": 2, "byteOffset": 424608, "componentType": 5126, "count": 384, "max": [0.7353519797325134, 0.9121090173721313, 1.3125], "min": [-0.7353519797325134, 0.6333010196685791, -0.3315429985523224], "type": "VEC3"}, {"bufferView": 2, "byteOffset": 429216, "componentType": 5126, "count": 384, "max": [0.7954198122024536, 0.917468249797821, 0.8321642875671387], "min": [-0.7954198122024536, -0.9100968837738037, -0.46446993947029114], "type": "VEC3"}, {"bufferView": 1, "byteOffset": 169376, "componentType": 5126, "count": 384, "max": [0.030883999541401863, 0.6118159890174866], "min": [0.015143999829888344, 0.5837399959564209], "type": "VEC2"}, {"bufferView": 0, "byteOffset": 199884, "componentType": 5125, "count": 1932, "type": "SCALAR"}, {"bufferView": 2, "byteOffset": 433824, "componentType": 5126, "count": 346, "max": [0.8515620231628418, 1.0957030057907104, 2.068358898162842], "min": [-0.8515620231628418, 0.38427698612213135, -1.9560550451278687], "type": "VEC3"}, {"bufferView": 2, "byteOffset": 437976, "componentType": 5126, "count": 346, "max": [0.9993586540222168, 0.9994244575500488, 0.9942378997802734], "min": [-0.9993586540222168, -0.9951748847961426, -0.999405026435852], "type": "VEC3"}, {"bufferView": 1, "byteOffset": 172448, "componentType": 5126, "count": 346, "max": [0.3625490069389343, 0.6125490069389343], "min": [0.3249509930610657, 0.5749509930610657], "type": "VEC2"}, {"bufferView": 0, "byteOffset": 207612, "componentType": 5125, "count": 1554, "type": "SCALAR"}, {"bufferView": 2, "byteOffset": 442128, "componentType": 5126, "count": 371, "max": [0.8681640028953552, 0.9238280057907104, 2.083983898162842], "min": [-0.8681640028953552, 0.36865198612213135, 0.32958999276161194], "type": "VEC3"}, {"bufferView": 2, "byteOffset": 446580, "componentType": 5126, "count": 371, "max": [0.9490892291069031, 0.9893477559089661, 1.0], "min": [-0.9490892291069031, -0.10453703999519348, -0.42323383688926697], "type": "VEC3"}, {"bufferView": 1, "byteOffset": 175216, "componentType": 5126, "count": 371, "max": [0.09668000042438507, 0.5949710011482239], "min": [0.08972200006246567, 0.5749509930610657], "type": "VEC2"}, {"bufferView": 0, "byteOffset": 213828, "componentType": 5125, "count": 1674, "type": "SCALAR"}, {"bufferView": 2, "byteOffset": 451032, "componentType": 5126, "count": 64, "max": [1.0996090173721313, 0.8886719942092896, 0.6152340173721313], "min": [-1.0996090173721313, 0.7329099774360657, 0.33227500319480896], "type": "VEC3"}, {"bufferView": 2, "byteOffset": 451800, "componentType": 5126, "count": 64, "max": [0.6000000238418579, 0.008009000681340694, -0.800000011920929], "min": [-0.6000000238418579, -0.33819901943206787, -0.9557790160179138], "type": "VEC3"}, {"bufferView": 1, "byteOffset": 178184, "componentType": 5126, "count": 64, "max": [0.17504900693893433, 0.6125490069389343], "min": [0.13745099306106567, 0.5749509930610657], "type": "VEC2"}, {"bufferView": 0, "byteOffset": 220524, "componentType": 5125, "count": 174, "type": "SCALAR"}, {"bufferView": 2, "byteOffset": 452568, "componentType": 5126, "count": 1063, "max": [1.011855959892273, 0.9283879995346069, 2.142577886581421], "min": [-1.011855959892273, -0.005489000119268894, -2.1880249977111816], "type": "VEC3"}, {"bufferView": 2, "byteOffset": 465324, "componentType": 5126, "count": 1063, "max": [1.0, 0.9984603524208069, 1.0], "min": [-1.0, -0.999999463558197, -0.9885186553001404], "type": "VEC3"}, {"bufferView": 3, "byteOffset": 55680, "componentType": 5126, "count": 1063, "max": [1.0, 0.9999163746833801, 1.0, 1.0], "min": [-1.0, -0.9999164342880249, -1.0, -1.0], "type": "VEC4"}, {"bufferView": 1, "byteOffset": 178696, "componentType": 5126, "count": 1063, "max": [1.0029300451278687, 1.0005429983139038], "min": [6.199999916134402e-05, -2.351562023162842], "type": "VEC2"}, {"bufferView": 1, "byteOffset": 187200, "componentType": 5126, "count": 1063, "max": [1.0029300451278687, 1.0005429983139038], "min": [6.199999916134402e-05, -2.351562023162842], "type": "VEC2"}, {"bufferView": 1, "byteOffset": 195704, "componentType": 5126, "count": 1063, "max": [1.0029300451278687, 1.0005429983139038], "min": [6.199999916134402e-05, -2.351562023162842], "type": "VEC2"}, {"bufferView": 0, "byteOffset": 221220, "componentType": 5125, "count": 2262, "type": "SCALAR"}, {"bufferView": 2, "byteOffset": 478080, "componentType": 5126, "count": 1575, "max": [0.9331210255622864, 0.4521160125732422, 1.5299869775772095], "min": [-0.9331210255622864, 0.03644099831581116, -1.5216690301895142], "type": "VEC3"}, {"bufferView": 2, "byteOffset": 496980, "componentType": 5126, "count": 1575, "max": [1.0, 1.0, 1.0], "min": [-1.0, -1.0, -1.0], "type": "VEC3"}, {"bufferView": 3, "byteOffset": 72688, "componentType": 5126, "count": 1575, "max": [0.9994856715202332, 1.0, 1.0, 1.0], "min": [-0.9994856715202332, -1.0, -1.0, -1.0], "type": "VEC4"}, {"bufferView": 1, "byteOffset": 204208, "componentType": 5126, "count": 1575, "max": [0.9824219942092896, -3.007812023162842], "min": [0.012543000280857086, -3.992187976837158], "type": "VEC2"}, {"bufferView": 1, "byteOffset": 216808, "componentType": 5126, "count": 1575, "max": [0.9824219942092896, -3.007812023162842], "min": [0.012543000280857086, -3.992187976837158], "type": "VEC2"}, {"bufferView": 0, "byteOffset": 230268, "componentType": 5125, "count": 3120, "type": "SCALAR"}, {"bufferView": 2, "byteOffset": 515880, "componentType": 5126, "count": 1303, "max": [0.9413509964942932, 0.4063139855861664, 1.2296940088272095], "min": [-0.9413509964942932, 0.06378400325775146, -1.5369280576705933], "type": "VEC3"}, {"bufferView": 2, "byteOffset": 531516, "componentType": 5126, "count": 1303, "max": [1.0, 1.0, 0.999813973903656], "min": [-1.0, -1.0, -1.0], "type": "VEC3"}, {"bufferView": 3, "byteOffset": 97888, "componentType": 5126, "count": 1303, "max": [1.0, 0.9957819581031799, 1.0, 1.0], "min": [-1.0, -0.9910976886749268, -1.0, -1.0], "type": "VEC4"}, {"bufferView": 1, "byteOffset": 229408, "componentType": 5126, "count": 1303, "max": [0.9946290254592896, -2.009766101837158], "min": [0.006556999869644642, -2.994141101837158], "type": "VEC2"}, {"bufferView": 1, "byteOffset": 239832, "componentType": 5126, "count": 1303, "max": [0.9946290254592896, -2.009766101837158], "min": [0.006556999869644642, -2.994141101837158], "type": "VEC2"}, {"bufferView": 0, "byteOffset": 242748, "componentType": 5125, "count": 3756, "type": "SCALAR"}, {"bufferView": 2, "byteOffset": 547152, "componentType": 5126, "count": 1176, "max": [0.8720700144767761, 0.6733400225639343, 2.072266101837158], "min": [-0.8720700144767761, 0.37646499276161194, 1.167968988418579], "type": "VEC3"}, {"bufferView": 2, "byteOffset": 561264, "componentType": 5126, "count": 1176, "max": [0.9940102100372314, 1.0, 0.9976930022239685], "min": [-0.9940102100372314, -0.9776821136474609, -0.5438240170478821], "type": "VEC3"}, {"bufferView": 3, "byteOffset": 118736, "componentType": 5126, "count": 1176, "max": [0.9999740719795227, 0.9480874538421631, 0.7622694373130798, 1.0], "min": [-0.9999740719795227, -0.25851136445999146, -0.9949817657470703, -1.0], "type": "VEC4"}, {"bufferView": 1, "byteOffset": 250256, "componentType": 5126, "count": 1176, "max": [6.292969226837158, 5.789062023162842], "min": [-6.167969226837158, -5.34375], "type": "VEC2"}, {"bufferView": 1, "byteOffset": 259664, "componentType": 5126, "count": 1176, "max": [6.292969226837158, 5.789062023162842], "min": [-6.167969226837158, -5.34375], "type": "VEC2"}, {"bufferView": 0, "byteOffset": 257772, "componentType": 5125, "count": 2724, "type": "SCALAR"}, {"bufferView": 2, "byteOffset": 575376, "componentType": 5126, "count": 2519, "max": [0.9926760196685791, 0.9213870167732239, 2.140625], "min": [-0.9926760196685791, -0.0007469999836757779, -1.753906011581421], "type": "VEC3"}, {"bufferView": 2, "byteOffset": 605604, "componentType": 5126, "count": 2519, "max": [1.0, 1.0, 1.0], "min": [-1.0, -1.0, -0.9997472167015076], "type": "VEC3"}, {"bufferView": 3, "byteOffset": 137552, "componentType": 5126, "count": 2519, "max": [1.0, 1.0, 1.0, 1.0], "min": [-1.0, -1.0, -1.0, -1.0], "type": "VEC4"}, {"bufferView": 1, "byteOffset": 269072, "componentType": 5126, "count": 2519, "max": [0.7221680283546448, 0.6772459745407104], "min": [-0.4956049919128418, -2.445312023162842], "type": "VEC2"}, {"bufferView": 1, "byteOffset": 289224, "componentType": 5126, "count": 2519, "max": [0.7221680283546448, 0.6772459745407104], "min": [-0.4956049919128418, -2.445312023162842], "type": "VEC2"}, {"bufferView": 1, "byteOffset": 309376, "componentType": 5126, "count": 2519, "max": [0.7221680283546448, 0.6772459745407104], "min": [-0.4956049919128418, -2.445312023162842], "type": "VEC2"}, {"bufferView": 0, "byteOffset": 268668, "componentType": 5125, "count": 6645, "type": "SCALAR"}, {"bufferView": 2, "byteOffset": 635832, "componentType": 5126, "count": 189, "max": [0.9501950144767761, 0.5776370167732239, 2.099608898162842], "min": [-0.9501950144767761, 0.13525399565696716, -2.011718988418579], "type": "VEC3"}, {"bufferView": 2, "byteOffset": 638100, "componentType": 5126, "count": 189, "max": [0.9213597774505615, 0.9858037829399109, 0.9269000291824341], "min": [-0.9213597774505615, -0.3432880938053131, -0.9717216491699219], "type": "VEC3"}, {"bufferView": 3, "byteOffset": 177856, "componentType": 5126, "count": 189, "max": [0.9996386766433716, 0.9714570045471191, 0.8690740466117859, 1.0], "min": [-0.9996386766433716, -0.967218816280365, -0.8613741397857666, -1.0], "type": "VEC4"}, {"bufferView": 1, "byteOffset": 329528, "componentType": 5126, "count": 189, "max": [82.46163177490234, 30.81584930419922], "min": [-19.321474075317383, -24.45115852355957], "type": "VEC2"}, {"bufferView": 1, "byteOffset": 331040, "componentType": 5126, "count": 189, "max": [82.46163177490234, 30.81584930419922], "min": [-19.321474075317383, -24.45115852355957], "type": "VEC2"}, {"bufferView": 1, "byteOffset": 332552, "componentType": 5126, "count": 189, "max": [82.46163177490234, 30.81584930419922], "min": [-19.321474075317383, -24.45115852355957], "type": "VEC2"}, {"bufferView": 0, "byteOffset": 295248, "componentType": 5125, "count": 510, "type": "SCALAR"}, {"bufferView": 2, "byteOffset": 640368, "componentType": 5126, "count": 22, "max": [0.4436039924621582, 0.5991209745407104, 2.001952886581421], "min": [-0.4436039924621582, 0.023468000814318657, 1.6533199548721313], "type": "VEC3"}, {"bufferView": 2, "byteOffset": 640632, "componentType": 5126, "count": 22, "max": [0.017850998789072037, 0.013100998476147652, 1.0], "min": [-0.017850998789072037, -0.8542228937149048, 0.5199069380760193], "type": "VEC3"}, {"bufferView": 3, "byteOffset": 180880, "componentType": 5126, "count": 22, "max": [0.7272246479988098, 0.0, 0.021870702505111694, 1.0], "min": [-1.0, -0.7206054925918579, -0.013095605187118053, 1.0], "type": "VEC4"}, {"bufferView": 1, "byteOffset": 334064, "componentType": 5126, "count": 22, "max": [34.625, 11.796875], "min": [-33.625, -15.859375], "type": "VEC2"}, {"bufferView": 1, "byteOffset": 334240, "componentType": 5126, "count": 22, "max": [34.625, 11.796875], "min": [-33.625, -15.859375], "type": "VEC2"}, {"bufferView": 1, "byteOffset": 334416, "componentType": 5126, "count": 22, "max": [34.625, 11.796875], "min": [-33.625, -15.859375], "type": "VEC2"}, {"bufferView": 0, "byteOffset": 297288, "componentType": 5125, "count": 36, "type": "SCALAR"}, {"bufferView": 2, "byteOffset": 640896, "componentType": 5126, "count": 2047, "max": [0.9697269797325134, 0.9824219942092896, 0.8984379768371582], "min": [-0.9697269797325134, 9.999999974752427e-07, -1.3623050451278687], "type": "VEC3"}, {"bufferView": 2, "byteOffset": 665460, "componentType": 5126, "count": 2047, "max": [1.0, 1.0, 0.9610257744789124], "min": [-1.0, -0.9920378923416138, -0.9999969005584717], "type": "VEC3"}, {"bufferView": 3, "byteOffset": 181232, "componentType": 5126, "count": 2047, "max": [1.0, 1.0, 1.0, 1.0], "min": [-1.0, -0.9993734359741211, -1.0, -1.0], "type": "VEC4"}, {"bufferView": 1, "byteOffset": 334592, "componentType": 5126, "count": 2047, "max": [18.640625, 17.203125], "min": [-15.617188453674316, -16.453125], "type": "VEC2"}, {"bufferView": 1, "byteOffset": 350968, "componentType": 5126, "count": 2047, "max": [18.640625, 17.203125], "min": [-15.617188453674316, -16.453125], "type": "VEC2"}, {"bufferView": 0, "byteOffset": 297432, "componentType": 5125, "count": 5640, "type": "SCALAR"}, {"bufferView": 2, "byteOffset": 690024, "componentType": 5126, "count": 13831, "max": [0.9692379832267761, 0.9824219942092896, 1.9921879768371582], "min": [-0.9692379832267761, 0.009398999623954296, -2.037108898162842], "type": "VEC3"}, {"bufferView": 2, "byteOffset": 855996, "componentType": 5126, "count": 13831, "max": [1.0, 1.0, 1.0], "min": [-1.0, -1.0, -1.0], "type": "VEC3"}, {"bufferView": 3, "byteOffset": 213984, "componentType": 5126, "count": 13831, "max": [1.0, 1.0, 1.0, 1.0], "min": [-1.0, -1.0, -1.0, -1.0], "type": "VEC4"}, {"bufferView": 1, "byteOffset": 367344, "componentType": 5126, "count": 13831, "max": [5.304687976837158, 1.0001980066299438], "min": [-4.566405773162842, -1.1152340173721313], "type": "VEC2"}, {"bufferView": 1, "byteOffset": 477992, "componentType": 5126, "count": 13831, "max": [5.304687976837158, 1.0001980066299438], "min": [-4.566405773162842, -1.1152340173721313], "type": "VEC2"}, {"bufferView": 0, "byteOffset": 319992, "componentType": 5125, "count": 30258, "type": "SCALAR"}, {"bufferView": 2, "byteOffset": 1021968, "componentType": 5126, "count": 337, "max": [0.1523440033197403, 0.5654299855232239, 2.228516101837158], "min": [-0.31616199016571045, 0.1224370002746582, -2.017577886581421], "type": "VEC3"}, {"bufferView": 2, "byteOffset": 1026012, "componentType": 5126, "count": 337, "max": [1.0, 0.999139130115509, 1.0], "min": [-1.0, -0.9997846484184265, -0.9619433283805847], "type": "VEC3"}, {"bufferView": 1, "byteOffset": 588640, "componentType": 5126, "count": 337, "max": [0.9941409826278687, 0.9961469769477844], "min": [0.006328999996185303, 0.004395000170916319], "type": "VEC2"}, {"bufferView": 0, "byteOffset": 441024, "componentType": 5125, "count": 864, "type": "SCALAR"}, {"bufferView": 2, "byteOffset": 1030056, "componentType": 5126, "count": 5060, "max": [0.8681640028953552, 0.8208010196685791, 2.083983898162842], "min": [-0.8681640028953552, 0.36865198612213135, -1.9921879768371582], "type": "VEC3"}, {"bufferView": 2, "byteOffset": 1090776, "componentType": 5126, "count": 5060, "max": [1.0, 1.0, 1.0], "min": [-1.0, -1.0, -1.0], "type": "VEC3"}, {"bufferView": 3, "byteOffset": 435280, "componentType": 5126, "count": 5060, "max": [1.0, 1.0, 1.0, 1.0], "min": [-1.0, -1.0, -1.0, -1.0], "type": "VEC4"}, {"bufferView": 1, "byteOffset": 591336, "componentType": 5126, "count": 5060, "max": [0.984375, 0.9898070096969604], "min": [0.017333999276161194, 0.012206999585032463], "type": "VEC2"}, {"bufferView": 1, "byteOffset": 631816, "componentType": 5126, "count": 5060, "max": [0.984375, 0.9898070096969604], "min": [0.017333999276161194, 0.012206999585032463], "type": "VEC2"}, {"bufferView": 0, "byteOffset": 444480, "componentType": 5125, "count": 13008, "type": "SCALAR"}, {"bufferView": 2, "byteOffset": 1151496, "componentType": 5126, "count": 26156, "max": [1.105468988418579, 1.0693360567092896, 2.271483898162842], "min": [-1.105468988418579, -0.0035780000034719706, -2.2316040992736816], "type": "VEC3"}, {"bufferView": 2, "byteOffset": 1465368, "componentType": 5126, "count": 26156, "max": [1.0, 1.0, 1.0], "min": [-1.0, -1.0, -1.0], "type": "VEC3"}, {"bufferView": 1, "byteOffset": 672296, "componentType": 5126, "count": 26156, "max": [0.9960939884185791, 0.9901049733161926], "min": [-0.02389499917626381, 0.014159999787807465], "type": "VEC2"}, {"bufferView": 0, "byteOffset": 496512, "componentType": 5125, "count": 84075, "type": "SCALAR"}, {"bufferView": 2, "byteOffset": 1779240, "componentType": 5126, "count": 1871, "max": [1.011855959892273, 0.5315840244293213, 1.5904120206832886], "min": [-1.011855959892273, -0.022640999406576157, -1.6032119989395142], "type": "VEC3"}, {"bufferView": 2, "byteOffset": 1801692, "componentType": 5126, "count": 1871, "max": [1.0, 0.9996367692947388, 0.9988376498222351], "min": [-1.0, -0.9998288750648499, -0.9981294870376587], "type": "VEC3"}, {"bufferView": 3, "byteOffset": 516240, "componentType": 5126, "count": 1871, "max": [0.9656009078025818, 0.9987053275108337, 0.999996542930603, 1.0], "min": [-0.9656009674072266, -0.9981253147125244, -0.999999463558197, -1.0], "type": "VEC4"}, {"bufferView": 1, "byteOffset": 881544, "componentType": 5126, "count": 1871, "max": [0.9775390028953552, 0.9930920004844666], "min": [-0.9916989803314209, -0.9921879768371582], "type": "VEC2"}, {"bufferView": 1, "byteOffset": 896512, "componentType": 5126, "count": 1871, "max": [0.9775390028953552, 0.9930920004844666], "min": [-0.9916989803314209, -0.9921879768371582], "type": "VEC2"}, {"bufferView": 0, "byteOffset": 832812, "componentType": 5125, "count": 6336, "type": "SCALAR"}, {"bufferView": 2, "byteOffset": 1824144, "componentType": 5126, "count": 7771, "max": [0.9987949728965759, 0.5328050255775452, 1.590656042098999], "min": [-0.9987949728965759, -0.02312999963760376, -1.6034560203552246], "type": "VEC3"}, {"bufferView": 2, "byteOffset": 1917396, "componentType": 5126, "count": 7771, "max": [1.0, 0.9990582466125488, 0.9991410970687866], "min": [-1.0, -0.9990576505661011, -0.9994693398475647], "type": "VEC3"}, {"bufferView": 3, "byteOffset": 546176, "componentType": 5126, "count": 7771, "max": [0.9999810457229614, 0.9992846250534058, 0.9999974966049194, 1.0], "min": [-0.9999943971633911, -0.9992846250534058, -0.9999960660934448, -1.0], "type": "VEC4"}, {"bufferView": 1, "byteOffset": 911480, "componentType": 5126, "count": 7771, "max": [-9.117188453674316, 19.234375], "min": [-67.0625, -23.8125], "type": "VEC2"}, {"bufferView": 1, "byteOffset": 973648, "componentType": 5126, "count": 7771, "max": [-9.117188453674316, 19.234375], "min": [-67.0625, -23.8125], "type": "VEC2"}, {"bufferView": 0, "byteOffset": 858156, "componentType": 5125, "count": 23292, "type": "SCALAR"}, {"bufferView": 2, "byteOffset": 2010648, "componentType": 5126, "count": 370, "max": [0.5034180283546448, 1.0878909826278687, 0.3413090109825134], "min": [-0.5034180283546448, 0.4565429985523224, -1.9521479606628418], "type": "VEC3"}, {"bufferView": 2, "byteOffset": 2015088, "componentType": 5126, "count": 370, "max": [0.9560958743095398, 0.9394737482070923, 0.9999423623085022], "min": [-0.9560958743095398, -0.9880808591842651, -1.0], "type": "VEC3"}, {"bufferView": 3, "byteOffset": 670512, "componentType": 5126, "count": 370, "max": [1.0, 0.6653334498405457, 0.7656227946281433, 1.0], "min": [-1.0, -0.6692293286323547, -0.9489424228668213, -1.0], "type": "VEC4"}, {"bufferView": 1, "byteOffset": 1035816, "componentType": 5126, "count": 370, "max": [0.9594730138778687, 0.9411619901657104], "min": [0.03549199923872948, 0.2778320014476776], "type": "VEC2"}, {"bufferView": 1, "byteOffset": 1038776, "componentType": 5126, "count": 370, "max": [0.9594730138778687, 0.9411619901657104], "min": [0.03549199923872948, 0.2778320014476776], "type": "VEC2"}, {"bufferView": 0, "byteOffset": 951324, "componentType": 5125, "count": 600, "type": "SCALAR"}, {"bufferView": 2, "byteOffset": 2019528, "componentType": 5126, "count": 1730, "max": [0.5283200144767761, 1.0996090173721313, 2.210937976837158], "min": [-0.5283200144767761, 0.03891000151634216, -0.3586429953575134], "type": "VEC3"}, {"bufferView": 2, "byteOffset": 2040288, "componentType": 5126, "count": 1730, "max": [1.0, 1.0, 0.9999324679374695], "min": [-1.0, -1.0, -1.0], "type": "VEC3"}, {"bufferView": 3, "byteOffset": 676432, "componentType": 5126, "count": 1730, "max": [1.0, 0.998479962348938, 0.9999956488609314, 1.0], "min": [-1.0, -0.999969482421875, -1.0, -1.0], "type": "VEC4"}, {"bufferView": 1, "byteOffset": 1041736, "componentType": 5126, "count": 1730, "max": [0.9970700144767761, 0.9990829825401306], "min": [0.0021170000545680523, 0.1479489952325821], "type": "VEC2"}, {"bufferView": 1, "byteOffset": 1055576, "componentType": 5126, "count": 1730, "max": [0.9970700144767761, 0.9990829825401306], "min": [0.0021170000545680523, 0.1479489952325821], "type": "VEC2"}, {"bufferView": 0, "byteOffset": 953724, "componentType": 5125, "count": 4104, "type": "SCALAR"}, {"bufferView": 2, "byteOffset": 2061048, "componentType": 5126, "count": 13827, "max": [0.9692379832267761, 0.9824219942092896, 1.9921879768371582], "min": [-0.9692379832267761, 0.009398999623954296, -2.037108898162842], "type": "VEC3"}, {"bufferView": 2, "byteOffset": 2226972, "componentType": 5126, "count": 13827, "max": [1.0, 1.0, 1.0], "min": [-1.0, -1.0, -1.0], "type": "VEC3"}, {"bufferView": 1, "byteOffset": 1069416, "componentType": 5126, "count": 13827, "max": [0.9951170086860657, 0.9911649823188782], "min": [0.0, 0.0], "type": "VEC2"}, {"bufferView": 0, "byteOffset": 970140, "componentType": 5125, "count": 30258, "type": "SCALAR"}], "asset": {"extras": {"author": "Ddiaz Design (https://sketchfab.com/ddiaz-design)", "license": "CC-BY-NC-SA-4.0 (http://creativecommons.org/licenses/by-nc-sa/4.0/)", "source": "https://sketchfab.com/3d-models/2014-koenigsegg-one1-patrol-8f935562797148d197a6b3996e79f330", "title": "2014 Koenigsegg One:1 - Patrol"}, "generator": "Sketchfab-17.8.0", "version": "2.0"}, "bufferViews": [{"buffer": 0, "byteLength": 1091172, "name": "floatBufferViews", "target": 34963}, {"buffer": 0, "byteLength": 1180032, "byteOffset": 1091172, "byteStride": 8, "name": "floatBufferViews", "target": 34962}, {"buffer": 0, "byteLength": 2392896, "byteOffset": 2271204, "byteStride": 12, "name": "floatBufferViews", "target": 34962}, {"buffer": 0, "byteLength": 704112, "byteOffset": 4664100, "byteStride": 16, "name": "floatBufferViews", "target": 34962}], "buffers": [{"byteLength": 5368212, "uri": "scene.bin"}], "extensionsUsed": ["KHR_materials_specular", "KHR_materials_transmission", "KHR_materials_clearcoat", "KHR_materials_emissive_strength"], "images": [{"uri": "textures/tire_metallicRoughness.jpg"}, {"uri": "textures/tire_normal.jpg"}, {"uri": "textures/plastic_S_baseColor.jpg"}, {"uri": "textures/Badges_baseColor.png"}, {"uri": "textures/Badges_normal.jpg"}, {"uri": "textures/disk_baseColor.jpg"}, {"uri": "textures/disk_metallicRoughness.jpg"}, {"uri": "textures/disk_normal.jpg"}, {"uri": "textures/Caliper_baseColor.jpg"}, {"uri": "textures/Caliper_metallicRoughness.jpg"}, {"uri": "textures/Caliper_normal.jpg"}, {"uri": "textures/Carbon_baseColor.jpg"}, {"uri": "textures/Carbon_normal.jpg"}, {"uri": "textures/chassis_baseColor.png"}, {"uri": "textures/chassis_normal.jpg"}, {"uri": "textures/grille_A_baseColor.png"}, {"uri": "textures/grille_A_normal.jpg"}, {"uri": "textures/COPgrille_B_baseColor.png"}, {"uri": "textures/COPgrille_B_normal.jpg"}, {"uri": "textures/Internal_baseColor.jpg"}, {"uri": "textures/Internal_normal.jpg"}, {"uri": "textures/Plates_baseColor.jpg"}, {"uri": "textures/Lights_baseColor.jpg"}, {"uri": "textures/Lights_metallicRoughness.jpg"}, {"uri": "textures/Lights_emissive.jpg"}, {"uri": "textures/Lights_normal.jpg"}, {"uri": "textures/COP_Liv_baseColor.jpg"}, {"uri": "textures/rims_baseColor.jpg"}, {"uri": "textures/rims_metallicRoughness.jpg"}, {"uri": "textures/rims_normal.jpg"}, {"uri": "textures/COP_Lights_baseColor.jpg"}, {"uri": "textures/COP_Lights_metallicRoughness.jpg"}, {"uri": "textures/COP_Lights_emissive.jpg"}, {"uri": "textures/COP_Lights_normal.jpg"}, {"uri": "textures/copProps_baseColor.jpg"}, {"uri": "textures/copProps_normal.jpg"}, {"uri": "textures/COPemiss_baseColor.jpg"}, {"uri": "textures/COPemiss_emissive.jpg"}], "materials": [{"doubleSided": true, "extensions": {"KHR_materials_specular": {"specularColorFactor": [1.0, 1.0, 1.0], "specularFactor": 0.2605722226962977}}, "name": "tire", "normalTexture": {"index": 1}, "occlusionTexture": {"index": 0}, "pbrMetallicRoughness": {"baseColorFactor": [0.019708368943048015, 0.019708368943048015, 0.019708368943048015, 1.0], "metallicFactor": 0.7055259596981628, "metallicRoughnessTexture": {"index": 0}, "roughnessFactor": 0.38247735612146627}}, {"doubleSided": true, "extensions": {"KHR_materials_specular": {"specularColorFactor": [1.0, 1.0, 1.0], "specularFactor": 0.2544769660250393}}, "name": "plastic_S", "pbrMetallicRoughness": {"baseColorTexture": {"index": 2}, "metallicFactor": 0.6750496763418707, "roughnessFactor": 0.2544769660250393}}, {"alphaMode": "BLEND", "doubleSided": true, "extensions": {"KHR_materials_specular": {"specularColorFactor": [1.0, 1.0, 1.0], "specularFactor": 0.9127646865209493}, "KHR_materials_transmission": {"transmissionFactor": 1.0}}, "name": "red_glass", "pbrMetallicRoughness": {"baseColorFactor": [0.5, 0.0, 0.0, 0.25], "metallicFactor": 0.0, "roughnessFactor": 0.0}}, {"alphaMode": "BLEND", "doubleSided": true, "extensions": {"KHR_materials_specular": {"specularColorFactor": [1.0, 1.0, 1.0], "specularFactor": 0.8274310931233314}, "KHR_materials_transmission": {"transmissionFactor": 1.0}}, "name": "windows", "pbrMetallicRoughness": {"baseColorFactor": [0.0, 0.0, 0.0, 0.25], "metallicFactor": 0.0, "roughnessFactor": 0.0}}, {"alphaMode": "BLEND", "doubleSided": true, "extensions": {"KHR_materials_clearcoat": {"clearcoatFactor": 1.0, "clearcoatRoughnessFactor": 0.0}, "KHR_materials_specular": {"specularColorFactor": [1.0, 1.0, 1.0], "specularFactor": 1.0}}, "name": "light_glass", "pbrMetallicRoughness": {"baseColorFactor": [0.0, 0.0, 0.0, 0.49828723287537635], "metallicFactor": 0.0, "roughnessFactor": 0.0}}, {"doubleSided": true, "name": "glas_mirror", "pbrMetallicRoughness": {"baseColorFactor": [0.0, 0.0, 0.0, 1.0], "metallicFactor": 0.6628591629993539, "roughnessFactor": 0.0}}, {"doubleSided": true, "name": "mirror", "pbrMetallicRoughness": {"roughnessFactor": 0.0}}, {"alphaMode": "BLEND", "doubleSided": true, "extensions": {"KHR_materials_specular": {"specularColorFactor": [1.0, 1.0, 1.0], "specularFactor": 0.3154295327376236}}, "name": "Badges", "normalTexture": {"index": 4}, "pbrMetallicRoughness": {"baseColorTexture": {"index": 3}, "metallicFactor": 0.5592397995879607, "roughnessFactor": 0.24228645268252244}}, {"doubleSided": true, "extensions": {"KHR_materials_specular": {"specularColorFactor": [1.0, 1.0, 1.0], "specularFactor": 0.32152478940888196}}, "name": "disk", "normalTexture": {"index": 7}, "pbrMetallicRoughness": {"baseColorTexture": {"index": 5}, "metallicRoughnessTexture": {"index": 6}, "roughnessFactor": 0.3276200460801404}}, {"doubleSided": true, "extensions": {"KHR_materials_specular": {"specularColorFactor": [1.0, 1.0, 1.0], "specularFactor": 0.23009593934000558}}, "name": "Caliper", "normalTexture": {"index": 10}, "pbrMetallicRoughness": {"baseColorTexture": {"index": 8}, "metallicRoughnessTexture": {"index": 9}, "roughnessFactor": 0.2605722226962977}}, {"doubleSided": true, "extensions": {"KHR_materials_clearcoat": {"clearcoatFactor": 0.33981055942265725, "clearcoatRoughnessFactor": 0.0}, "KHR_materials_specular": {"specularColorFactor": [1.0, 1.0, 1.0], "specularFactor": 0.05}}, "name": "Carbon", "normalTexture": {"index": 12}, "pbrMetallicRoughness": {"baseColorTexture": {"index": 11}, "metallicFactor": 0.4, "roughnessFactor": 0.48}}, {"alphaMode": "BLEND", "doubleSided": true, "extensions": {"KHR_materials_specular": {"specularColorFactor": [1.0, 1.0, 1.0], "specularFactor": 0.19961965598371345}}, "name": "chassis", "normalTexture": {"index": 14, "texCoord": 1}, "pbrMetallicRoughness": {"baseColorTexture": {"index": 13}, "metallicFactor": 0.7360022430544549, "roughnessFactor": 0.3337153027513988}}, {"alphaMode": "BLEND", "doubleSided": true, "extensions": {"KHR_materials_specular": {"specularColorFactor": [1.0, 1.0, 1.0], "specularFactor": 0.2544769660250393}}, "name": "grille_A", "normalTexture": {"index": 16}, "pbrMetallicRoughness": {"baseColorFactor": [0.01101123050028984, 0.01101123050028984, 0.01101123050028984, 1.0], "baseColorTexture": {"index": 15}, "metallicFactor": 0.6750496763418707, "roughnessFactor": 0.2971437627238483}}, {"alphaMode": "BLEND", "doubleSided": true, "extensions": {"KHR_materials_specular": {"specularColorFactor": [1.0, 1.0, 1.0], "specularFactor": 0.19961965598371345}}, "name": "COPgrille_B", "normalTexture": {"index": 18}, "pbrMetallicRoughness": {"baseColorFactor": [0.012518225358363446, 0.012518225358363446, 0.012518225358363446, 1.0], "baseColorTexture": {"index": 17}, "metallicFactor": 0.7360022430544549, "roughnessFactor": 0.2971437627238483}}, {"doubleSided": true, "extensions": {"KHR_materials_specular": {"specularColorFactor": [1.0, 1.0, 1.0], "specularFactor": 0.24228645268252244}}, "name": "Internal", "normalTexture": {"index": 20}, "pbrMetallicRoughness": {"baseColorTexture": {"index": 19}, "metallicFactor": 0.8274310931233314, "roughnessFactor": 0.3946678694639831}}, {"doubleSided": true, "extensions": {"KHR_materials_specular": {"specularColorFactor": [1.0, 1.0, 1.0], "specularFactor": 0.21790542599748874}}, "name": "Plates", "pbrMetallicRoughness": {"baseColorTexture": {"index": 21}, "metallicFactor": 0.42514415282027523, "roughnessFactor": 0.2605722226962977}}, {"doubleSided": true, "emissiveFactor": [1.0, 1.0, 1.0], "emissiveTexture": {"index": 24}, "extensions": {"KHR_materials_emissive_strength": {"emissiveStrength": 7.542880130682303}, "KHR_materials_specular": {"specularColorFactor": [1.0, 1.0, 1.0], "specularFactor": 0.28495324938133143}}, "name": "Lights", "normalTexture": {"index": 25, "texCoord": 1}, "pbrMetallicRoughness": {"baseColorTexture": {"index": 22}, "metallicRoughnessTexture": {"index": 23}, "roughnessFactor": 0.32152478940888196}}, {"doubleSided": true, "extensions": {"KHR_materials_specular": {"specularColorFactor": [1.0, 1.0, 1.0], "specularFactor": 0.1630481159561629}}, "name": "COP_Liv", "pbrMetallicRoughness": {"baseColorTexture": {"index": 26}, "metallicFactor": 0.40685838280649994, "roughnessFactor": 0.15085760261364606}}, {"doubleSided": true, "extensions": {"KHR_materials_specular": {"specularColorFactor": [1.0, 1.0, 1.0], "specularFactor": 0.27276273603881457}}, "name": "rims", "normalTexture": {"index": 29}, "pbrMetallicRoughness": {"baseColorTexture": {"index": 27}, "metallicRoughnessTexture": {"index": 28}, "roughnessFactor": 0.33981055942265725}}, {"doubleSided": true, "emissiveFactor": [1.0, 1.0, 1.0], "emissiveTexture": {"index": 32}, "extensions": {"KHR_materials_emissive_strength": {"emissiveStrength": 3.3981055942265725}, "KHR_materials_specular": {"specularColorFactor": [1.0, 1.0, 1.0], "specularFactor": 0.28495324938133143}}, "name": "COP_Lights", "normalTexture": {"index": 33}, "pbrMetallicRoughness": {"baseColorTexture": {"index": 30}, "metallicRoughnessTexture": {"index": 31}, "roughnessFactor": 0.1386670892711292}}, {"doubleSided": true, "extensions": {"KHR_materials_specular": {"specularColorFactor": [1.0, 1.0, 1.0], "specularFactor": 0.24838170935378087}}, "name": "copProps", "normalTexture": {"index": 35}, "pbrMetallicRoughness": {"baseColorTexture": {"index": 34}, "metallicFactor": 0.7360022430544549, "roughnessFactor": 0.27276273603881457}}, {"doubleSided": true, "emissiveFactor": [1.0, 1.0, 1.0], "emissiveTexture": {"index": 37}, "extensions": {"KHR_materials_specular": {"specularColorFactor": [1.0, 1.0, 1.0], "specularFactor": 0.0}}, "name": "COPemiss", "pbrMetallicRoughness": {"baseColorTexture": {"index": 36}, "metallicFactor": 0.0, "roughnessFactor": 0.10573712634405641}}], "meshes": [{"name": "COP:M_Tire_Highcop_koenigsegg_one1_2014_Mesh_lod0_tire_0", "primitives": [{"attributes": {"NORMAL": 1, "POSITION": 0, "TANGENT": 2, "TEXCOORD_0": 3, "TEXCOORD_1": 4}, "indices": 5, "material": 0, "mode": 4}]}, {"name": "COP:cop_koenigsegg_one1_2014_Mesh_lod0M_Opaque_PlasticSmoothBlack_High_plastic_S_0", "primitives": [{"attributes": {"NORMAL": 7, "POSITION": 6, "TEXCOORD_0": 8}, "indices": 9, "material": 1, "mode": 4}]}, {"name": "COP:cop_koenigsegg_one1_2014_Mesh_lod0M_GlassColor_Red_High_red_glass_0", "primitives": [{"attributes": {"NORMAL": 11, "POSITION": 10, "TEXCOORD_0": 12}, "indices": 13, "material": 2, "mode": 4}]}, {"name": "COP:cop_koenigsegg_one1_2014_Mesh_lod0M_Glass_Lights_High_red_glass_0", "primitives": [{"attributes": {"NORMAL": 15, "POSITION": 14, "TEXCOORD_0": 16}, "indices": 17, "material": 2, "mode": 4}]}, {"name": "COP:cop_koenigsegg_one1_2014_Mesh_lod0M_Glass_Lights_High_windows_0", "primitives": [{"attributes": {"NORMAL": 19, "POSITION": 18, "TEXCOORD_0": 20}, "indices": 21, "material": 3, "mode": 4}]}, {"name": "COP:cop_koenigsegg_one1_2014_Mesh_lod0M_Glass_Lights_High_light_glass_0", "primitives": [{"attributes": {"NORMAL": 23, "POSITION": 22, "TEXCOORD_0": 24}, "indices": 25, "material": 4, "mode": 4}]}, {"name": "COP:cop_koenigsegg_one1_2014_Mesh_lod0M_Glass_Mirrors_High_glas_mirror_0", "primitives": [{"attributes": {"NORMAL": 27, "POSITION": 26, "TEXCOORD_0": 28}, "indices": 29, "material": 5, "mode": 4}]}, {"name": "COP:cop_koenigsegg_one1_2014_Mesh_lod0M_Glass_Mirrors_High_mirror_0", "primitives": [{"attributes": {"NORMAL": 31, "POSITION": 30, "TEXCOORD_0": 32}, "indices": 33, "material": 6, "mode": 4}]}, {"name": "COP:cop_koenigsegg_one1_2014_Mesh_lod0M_Badges_High_Badges_0", "primitives": [{"attributes": {"NORMAL": 35, "POSITION": 34, "TANGENT": 36, "TEXCOORD_0": 37, "TEXCOORD_1": 38, "TEXCOORD_2": 39}, "indices": 40, "material": 7, "mode": 4}]}, {"name": "COP:cop_koenigsegg_one1_2014_Mesh_lod0M_BrakeDisc_High_disk_0", "primitives": [{"attributes": {"NORMAL": 42, "POSITION": 41, "TANGENT": 43, "TEXCOORD_0": 44, "TEXCOORD_1": 45}, "indices": 46, "material": 8, "mode": 4}]}, {"name": "COP:cop_koenigsegg_one1_2014_Mesh_lod0M_Caliper_High_Caliper_0", "primitives": [{"attributes": {"NORMAL": 48, "POSITION": 47, "TANGENT": 49, "TEXCOORD_0": 50, "TEXCOORD_1": 51}, "indices": 52, "material": 9, "mode": 4}]}, {"name": "COP:cop_koenigsegg_one1_2014_Mesh_lod0M_CarbonA_High_Carbon_0", "primitives": [{"attributes": {"NORMAL": 54, "POSITION": 53, "TANGENT": 55, "TEXCOORD_0": 56, "TEXCOORD_1": 57}, "indices": 58, "material": 10, "mode": 4}]}, {"name": "COP:cop_koenigsegg_one1_2014_Mesh_lod0M_Chassis_High_chassis_0", "primitives": [{"attributes": {"NORMAL": 60, "POSITION": 59, "TANGENT": 61, "TEXCOORD_0": 62, "TEXCOORD_1": 63, "TEXCOORD_2": 64}, "indices": 65, "material": 11, "mode": 4}]}, {"name": "COP:cop_koenigsegg_one1_2014_Mesh_lod0M_GrilleA_High_grille_A_0", "primitives": [{"attributes": {"NORMAL": 67, "POSITION": 66, "TANGENT": 68, "TEXCOORD_0": 69, "TEXCOORD_1": 70, "TEXCOORD_2": 71}, "indices": 72, "material": 12, "mode": 4}]}, {"name": "COP:cop_koenigsegg_one1_2014_Mesh_lod0M_GrilleB_High_COP:grille_B_0", "primitives": [{"attributes": {"NORMAL": 74, "POSITION": 73, "TANGENT": 75, "TEXCOORD_0": 76, "TEXCOORD_1": 77, "TEXCOORD_2": 78}, "indices": 79, "material": 13, "mode": 4}]}, {"name": "COP:cop_koenigsegg_one1_2014_Mesh_lod0M_InternalTiled_CarbonA_High_Carbon_0", "primitives": [{"attributes": {"NORMAL": 81, "POSITION": 80, "TANGENT": 82, "TEXCOORD_0": 83, "TEXCOORD_1": 84}, "indices": 85, "material": 10, "mode": 4}]}, {"name": "COP:cop_koenigsegg_one1_2014_Mesh_lod0M_Internal_Engine_High_Internal_0", "primitives": [{"attributes": {"NORMAL": 87, "POSITION": 86, "TANGENT": 88, "TEXCOORD_0": 89, "TEXCOORD_1": 90}, "indices": 91, "material": 14, "mode": 4}]}, {"name": "COP:cop_koenigsegg_one1_2014_Mesh_lod0M_LicensePlate_High_Plates_0", "primitives": [{"attributes": {"NORMAL": 93, "POSITION": 92, "TEXCOORD_0": 94}, "indices": 95, "material": 15, "mode": 4}]}, {"name": "COP:cop_koenigsegg_one1_2014_Mesh_lod0M_LightCluster_High_Lights_0", "primitives": [{"attributes": {"NORMAL": 97, "POSITION": 96, "TANGENT": 98, "TEXCOORD_0": 99, "TEXCOORD_1": 100}, "indices": 101, "material": 16, "mode": 4}]}, {"name": "COP:cop_koenigsegg_one1_2014_Mesh_lod0M_Paint_Carbon_High_COP_Liv_0", "primitives": [{"attributes": {"NORMAL": 103, "POSITION": 102, "TEXCOORD_0": 104}, "indices": 105, "material": 17, "mode": 4}]}, {"name": "COP:cop_koenigsegg_one1_2014_Mesh_lod0M_Rim_High_rims_0", "primitives": [{"attributes": {"NORMAL": 107, "POSITION": 106, "TANGENT": 108, "TEXCOORD_0": 109, "TEXCOORD_1": 110}, "indices": 111, "material": 18, "mode": 4}]}, {"name": "COP:cop_koenigsegg_one1_2014_Mesh_lod0M_Rim_Carbon_High_Carbon_0", "primitives": [{"attributes": {"NORMAL": 113, "POSITION": 112, "TANGENT": 114, "TEXCOORD_0": 115, "TEXCOORD_1": 116}, "indices": 117, "material": 10, "mode": 4}]}, {"name": "COP:cop_koenigsegg_one1_2014_Mesh_lod0M_CopLights_High_COP_Lights_0", "primitives": [{"attributes": {"NORMAL": 119, "POSITION": 118, "TANGENT": 120, "TEXCOORD_0": 121, "TEXCOORD_1": 122}, "indices": 123, "material": 19, "mode": 4}]}, {"name": "COP:cop_koenigsegg_one1_2014_Mesh_lod0M_CopProps_High_copProps_0", "primitives": [{"attributes": {"NORMAL": 125, "POSITION": 124, "TANGENT": 126, "TEXCOORD_0": 127, "TEXCOORD_1": 128}, "indices": 129, "material": 20, "mode": 4}]}, {"name": "emis:M_Internal_Engine_Highcop_koenigsegg_one1_2014_Mesh_lod0_COP:emiss_0", "primitives": [{"attributes": {"NORMAL": 131, "POSITION": 130, "TEXCOORD_0": 132}, "indices": 133, "material": 21, "mode": 4}]}], "nodes": [{"children": [1], "matrix": [1.0, 0.0, 0.0, 0.0, 0.0, 2.220446049250313e-16, -1.0, 0.0, 0.0, 1.0, 2.220446049250313e-16, 0.0, 0.0, 0.0, 0.0, 1.0], "name": "Sketchfab_model"}, {"children": [2], "matrix": [0.009999999776482582, 0.0, 0.0, 0.0, 0.0, 0.0, 0.009999999776482582, 0.0, 0.0, -0.009999999776482582, 0.0, 0.0, 0.0, 0.0, 0.0, 1.0], "name": "FINAL_MODEL_COP.fbx"}, {"children": [3, 5, 7, 9, 13, 16, 18, 20, 22, 24, 26, 28, 30, 32, 34, 36, 38, 40, 42, 44, 46, 48], "name": "RootNode"}, {"children": [4], "name": "COP:M_Tire_Highcop_koenigsegg_one1_2014_Mesh_lod0"}, {"mesh": 0, "name": "COP:M_Tire_Highcop_koenigsegg_one1_2014_Mesh_lod0_tire_0"}, {"children": [6], "name": "COP:cop_koenigsegg_one1_2014_Mesh_lod0M_Opaque_PlasticSmoothBlack_High"}, {"mesh": 1, "name": "COP:cop_koenigsegg_one1_2014_Mesh_lod0M_Opaque_PlasticSmoothBlack_High_plastic_S_0"}, {"children": [8], "name": "COP:cop_koenigsegg_one1_2014_Mesh_lod0M_GlassColor_Red_High"}, {"mesh": 2, "name": "COP:cop_koenigsegg_one1_2014_Mesh_lod0M_GlassColor_Red_High_red_glass_0"}, {"children": [10, 11, 12], "name": "COP:cop_koenigsegg_one1_2014_Mesh_lod0M_Glass_Lights_High"}, {"mesh": 3, "name": "COP:cop_koenigsegg_one1_2014_Mesh_lod0M_Glass_Lights_High_red_glass_0"}, {"mesh": 4, "name": "COP:cop_koenigsegg_one1_2014_Mesh_lod0M_Glass_Lights_High_windows_0"}, {"mesh": 5, "name": "COP:cop_koenigsegg_one1_2014_Mesh_lod0M_Glass_Lights_High_light_glass_0"}, {"children": [14, 15], "name": "COP:cop_koenigsegg_one1_2014_Mesh_lod0M_Glass_Mirrors_High"}, {"mesh": 6, "name": "COP:cop_koenigsegg_one1_2014_Mesh_lod0M_Glass_Mirrors_High_glas_mirror_0"}, {"mesh": 7, "name": "COP:cop_koenigsegg_one1_2014_Mesh_lod0M_Glass_Mirrors_High_mirror_0"}, {"children": [17], "name": "COP:cop_koenigsegg_one1_2014_Mesh_lod0M_Badges_High"}, {"mesh": 8, "name": "COP:cop_koenigsegg_one1_2014_Mesh_lod0M_Badges_High_Badges_0"}, {"children": [19], "name": "COP:cop_koenigsegg_one1_2014_Mesh_lod0M_BrakeDisc_High"}, {"mesh": 9, "name": "COP:cop_koenigsegg_one1_2014_Mesh_lod0M_BrakeDisc_High_disk_0"}, {"children": [21], "name": "COP:cop_koenigsegg_one1_2014_Mesh_lod0M_Caliper_High"}, {"mesh": 10, "name": "COP:cop_koenigsegg_one1_2014_Mesh_lod0M_Caliper_High_Caliper_0"}, {"children": [23], "name": "COP:cop_koenigsegg_one1_2014_Mesh_lod0M_CarbonA_High"}, {"mesh": 11, "name": "COP:cop_koenigsegg_one1_2014_Mesh_lod0M_CarbonA_High_Carbon_0"}, {"children": [25], "name": "COP:cop_koenigsegg_one1_2014_Mesh_lod0M_Chassis_High"}, {"mesh": 12, "name": "COP:cop_koenigsegg_one1_2014_Mesh_lod0M_Chassis_High_chassis_0"}, {"children": [27], "name": "COP:cop_koenigsegg_one1_2014_Mesh_lod0M_GrilleA_High"}, {"mesh": 13, "name": "COP:cop_koenigsegg_one1_2014_Mesh_lod0M_GrilleA_High_grille_A_0"}, {"children": [29], "name": "COP:cop_koenigsegg_one1_2014_Mesh_lod0M_GrilleB_High"}, {"mesh": 14, "name": "COP:cop_koenigsegg_one1_2014_Mesh_lod0M_GrilleB_High_COP:grille_B_0"}, {"children": [31], "name": "COP:cop_koenigsegg_one1_2014_Mesh_lod0M_InternalTiled_CarbonA_High"}, {"mesh": 15, "name": "COP:cop_koenigsegg_one1_2014_Mesh_lod0M_InternalTiled_CarbonA_High_Carbon_0"}, {"children": [33], "name": "COP:cop_koenigsegg_one1_2014_Mesh_lod0M_Internal_Engine_High"}, {"mesh": 16, "name": "COP:cop_koenigsegg_one1_2014_Mesh_lod0M_Internal_Engine_High_Internal_0"}, {"children": [35], "name": "COP:cop_koenigsegg_one1_2014_Mesh_lod0M_LicensePlate_High"}, {"mesh": 17, "name": "COP:cop_koenigsegg_one1_2014_Mesh_lod0M_LicensePlate_High_Plates_0"}, {"children": [37], "name": "COP:cop_koenigsegg_one1_2014_Mesh_lod0M_LightCluster_High"}, {"mesh": 18, "name": "COP:cop_koenigsegg_one1_2014_Mesh_lod0M_LightCluster_High_Lights_0"}, {"children": [39], "name": "COP:cop_koenigsegg_one1_2014_Mesh_lod0M_Paint_Carbon_High"}, {"mesh": 19, "name": "COP:cop_koenigsegg_one1_2014_Mesh_lod0M_Paint_Carbon_High_COP_Liv_0"}, {"children": [41], "name": "COP:cop_koenigsegg_one1_2014_Mesh_lod0M_Rim_High"}, {"mesh": 20, "name": "COP:cop_koenigsegg_one1_2014_Mesh_lod0M_Rim_High_rims_0"}, {"children": [43], "name": "COP:cop_koenigsegg_one1_2014_Mesh_lod0M_Rim_Carbon_High"}, {"mesh": 21, "name": "COP:cop_koenigsegg_one1_2014_Mesh_lod0M_Rim_Carbon_High_Carbon_0"}, {"children": [45], "name": "COP:cop_koenigsegg_one1_2014_Mesh_lod0M_CopLights_High"}, {"mesh": 22, "name": "COP:cop_koenigsegg_one1_2014_Mesh_lod0M_CopLights_High_COP_Lights_0"}, {"children": [47], "name": "COP:cop_koenigsegg_one1_2014_Mesh_lod0M_CopProps_High"}, {"mesh": 23, "name": "COP:cop_koenigsegg_one1_2014_Mesh_lod0M_CopProps_High_copProps_0"}, {"children": [49], "name": "emis:M_Internal_Engine_Highcop_koenigsegg_one1_2014_Mesh_lod0"}, {"mesh": 24, "name": "emis:M_Internal_Engine_Highcop_koenigsegg_one1_2014_Mesh_lod0_COP:emiss_0"}], "samplers": [{"magFilter": 9729, "minFilter": 9987, "wrapS": 10497, "wrapT": 10497}], "scene": 0, "scenes": [{"name": "Sketchfab_Scene", "nodes": [0]}], "textures": [{"sampler": 0, "source": 0}, {"sampler": 0, "source": 1}, {"sampler": 0, "source": 2}, {"sampler": 0, "source": 3}, {"sampler": 0, "source": 4}, {"sampler": 0, "source": 5}, {"sampler": 0, "source": 6}, {"sampler": 0, "source": 7}, {"sampler": 0, "source": 8}, {"sampler": 0, "source": 9}, {"sampler": 0, "source": 10}, {"sampler": 0, "source": 11}, {"sampler": 0, "source": 12}, {"sampler": 0, "source": 13}, {"sampler": 0, "source": 14}, {"sampler": 0, "source": 15}, {"sampler": 0, "source": 16}, {"sampler": 0, "source": 17}, {"sampler": 0, "source": 18}, {"sampler": 0, "source": 19}, {"sampler": 0, "source": 20}, {"sampler": 0, "source": 21}, {"sampler": 0, "source": 22}, {"sampler": 0, "source": 23}, {"sampler": 0, "source": 24}, {"sampler": 0, "source": 25}, {"sampler": 0, "source": 26}, {"sampler": 0, "source": 27}, {"sampler": 0, "source": 28}, {"sampler": 0, "source": 29}, {"sampler": 0, "source": 30}, {"sampler": 0, "source": 31}, {"sampler": 0, "source": 32}, {"sampler": 0, "source": 33}, {"sampler": 0, "source": 34}, {"sampler": 0, "source": 35}, {"sampler": 0, "source": 36}, {"sampler": 0, "source": 37}]}